<?xml version="1.0" encoding="UTF-8" standalone="no"?>
<!DOCTYPE svg PUBLIC "-//W3C//DTD SVG 1.1//EN"
 "http://www.w3.org/Graphics/SVG/1.1/DTD/svg11.dtd">
<!-- Generated by graphviz version 14.1.5 (20260411.2331)
 -->
<!-- Pages: 1 -->
<svg width="314pt" height="308pt"
 viewBox="0.00 0.00 314.00 308.00" xmlns="http://www.w3.org/2000/svg" xmlns:xlink="http://www.w3.org/1999/xlink">
<g id="graph0" class="graph" transform="scale(1 1) rotate(0) translate(4 303.62)">
<!-- candies -->
<g id="node1" class="node">
<title>candies</title>
<polygon fill="#dde8f0" stroke="none" points="209,-161.88 209,-185.62 296.5,-185.62 296.5,-161.88 209,-161.88"/>
<text xml:space="preserve" text-anchor="start" x="227.62" y="-169.32" font-family="Helvetica,sans-Serif" font-weight="bold" font-size="14.00">candies</text>
<text xml:space="preserve" text-anchor="start" x="213" y="-145.12" font-family="Helvetica,sans-Serif" font-size="14.00">candy_id 🔑</text>
<text xml:space="preserve" text-anchor="start" x="213" y="-121.38" font-family="Helvetica,sans-Serif" font-size="14.00">name</text>
<text xml:space="preserve" text-anchor="start" x="213" y="-97.62" font-family="Helvetica,sans-Serif" font-size="14.00">department</text>
<text xml:space="preserve" text-anchor="start" x="213" y="-73.88" font-family="Helvetica,sans-Serif" font-size="14.00">price_pence</text>
<text xml:space="preserve" text-anchor="start" x="213" y="-50.12" font-family="Helvetica,sans-Serif" font-size="14.00">sugar_grams</text>
<polygon fill="none" stroke="black" points="208,-42.12 208,-186.62 297.5,-186.62 297.5,-42.12 208,-42.12"/>
</g>
<!-- batches -->
<g id="node2" class="node">
<title>batches</title>
<polygon fill="#dde8f0" stroke="none" points="10.12,-270.88 10.12,-294.62 97.62,-294.62 97.62,-270.88 10.12,-270.88"/>
<text xml:space="preserve" text-anchor="start" x="28.38" y="-278.32" font-family="Helvetica,sans-Serif" font-weight="bold" font-size="14.00">batches</text>
<text xml:space="preserve" text-anchor="start" x="14.12" y="-254.12" font-family="Helvetica,sans-Serif" font-size="14.00">batch_id 🔑</text>
<text xml:space="preserve" text-anchor="start" x="14.12" y="-230.38" font-family="Helvetica,sans-Serif" font-size="14.00">candy_id ↗</text>
<text xml:space="preserve" text-anchor="start" x="14.12" y="-206.62" font-family="Helvetica,sans-Serif" font-size="14.00">batch_size</text>
<text xml:space="preserve" text-anchor="start" x="14.12" y="-182.88" font-family="Helvetica,sans-Serif" font-size="14.00">quality_score</text>
<text xml:space="preserve" text-anchor="start" x="14.12" y="-159.12" font-family="Helvetica,sans-Serif" font-size="14.00">made_on</text>
<polygon fill="none" stroke="black" points="9.12,-151.12 9.12,-295.62 98.62,-295.62 98.62,-151.12 9.12,-151.12"/>
</g>
<!-- batches&#45;&gt;candies -->
<g id="edge1" class="edge">
<title>batches:candy_id&#45;&gt;candies:candy_id</title>
<path fill="none" stroke="black" d="M98.62,-235.25C125.95,-235.25 166.58,-168.22 196.92,-153.03"/>
<polygon fill="black" stroke="black" points="197.82,-156.42 206.54,-150.4 195.97,-149.67 197.82,-156.42"/>
<text xml:space="preserve" text-anchor="middle" x="153.88" y="-222.14" font-family="Times New Roman,serif" font-size="14.00">belongs to</text>
</g>
<!-- orders -->
<g id="node3" class="node">
<title>orders</title>
<polygon fill="#dde8f0" stroke="none" points="9,-100 9,-123.75 98.75,-123.75 98.75,-100 9,-100"/>
<text xml:space="preserve" text-anchor="start" x="13" y="-107.45" font-family="Helvetica,sans-Serif" font-weight="bold" font-size="14.00">shop_orders</text>
<text xml:space="preserve" text-anchor="start" x="13" y="-83.25" font-family="Helvetica,sans-Serif" font-size="14.00">order_id 🔑</text>
<text xml:space="preserve" text-anchor="start" x="13" y="-59.5" font-family="Helvetica,sans-Serif" font-size="14.00">candy_id ↗</text>
<text xml:space="preserve" text-anchor="start" x="13" y="-35.75" font-family="Helvetica,sans-Serif" font-size="14.00">shop_name</text>
<text xml:space="preserve" text-anchor="start" x="13" y="-12" font-family="Helvetica,sans-Serif" font-size="14.00">boxes</text>
<polygon fill="none" stroke="black" points="8,-4 8,-124.75 99.75,-124.75 99.75,-4 8,-4"/>
</g>
<!-- orders&#45;&gt;candies -->
<g id="edge2" class="edge">
<title>orders:candy_id&#45;&gt;candies:candy_id</title>
<path fill="none" stroke="black" d="M99.75,-64.38C157.02,-64.38 148.24,-139.01 196.74,-148.92"/>
<polygon fill="black" stroke="black" points="196.2,-152.38 206.49,-149.86 196.87,-145.41 196.2,-152.38"/>
<text xml:space="preserve" text-anchor="middle" x="153.88" y="-145.88" font-family="Times New Roman,serif" font-size="14.00">belongs to</text>
</g>
</g>
</svg>
