<?xml version="1.0" encoding="UTF-8" standalone="no"?>
<!DOCTYPE svg PUBLIC "-//W3C//DTD SVG 1.1//EN"
 "http://www.w3.org/Graphics/SVG/1.1/DTD/svg11.dtd">
<!-- Generated by graphviz version 14.1.5 (20260411.2331)
 -->
<!-- Pages: 1 -->
<svg width="284pt" height="205pt"
 viewBox="0.00 0.00 284.00 205.00" xmlns="http://www.w3.org/2000/svg" xmlns:xlink="http://www.w3.org/1999/xlink">
<g id="graph0" class="graph" transform="scale(1 1) rotate(0) translate(4 201)">
<polygon fill="white" stroke="none" points="-4,4 -4,-201 279.88,-201 279.88,4 -4,4"/>
<!-- desk -->
<g id="node1" class="node">
<title>desk</title>
<polygon fill="#eef4ff" stroke="black" points="0,-125.25 0,-196.5 130,-196.5 130,-125.25 0,-125.25"/>
<text xml:space="preserve" text-anchor="middle" x="65" y="-179.2" font-family="Helvetica,sans-Serif" font-size="14.00">DispatchDesk</text>
<polyline fill="none" stroke="black" points="0,-172.75 130,-172.75"/>
<text xml:space="preserve" text-anchor="middle" x="65" y="-155.45" font-family="Helvetica,sans-Serif" font-size="14.00">queue of packages</text>
<polyline fill="none" stroke="black" points="0,-149 130,-149"/>
<text xml:space="preserve" text-anchor="middle" x="65" y="-131.7" font-family="Helvetica,sans-Serif" font-size="14.00">next_package()</text>
</g>
<!-- pkg -->
<g id="node2" class="node">
<title>pkg</title>
<polygon fill="#eef4ff" stroke="black" points="74.12,-0.5 74.12,-71.75 201.88,-71.75 201.88,-0.5 74.12,-0.5"/>
<text xml:space="preserve" text-anchor="middle" x="138" y="-54.45" font-family="Helvetica,sans-Serif" font-size="14.00">Package</text>
<polyline fill="none" stroke="black" points="74.12,-48 201.88,-48"/>
<text xml:space="preserve" text-anchor="middle" x="138" y="-30.7" font-family="Helvetica,sans-Serif" font-size="14.00">destination, weight</text>
<polyline fill="none" stroke="black" points="74.12,-24.25 201.88,-24.25"/>
<text xml:space="preserve" text-anchor="middle" x="138" y="-6.95" font-family="Helvetica,sans-Serif" font-size="14.00"> </text>
</g>
<!-- desk&#45;&gt;pkg -->
<g id="edge1" class="edge">
<title>desk&#45;&gt;pkg</title>
<path fill="none" stroke="black" d="M85.72,-125.03C93.74,-111.55 103.01,-95.96 111.5,-81.69"/>
<polygon fill="black" stroke="black" points="114.35,-83.74 116.45,-73.36 108.33,-80.17 114.35,-83.74"/>
<text xml:space="preserve" text-anchor="middle" x="124.25" y="-93.45" font-family="Times New Roman,serif" font-size="14.00"> &#160;holds</text>
</g>
<!-- cour -->
<g id="node3" class="node">
<title>cour</title>
<polygon fill="#eef4ff" stroke="black" points="148.12,-125.25 148.12,-196.5 275.88,-196.5 275.88,-125.25 148.12,-125.25"/>
<text xml:space="preserve" text-anchor="middle" x="212" y="-179.2" font-family="Helvetica,sans-Serif" font-size="14.00">Courier</text>
<polyline fill="none" stroke="black" points="148.12,-172.75 275.88,-172.75"/>
<text xml:space="preserve" text-anchor="middle" x="212" y="-155.45" font-family="Helvetica,sans-Serif" font-size="14.00">name</text>
<polyline fill="none" stroke="black" points="148.12,-149 275.88,-149"/>
<text xml:space="preserve" text-anchor="middle" x="212" y="-131.7" font-family="Helvetica,sans-Serif" font-size="14.00">pick_up(), deliver()</text>
</g>
<!-- cour&#45;&gt;pkg -->
<g id="edge2" class="edge">
<title>cour&#45;&gt;pkg</title>
<path fill="none" stroke="black" d="M190.99,-125.03C182.87,-111.55 173.47,-95.96 164.87,-81.69"/>
<polygon fill="black" stroke="black" points="168,-80.11 159.84,-73.36 162.01,-83.73 168,-80.11"/>
<text xml:space="preserve" text-anchor="middle" x="204.56" y="-93.45" font-family="Times New Roman,serif" font-size="14.00"> &#160;delivers</text>
</g>
</g>
</svg>
