<?xml version="1.0" encoding="UTF-8" standalone="no"?>
<!DOCTYPE svg PUBLIC "-//W3C//DTD SVG 1.1//EN"
 "http://www.w3.org/Graphics/SVG/1.1/DTD/svg11.dtd">
<!-- Generated by graphviz version 14.1.5 (20260411.2331)
 -->
<!-- Pages: 1 -->
<svg width="373pt" height="247pt"
 viewBox="0.00 0.00 373.00 247.00" xmlns="http://www.w3.org/2000/svg" xmlns:xlink="http://www.w3.org/1999/xlink">
<g id="graph0" class="graph" transform="scale(1 1) rotate(0) translate(4 243)">
<polygon fill="white" stroke="none" points="-4,4 -4,-243 369.25,-243 369.25,4 -4,4"/>
<g id="clust1" class="cluster">
<title>cluster_proc</title>
<polygon fill="#fbe9e7" stroke="black" points="67.5,-8 67.5,-90 357.25,-90 357.25,-8 67.5,-8"/>
<text xml:space="preserve" text-anchor="middle" x="212.38" y="-72.7" font-family="Times New Roman,serif" font-size="14.00">Procedural</text>
</g>
<g id="clust2" class="cluster">
<title>cluster_oo</title>
<polygon fill="#e8f5e9" stroke="black" points="8,-98 8,-231 218.25,-231 218.25,-98 8,-98"/>
<text xml:space="preserve" text-anchor="middle" x="113.12" y="-213.7" font-family="Times New Roman,serif" font-size="14.00">Object&#45;Oriented</text>
</g>
<!-- data -->
<g id="node1" class="node">
<title>data</title>
<polygon fill="white" stroke="black" points="349.25,-57.5 284.5,-57.5 284.5,-16.5 349.25,-16.5 349.25,-57.5"/>
<text xml:space="preserve" text-anchor="middle" x="316.88" y="-40.2" font-family="Times New Roman,serif" font-size="14.00">Data</text>
<text xml:space="preserve" text-anchor="middle" x="316.88" y="-23.7" font-family="Times New Roman,serif" font-size="14.00">(passive)</text>
</g>
<!-- func -->
<g id="node2" class="node">
<title>func</title>
<polygon fill="white" stroke="black" points="150.75,-57.5 75.5,-57.5 75.5,-16.5 150.75,-16.5 150.75,-57.5"/>
<text xml:space="preserve" text-anchor="middle" x="113.12" y="-40.2" font-family="Times New Roman,serif" font-size="14.00">Functions</text>
<text xml:space="preserve" text-anchor="middle" x="113.12" y="-23.7" font-family="Times New Roman,serif" font-size="14.00">(in charge)</text>
</g>
<!-- func&#45;&gt;data -->
<g id="edge1" class="edge">
<title>func&#45;&gt;data</title>
<path fill="none" stroke="black" d="M151.13,-37C185.52,-37 236.72,-37 272.91,-37"/>
<polygon fill="black" stroke="black" points="272.57,-40.5 282.57,-37 272.57,-33.5 272.57,-40.5"/>
<text xml:space="preserve" text-anchor="middle" x="247.38" y="-40.2" font-family="Times New Roman,serif" font-size="14.00">acts on</text>
</g>
<!-- o1 -->
<g id="node3" class="node">
<title>o1</title>
<polygon fill="white" stroke="black" points="16,-107 16,-143 210.25,-143 210.25,-107 16,-107"/>
<text xml:space="preserve" text-anchor="middle" x="43.5" y="-120.2" font-family="Times New Roman,serif" font-size="14.00">Citizen</text>
<polyline fill="none" stroke="black" points="71,-107.5 71,-143"/>
<text xml:space="preserve" text-anchor="middle" x="118.38" y="-120.2" font-family="Times New Roman,serif" font-size="14.00">name, balance</text>
<polyline fill="none" stroke="black" points="165.75,-107.5 165.75,-143"/>
<text xml:space="preserve" text-anchor="middle" x="188" y="-120.2" font-family="Times New Roman,serif" font-size="14.00">pay()</text>
</g>
<!-- o2 -->
<g id="node4" class="node">
<title>o2</title>
<polygon fill="white" stroke="black" points="37,-162 37,-198 189.25,-198 189.25,-162 37,-162"/>
<text xml:space="preserve" text-anchor="middle" x="61.88" y="-175.2" font-family="Times New Roman,serif" font-size="14.00">Guard</text>
<polyline fill="none" stroke="black" points="86.75,-162.5 86.75,-198"/>
<text xml:space="preserve" text-anchor="middle" x="109.75" y="-175.2" font-family="Times New Roman,serif" font-size="14.00">name</text>
<polyline fill="none" stroke="black" points="132.75,-162.5 132.75,-198"/>
<text xml:space="preserve" text-anchor="middle" x="161" y="-175.2" font-family="Times New Roman,serif" font-size="14.00">patrol()</text>
</g>
</g>
</svg>
