<?xml version="1.0" encoding="UTF-8" standalone="no"?>
<!DOCTYPE svg PUBLIC "-//W3C//DTD SVG 1.1//EN"
 "http://www.w3.org/Graphics/SVG/1.1/DTD/svg11.dtd">
<!-- Generated by graphviz version 14.1.5 (20260411.2331)
 -->
<!-- Pages: 1 -->
<svg width="143pt" height="221pt"
 viewBox="0.00 0.00 143.00 221.00" xmlns="http://www.w3.org/2000/svg" xmlns:xlink="http://www.w3.org/1999/xlink">
<g id="graph0" class="graph" transform="scale(1 1) rotate(0) translate(4 216.75)">
<polygon fill="white" stroke="none" points="-4,4 -4,-216.75 139.25,-216.75 139.25,4 -4,4"/>
<!-- Guard -->
<g id="node1" class="node">
<title>Guard</title>
<polygon fill="#eef4ff" stroke="black" points="38.25,-0.5 38.25,-71.75 97,-71.75 97,-0.5 38.25,-0.5"/>
<text xml:space="preserve" text-anchor="middle" x="67.62" y="-54.45" font-family="Helvetica,sans-Serif" font-size="14.00">Guard</text>
<polyline fill="none" stroke="black" points="38.25,-48 97,-48"/>
<text xml:space="preserve" text-anchor="middle" x="67.62" y="-30.7" font-family="Helvetica,sans-Serif" font-size="14.00">name</text>
<polyline fill="none" stroke="black" points="38.25,-24.25 97,-24.25"/>
<text xml:space="preserve" text-anchor="middle" x="67.62" y="-6.95" font-family="Helvetica,sans-Serif" font-size="14.00">patrol()</text>
</g>
<!-- Knight -->
<g id="node2" class="node">
<title>Knight</title>
<polygon fill="#eef4ff" stroke="black" points="0,-125.25 0,-212.25 135.25,-212.25 135.25,-125.25 0,-125.25"/>
<text xml:space="preserve" text-anchor="middle" x="67.62" y="-194.95" font-family="Helvetica,sans-Serif" font-size="14.00">Knight</text>
<polyline fill="none" stroke="black" points="0,-188.5 135.25,-188.5"/>
<text xml:space="preserve" text-anchor="start" x="8" y="-171.2" font-family="Helvetica,sans-Serif" font-size="14.00">name (inherited)</text>
<text xml:space="preserve" text-anchor="middle" x="67.62" y="-155.45" font-family="Helvetica,sans-Serif" font-size="14.00">rank (new)</text>
<polyline fill="none" stroke="black" points="0,-149 135.25,-149"/>
<text xml:space="preserve" text-anchor="start" x="8" y="-131.7" font-family="Helvetica,sans-Serif" font-size="14.00">patrol() (overridden)</text>
</g>
<!-- Knight&#45;&gt;Guard -->
<g id="edge1" class="edge">
<title>Knight&#45;&gt;Guard</title>
<path fill="none" stroke="black" d="M67.62,-124.98C67.62,-111.74 67.62,-97.1 67.62,-83.62"/>
<polygon fill="none" stroke="black" points="71.13,-83.66 67.63,-73.66 64.13,-83.66 71.13,-83.66"/>
<text xml:space="preserve" text-anchor="middle" x="80.75" y="-93.45" font-family="Times New Roman,serif" font-size="14.00"> &#160;is a</text>
</g>
</g>
</svg>
