<?xml version="1.0" encoding="UTF-8" standalone="no"?>
<!DOCTYPE svg PUBLIC "-//W3C//DTD SVG 1.1//EN"
 "http://www.w3.org/Graphics/SVG/1.1/DTD/svg11.dtd">
<!-- Generated by graphviz version 14.1.5 (20260411.2331)
 -->
<!-- Pages: 1 -->
<svg width="270pt" height="140pt"
 viewBox="0.00 0.00 270.00 140.00" xmlns="http://www.w3.org/2000/svg" xmlns:xlink="http://www.w3.org/1999/xlink">
<g id="graph0" class="graph" transform="scale(1 1) rotate(0) translate(4 135.5)">
<polygon fill="white" stroke="none" points="-4,4 -4,-135.5 266.12,-135.5 266.12,4 -4,4"/>
<!-- api -->
<g id="node1" class="node">
<title>api</title>
<polygon fill="#fde8c8" stroke="black" points="230.75,-131.5 31,-131.5 31,-92 230.75,-92 230.75,-131.5"/>
<text xml:space="preserve" text-anchor="middle" x="130.88" y="-114.2" font-family="Helvetica,sans-Serif" font-size="14.00">DeliveryQueue interface</text>
<text xml:space="preserve" text-anchor="middle" x="130.88" y="-98.45" font-family="Helvetica,sans-Serif" font-size="14.00">enqueue · dequeue · is_empty</text>
</g>
<!-- a -->
<g id="node2" class="node">
<title>a</title>
<polygon fill="#dff0d8" stroke="black" points="121.75,-39.5 0,-39.5 0,0 121.75,0 121.75,-39.5"/>
<text xml:space="preserve" text-anchor="middle" x="60.88" y="-22.2" font-family="Helvetica,sans-Serif" font-size="14.00">Implementation A</text>
<text xml:space="preserve" text-anchor="middle" x="60.88" y="-6.45" font-family="Helvetica,sans-Serif" font-size="14.00">Python list</text>
</g>
<!-- api&#45;&gt;a -->
<g id="edge1" class="edge">
<title>api&#45;&gt;a</title>
<path fill="none" stroke="black" d="M116.03,-91.66C106.29,-79.13 93.38,-62.54 82.5,-48.55"/>
<polygon fill="black" stroke="black" points="85.53,-46.75 76.63,-41 80,-51.05 85.53,-46.75"/>
<text xml:space="preserve" text-anchor="middle" x="131.77" y="-60.7" font-family="Times New Roman,serif" font-size="14.00"> &#160;could use</text>
</g>
<!-- b -->
<g id="node3" class="node">
<title>b</title>
<polygon fill="#dff0d8" stroke="black" points="262.12,-39.5 139.62,-39.5 139.62,0 262.12,0 262.12,-39.5"/>
<text xml:space="preserve" text-anchor="middle" x="200.88" y="-22.2" font-family="Helvetica,sans-Serif" font-size="14.00">Implementation B</text>
<text xml:space="preserve" text-anchor="middle" x="200.88" y="-6.45" font-family="Helvetica,sans-Serif" font-size="14.00">linked nodes</text>
</g>
<!-- api&#45;&gt;b -->
<g id="edge2" class="edge">
<title>api&#45;&gt;b</title>
<path fill="none" stroke="black" d="M150.44,-91.51C155.67,-86.03 161.16,-79.93 165.88,-74 171.99,-66.3 178.08,-57.53 183.42,-49.36"/>
<polygon fill="black" stroke="black" points="186.27,-51.39 188.7,-41.08 180.37,-47.63 186.27,-51.39"/>
<text xml:space="preserve" text-anchor="middle" x="206.91" y="-60.7" font-family="Times New Roman,serif" font-size="14.00"> &#160;could use</text>
</g>
</g>
</svg>
