<?xml version="1.0" encoding="UTF-8" standalone="no"?>
<!DOCTYPE svg PUBLIC "-//W3C//DTD SVG 1.1//EN"
 "http://www.w3.org/Graphics/SVG/1.1/DTD/svg11.dtd">
<!-- Generated by graphviz version 14.1.5 (20260411.2331)
 -->
<!-- Pages: 1 -->
<svg width="203pt" height="398pt"
 viewBox="0.00 0.00 203.00 398.00" xmlns="http://www.w3.org/2000/svg" xmlns:xlink="http://www.w3.org/1999/xlink">
<g id="graph0" class="graph" transform="scale(1 1) rotate(0) translate(4 394)">
<polygon fill="white" stroke="none" points="-4,4 -4,-394 199.25,-394 199.25,4 -4,4"/>
<!-- Your classes (DeliveryQueue) -->
<g id="node1" class="node">
<title>Your classes (DeliveryQueue)</title>
<polygon fill="#e3f2fd" stroke="black" points="195.25,-390 0,-390 0,-354 195.25,-354 195.25,-390"/>
<text xml:space="preserve" text-anchor="middle" x="97.62" y="-366.57" font-family="Helvetica,sans-Serif" font-size="14.00">Your classes (DeliveryQueue)</text>
</g>
<!-- Python -->
<g id="node2" class="node">
<title>Python</title>
<polygon fill="#e3f2fd" stroke="black" points="126.62,-301.5 68.62,-301.5 68.62,-265.5 126.62,-265.5 126.62,-301.5"/>
<text xml:space="preserve" text-anchor="middle" x="97.62" y="-278.07" font-family="Helvetica,sans-Serif" font-size="14.00">Python</text>
</g>
<!-- Your classes (DeliveryQueue)&#45;&gt;Python -->
<g id="edge1" class="edge">
<title>Your classes (DeliveryQueue)&#45;&gt;Python</title>
<path fill="none" stroke="black" d="M97.62,-353.91C97.62,-342.26 97.62,-326.55 97.62,-313.02"/>
<polygon fill="black" stroke="black" points="101.13,-313.36 97.63,-303.36 94.13,-313.36 101.13,-313.36"/>
<text xml:space="preserve" text-anchor="middle" x="115.62" y="-322.7" font-family="Times New Roman,serif" font-size="14.00"> &#160;hides</text>
</g>
<!-- Machine code -->
<g id="node3" class="node">
<title>Machine code</title>
<polygon fill="#e3f2fd" stroke="black" points="148,-213 47.25,-213 47.25,-177 148,-177 148,-213"/>
<text xml:space="preserve" text-anchor="middle" x="97.62" y="-189.57" font-family="Helvetica,sans-Serif" font-size="14.00">Machine code</text>
</g>
<!-- Python&#45;&gt;Machine code -->
<g id="edge2" class="edge">
<title>Python&#45;&gt;Machine code</title>
<path fill="none" stroke="black" d="M97.62,-265.41C97.62,-253.76 97.62,-238.05 97.62,-224.52"/>
<polygon fill="black" stroke="black" points="101.13,-224.86 97.63,-214.86 94.13,-224.86 101.13,-224.86"/>
<text xml:space="preserve" text-anchor="middle" x="115.62" y="-234.2" font-family="Times New Roman,serif" font-size="14.00"> &#160;hides</text>
</g>
<!-- Logic gates -->
<g id="node4" class="node">
<title>Logic gates</title>
<polygon fill="#e3f2fd" stroke="black" points="140.12,-124.5 55.12,-124.5 55.12,-88.5 140.12,-88.5 140.12,-124.5"/>
<text xml:space="preserve" text-anchor="middle" x="97.62" y="-101.08" font-family="Helvetica,sans-Serif" font-size="14.00">Logic gates</text>
</g>
<!-- Machine code&#45;&gt;Logic gates -->
<g id="edge3" class="edge">
<title>Machine code&#45;&gt;Logic gates</title>
<path fill="none" stroke="black" d="M97.62,-176.91C97.62,-165.26 97.62,-149.55 97.62,-136.02"/>
<polygon fill="black" stroke="black" points="101.13,-136.36 97.63,-126.36 94.13,-136.36 101.13,-136.36"/>
<text xml:space="preserve" text-anchor="middle" x="115.62" y="-145.7" font-family="Times New Roman,serif" font-size="14.00"> &#160;hides</text>
</g>
<!-- Transistors -->
<g id="node5" class="node">
<title>Transistors</title>
<polygon fill="#e3f2fd" stroke="black" points="139,-36 56.25,-36 56.25,0 139,0 139,-36"/>
<text xml:space="preserve" text-anchor="middle" x="97.62" y="-12.57" font-family="Helvetica,sans-Serif" font-size="14.00">Transistors</text>
</g>
<!-- Logic gates&#45;&gt;Transistors -->
<g id="edge4" class="edge">
<title>Logic gates&#45;&gt;Transistors</title>
<path fill="none" stroke="black" d="M97.62,-88.41C97.62,-76.76 97.62,-61.05 97.62,-47.52"/>
<polygon fill="black" stroke="black" points="101.13,-47.86 97.63,-37.86 94.13,-47.86 101.13,-47.86"/>
<text xml:space="preserve" text-anchor="middle" x="115.62" y="-57.2" font-family="Times New Roman,serif" font-size="14.00"> &#160;hides</text>
</g>
</g>
</svg>
