<?xml version="1.0" encoding="UTF-8" standalone="no"?>
<!DOCTYPE svg PUBLIC "-//W3C//DTD SVG 1.1//EN"
 "http://www.w3.org/Graphics/SVG/1.1/DTD/svg11.dtd">
<!-- Generated by graphviz version 14.1.5 (20260411.2331)
 -->
<!-- Pages: 1 -->
<svg width="282pt" height="476pt"
 viewBox="0.00 0.00 282.00 476.00" xmlns="http://www.w3.org/2000/svg" xmlns:xlink="http://www.w3.org/1999/xlink">
<g id="graph0" class="graph" transform="scale(1 1) rotate(0) translate(4 472)">
<polygon fill="white" stroke="none" points="-4,4 -4,-472 277.65,-472 277.65,4 -4,4"/>
<!-- S -->
<g id="node1" class="node">
<title>S</title>
<ellipse fill="lightgreen" stroke="black" cx="136.82" cy="-450" rx="28.32" ry="18"/>
<text xml:space="preserve" text-anchor="middle" x="136.82" y="-444.95" font-family="Times New Roman,serif" font-size="14.00">Start</text>
</g>
<!-- R1 -->
<g id="node2" class="node">
<title>R1</title>
<polygon fill="lightblue" stroke="black" points="217.37,-396 89.24,-396 56.28,-360 184.41,-360 217.37,-396"/>
<text xml:space="preserve" text-anchor="middle" x="136.82" y="-372.95" font-family="Times New Roman,serif" font-size="14.00">READ total</text>
</g>
<!-- S&#45;&gt;R1 -->
<g id="edge1" class="edge">
<title>S&#45;&gt;R1</title>
<path fill="none" stroke="black" d="M136.82,-431.7C136.82,-424.41 136.82,-415.73 136.82,-407.54"/>
<polygon fill="black" stroke="black" points="140.32,-407.62 136.82,-397.62 133.32,-407.62 140.32,-407.62"/>
</g>
<!-- R2 -->
<g id="node3" class="node">
<title>R2</title>
<polygon fill="lightblue" stroke="black" points="219.62,-324 87.91,-324 54.03,-288 185.74,-288 219.62,-324"/>
<text xml:space="preserve" text-anchor="middle" x="136.82" y="-300.95" font-family="Times New Roman,serif" font-size="14.00">READ heirs</text>
</g>
<!-- R1&#45;&gt;R2 -->
<g id="edge2" class="edge">
<title>R1&#45;&gt;R2</title>
<path fill="none" stroke="black" d="M136.82,-359.7C136.82,-352.41 136.82,-343.73 136.82,-335.54"/>
<polygon fill="black" stroke="black" points="140.32,-335.62 136.82,-325.62 133.32,-335.62 140.32,-335.62"/>
</g>
<!-- P1 -->
<g id="node4" class="node">
<title>P1</title>
<polygon fill="lightyellow" stroke="black" points="199.57,-252 74.07,-252 74.07,-216 199.57,-216 199.57,-252"/>
<text xml:space="preserve" text-anchor="middle" x="136.82" y="-228.95" font-family="Times New Roman,serif" font-size="14.00">share = total // heirs</text>
</g>
<!-- R2&#45;&gt;P1 -->
<g id="edge3" class="edge">
<title>R2&#45;&gt;P1</title>
<path fill="none" stroke="black" d="M136.82,-287.7C136.82,-280.41 136.82,-271.73 136.82,-263.54"/>
<polygon fill="black" stroke="black" points="140.32,-263.62 136.82,-253.62 133.32,-263.62 140.32,-263.62"/>
</g>
<!-- P2 -->
<g id="node5" class="node">
<title>P2</title>
<polygon fill="lightyellow" stroke="black" points="208.57,-180 65.07,-180 65.07,-144 208.57,-144 208.57,-180"/>
<text xml:space="preserve" text-anchor="middle" x="136.82" y="-156.95" font-family="Times New Roman,serif" font-size="14.00">leftover = total % heirs</text>
</g>
<!-- P1&#45;&gt;P2 -->
<g id="edge4" class="edge">
<title>P1&#45;&gt;P2</title>
<path fill="none" stroke="black" d="M136.82,-215.7C136.82,-208.41 136.82,-199.73 136.82,-191.54"/>
<polygon fill="black" stroke="black" points="140.32,-191.62 136.82,-181.62 133.32,-191.62 140.32,-191.62"/>
</g>
<!-- O -->
<g id="node6" class="node">
<title>O</title>
<polygon fill="lightblue" stroke="black" points="273.65,-108 55.99,-108 0,-72 217.66,-72 273.65,-108"/>
<text xml:space="preserve" text-anchor="middle" x="136.82" y="-84.95" font-family="Times New Roman,serif" font-size="14.00">PRINT share, leftover</text>
</g>
<!-- P2&#45;&gt;O -->
<g id="edge5" class="edge">
<title>P2&#45;&gt;O</title>
<path fill="none" stroke="black" d="M136.82,-143.7C136.82,-136.41 136.82,-127.73 136.82,-119.54"/>
<polygon fill="black" stroke="black" points="140.32,-119.62 136.82,-109.62 133.32,-119.62 140.32,-119.62"/>
</g>
<!-- E -->
<g id="node7" class="node">
<title>E</title>
<ellipse fill="lightgreen" stroke="black" cx="136.82" cy="-18" rx="27" ry="18"/>
<text xml:space="preserve" text-anchor="middle" x="136.82" y="-12.95" font-family="Times New Roman,serif" font-size="14.00">End</text>
</g>
<!-- O&#45;&gt;E -->
<g id="edge6" class="edge">
<title>O&#45;&gt;E</title>
<path fill="none" stroke="black" d="M136.82,-71.7C136.82,-64.41 136.82,-55.73 136.82,-47.54"/>
<polygon fill="black" stroke="black" points="140.32,-47.62 136.82,-37.62 133.32,-47.62 140.32,-47.62"/>
</g>
</g>
</svg>
