<?xml version="1.0" encoding="UTF-8" standalone="no"?>
<!DOCTYPE svg PUBLIC "-//W3C//DTD SVG 1.1//EN"
 "http://www.w3.org/Graphics/SVG/1.1/DTD/svg11.dtd">
<!-- Generated by graphviz version 14.1.5 (20260411.2331)
 -->
<!-- Pages: 1 -->
<svg width="312pt" height="311pt"
 viewBox="0.00 0.00 312.00 311.00" xmlns="http://www.w3.org/2000/svg" xmlns:xlink="http://www.w3.org/1999/xlink">
<g id="graph0" class="graph" transform="scale(1 1) rotate(0) translate(4 307)">
<polygon fill="white" stroke="none" points="-4,4 -4,-307 307.5,-307 307.5,4 -4,4"/>
<!-- S -->
<g id="node1" class="node">
<title>S</title>
<ellipse fill="lightgreen" stroke="black" cx="151.75" cy="-285" rx="50.84" ry="18"/>
<text xml:space="preserve" text-anchor="middle" x="151.75" y="-279.95" font-family="Times New Roman,serif" font-size="14.00">Start / End</text>
</g>
<!-- I -->
<g id="node2" class="node">
<title>I</title>
<polygon fill="lightblue" stroke="black" points="245.05,-231 96.63,-231 58.45,-195 206.87,-195 245.05,-231"/>
<text xml:space="preserve" text-anchor="middle" x="151.75" y="-207.95" font-family="Times New Roman,serif" font-size="14.00">Input / Output</text>
</g>
<!-- S&#45;&gt;I -->
<!-- P -->
<g id="node3" class="node">
<title>P</title>
<polygon fill="lightyellow" stroke="black" points="198.75,-159 104.75,-159 104.75,-118 198.75,-118 198.75,-159"/>
<text xml:space="preserve" text-anchor="middle" x="151.75" y="-141.7" font-family="Times New Roman,serif" font-size="14.00">Process</text>
<text xml:space="preserve" text-anchor="middle" x="151.75" y="-125.2" font-family="Times New Roman,serif" font-size="14.00">(a calculation)</text>
</g>
<!-- I&#45;&gt;P -->
<!-- D -->
<g id="node4" class="node">
<title>D</title>
<polygon fill="mistyrose" stroke="black" points="151.75,-82 0,-41 151.75,0 303.5,-41 151.75,-82"/>
<text xml:space="preserve" text-anchor="middle" x="151.75" y="-44.2" font-family="Times New Roman,serif" font-size="14.00">Decision</text>
<text xml:space="preserve" text-anchor="middle" x="151.75" y="-27.7" font-family="Times New Roman,serif" font-size="14.00">(← Notebook 4, not yet)</text>
</g>
<!-- P&#45;&gt;D -->
</g>
</svg>
