<?xml version="1.0" encoding="UTF-8" standalone="no"?>
<!DOCTYPE svg PUBLIC "-//W3C//DTD SVG 1.1//EN"
 "http://www.w3.org/Graphics/SVG/1.1/DTD/svg11.dtd">
<!-- Generated by graphviz version 14.1.5 (20260411.2331)
 -->
<!-- Title: G Pages: 1 -->
<svg width="355pt" height="98pt"
 viewBox="0.00 0.00 355.00 98.00" xmlns="http://www.w3.org/2000/svg" xmlns:xlink="http://www.w3.org/1999/xlink">
<g id="graph0" class="graph" transform="scale(1 1) rotate(0) translate(4 94)">
<title>G</title>
<!-- in1 -->
<g id="node1" class="node">
<title>in1</title>
<path fill="#dde8f0" stroke="black" d="M42,-90C42,-90 12,-90 12,-90 6,-90 0,-84 0,-78 0,-78 0,-66 0,-66 0,-60 6,-54 12,-54 12,-54 42,-54 42,-54 48,-54 54,-60 54,-66 54,-66 54,-78 54,-78 54,-84 48,-90 42,-90"/>
<text xml:space="preserve" text-anchor="middle" x="27" y="-68.5" font-family="Helvetica,sans-Serif" font-size="10.00">income</text>
</g>
<!-- sum -->
<g id="node3" class="node">
<title>sum</title>
<ellipse fill="#f3e9d8" stroke="black" cx="191.1" cy="-45" rx="39.6" ry="39.6"/>
<text xml:space="preserve" text-anchor="middle" x="191.1" y="-47.5" font-family="Helvetica,sans-Serif" font-size="10.00">add up</text>
<text xml:space="preserve" text-anchor="middle" x="191.1" y="-35.5" font-family="Helvetica,sans-Serif" font-size="10.00">(weighted)</text>
</g>
<!-- in1&#45;&gt;sum -->
<g id="edge1" class="edge">
<title>in1&#45;&gt;sum</title>
<path fill="none" stroke="black" d="M54.4,-67.6C77.59,-63.74 111.93,-58.02 140.27,-53.3"/>
<polygon fill="black" stroke="black" points="140.81,-56.76 150.1,-51.66 139.66,-49.85 140.81,-56.76"/>
<text xml:space="preserve" text-anchor="middle" x="102.75" y="-67.22" font-family="Times New Roman,serif" font-size="14.00"> x weight 1</text>
</g>
<!-- in2 -->
<g id="node2" class="node">
<title>in2</title>
<path fill="#dde8f0" stroke="black" d="M42,-36C42,-36 12,-36 12,-36 6,-36 0,-30 0,-24 0,-24 0,-12 0,-12 0,-6 6,0 12,0 12,0 42,0 42,0 48,0 54,-6 54,-12 54,-12 54,-24 54,-24 54,-30 48,-36 42,-36"/>
<text xml:space="preserve" text-anchor="middle" x="27" y="-14.5" font-family="Helvetica,sans-Serif" font-size="10.00">debt</text>
</g>
<!-- in2&#45;&gt;sum -->
<g id="edge2" class="edge">
<title>in2&#45;&gt;sum</title>
<path fill="none" stroke="black" d="M54.48,-21.93C75.84,-25.15 106.64,-29.91 133.5,-34.5 135.81,-34.89 138.17,-35.31 140.55,-35.72"/>
<polygon fill="black" stroke="black" points="139.81,-39.15 150.27,-37.47 141.05,-32.26 139.81,-39.15"/>
<text xml:space="preserve" text-anchor="middle" x="102.75" y="-37.7" font-family="Times New Roman,serif" font-size="14.00"> x weight 2</text>
</g>
<!-- out -->
<g id="node4" class="node">
<title>out</title>
<path fill="#e3efe1" stroke="black" d="M334.9,-63C334.9,-63 279.7,-63 279.7,-63 273.7,-63 267.7,-57 267.7,-51 267.7,-51 267.7,-39 267.7,-39 267.7,-33 273.7,-27 279.7,-27 279.7,-27 334.9,-27 334.9,-27 340.9,-27 346.9,-33 346.9,-39 346.9,-39 346.9,-51 346.9,-51 346.9,-57 340.9,-63 334.9,-63"/>
<text xml:space="preserve" text-anchor="middle" x="307.3" y="-53.5" font-family="Helvetica,sans-Serif" font-size="10.00">over the bar?</text>
<text xml:space="preserve" text-anchor="middle" x="307.3" y="-41.5" font-family="Helvetica,sans-Serif" font-size="10.00">yes = approve</text>
<text xml:space="preserve" text-anchor="middle" x="307.3" y="-29.5" font-family="Helvetica,sans-Serif" font-size="10.00">no = deny</text>
</g>
<!-- sum&#45;&gt;out -->
<g id="edge3" class="edge">
<title>sum&#45;&gt;out</title>
<path fill="none" stroke="black" d="M231.08,-45C239.17,-45 247.79,-45 256.21,-45"/>
<polygon fill="black" stroke="black" points="255.98,-48.5 265.98,-45 255.98,-41.5 255.98,-48.5"/>
</g>
</g>
</svg>
