<?xml version="1.0" encoding="UTF-8" standalone="no"?>
<!DOCTYPE svg PUBLIC "-//W3C//DTD SVG 1.1//EN"
 "http://www.w3.org/Graphics/SVG/1.1/DTD/svg11.dtd">
<!-- Generated by graphviz version 14.1.5 (20260411.2331)
 -->
<!-- Title: G Pages: 1 -->
<svg width="324pt" height="116pt"
 viewBox="0.00 0.00 324.00 116.00" xmlns="http://www.w3.org/2000/svg" xmlns:xlink="http://www.w3.org/1999/xlink">
<g id="graph0" class="graph" transform="scale(1 1) rotate(0) translate(4 112)">
<title>G</title>
<!-- sup -->
<g id="node1" class="node">
<title>sup</title>
<path fill="#f3e9d8" stroke="black" d="M149.5,-108C149.5,-108 12,-108 12,-108 6,-108 0,-102 0,-96 0,-96 0,-84 0,-84 0,-78 6,-72 12,-72 12,-72 149.5,-72 149.5,-72 155.5,-72 161.5,-78 161.5,-84 161.5,-84 161.5,-96 161.5,-96 161.5,-102 155.5,-108 149.5,-108"/>
<text xml:space="preserve" text-anchor="middle" x="80.75" y="-92.5" font-family="Helvetica,sans-Serif" font-size="10.00">Supervised</text>
<text xml:space="preserve" text-anchor="middle" x="80.75" y="-80.5" font-family="Helvetica,sans-Serif" font-size="10.00">examples WITH answers (labels)</text>
</g>
<!-- predict a label\n(spam / not spam) -->
<g id="node3" class="node">
<title>predict a label\n(spam / not spam)</title>
<path fill="#dde8f0" stroke="black" d="M116.5,-36C116.5,-36 45,-36 45,-36 39,-36 33,-30 33,-24 33,-24 33,-12 33,-12 33,-6 39,0 45,0 45,0 116.5,0 116.5,0 122.5,0 128.5,-6 128.5,-12 128.5,-12 128.5,-24 128.5,-24 128.5,-30 122.5,-36 116.5,-36"/>
<text xml:space="preserve" text-anchor="middle" x="80.75" y="-20.5" font-family="Helvetica,sans-Serif" font-size="10.00">predict a label</text>
<text xml:space="preserve" text-anchor="middle" x="80.75" y="-8.5" font-family="Helvetica,sans-Serif" font-size="10.00">(spam / not spam)</text>
</g>
<!-- sup&#45;&gt;predict a label\n(spam / not spam) -->
<g id="edge1" class="edge">
<title>sup&#45;&gt;predict a label\n(spam / not spam)</title>
<path fill="none" stroke="black" d="M80.75,-71.7C80.75,-64.41 80.75,-55.73 80.75,-47.54"/>
<polygon fill="black" stroke="black" points="84.25,-47.62 80.75,-37.62 77.25,-47.62 84.25,-47.62"/>
</g>
<!-- uns -->
<g id="node2" class="node">
<title>uns</title>
<path fill="#f3e9d8" stroke="black" d="M304.12,-108C304.12,-108 191.38,-108 191.38,-108 185.38,-108 179.38,-102 179.38,-96 179.38,-96 179.38,-84 179.38,-84 179.38,-78 185.38,-72 191.38,-72 191.38,-72 304.12,-72 304.12,-72 310.12,-72 316.12,-78 316.12,-84 316.12,-84 316.12,-96 316.12,-96 316.12,-102 310.12,-108 304.12,-108"/>
<text xml:space="preserve" text-anchor="middle" x="247.75" y="-92.5" font-family="Helvetica,sans-Serif" font-size="10.00">Unsupervised</text>
<text xml:space="preserve" text-anchor="middle" x="247.75" y="-80.5" font-family="Helvetica,sans-Serif" font-size="10.00">examples with NO answers</text>
</g>
<!-- find groups\n(cluster similar things) -->
<g id="node4" class="node">
<title>find groups\n(cluster similar things)</title>
<path fill="#dde8f0" stroke="black" d="M291.75,-36C291.75,-36 203.75,-36 203.75,-36 197.75,-36 191.75,-30 191.75,-24 191.75,-24 191.75,-12 191.75,-12 191.75,-6 197.75,0 203.75,0 203.75,0 291.75,0 291.75,0 297.75,0 303.75,-6 303.75,-12 303.75,-12 303.75,-24 303.75,-24 303.75,-30 297.75,-36 291.75,-36"/>
<text xml:space="preserve" text-anchor="middle" x="247.75" y="-20.5" font-family="Helvetica,sans-Serif" font-size="10.00">find groups</text>
<text xml:space="preserve" text-anchor="middle" x="247.75" y="-8.5" font-family="Helvetica,sans-Serif" font-size="10.00">(cluster similar things)</text>
</g>
<!-- uns&#45;&gt;find groups\n(cluster similar things) -->
<g id="edge2" class="edge">
<title>uns&#45;&gt;find groups\n(cluster similar things)</title>
<path fill="none" stroke="black" d="M247.75,-71.7C247.75,-64.41 247.75,-55.73 247.75,-47.54"/>
<polygon fill="black" stroke="black" points="251.25,-47.62 247.75,-37.62 244.25,-47.62 251.25,-47.62"/>
</g>
</g>
</svg>
