<?xml version="1.0" encoding="UTF-8" standalone="no"?>
<!DOCTYPE svg PUBLIC "-//W3C//DTD SVG 1.1//EN"
 "http://www.w3.org/Graphics/SVG/1.1/DTD/svg11.dtd">
<!-- Generated by graphviz version 14.1.5 (20260411.2331)
 -->
<!-- Title: G Pages: 1 -->
<svg width="266pt" height="174pt"
 viewBox="0.00 0.00 266.00 174.00" xmlns="http://www.w3.org/2000/svg" xmlns:xlink="http://www.w3.org/1999/xlink">
<g id="graph0" class="graph" transform="scale(1 1) rotate(0) translate(4 170.1)">
<title>G</title>
<text xml:space="preserve" text-anchor="middle" x="129.12" y="-7.2" font-family="Times New Roman,serif" font-size="14.00">inputs &#160;&#160;&#160;&#160;&#160;&#160;&#160;→ &#160;&#160;&#160;&#160;hidden layer &#160;&#160;&#160;&#160;→ &#160;&#160;output</text>
<!-- i1 -->
<g id="node1" class="node">
<title>i1</title>
<ellipse fill="#dde8f0" stroke="black" cx="71.52" cy="-135.3" rx="10.8" ry="10.8"/>
</g>
<!-- h1 -->
<g id="node4" class="node">
<title>h1</title>
<ellipse fill="#f3e9d8" stroke="black" cx="129.12" cy="-75.3" rx="10.8" ry="10.8"/>
</g>
<!-- i1&#45;&gt;h1 -->
<g id="edge1" class="edge">
<title>i1&#45;&gt;h1</title>
<path fill="none" stroke="#b8c4d0" d="M79.34,-127.94C87.85,-118.77 102.61,-102.83 113.68,-90.89"/>
<polygon fill="#b8c4d0" stroke="#b8c4d0" points="115.99,-93.54 120.22,-83.83 110.86,-88.78 115.99,-93.54"/>
</g>
<!-- h2 -->
<g id="node5" class="node">
<title>h2</title>
<ellipse fill="#f3e9d8" stroke="black" cx="129.12" cy="-35.3" rx="10.8" ry="10.8"/>
</g>
<!-- i1&#45;&gt;h2 -->
<g id="edge2" class="edge">
<title>i1&#45;&gt;h2</title>
<path fill="none" stroke="#b8c4d0" d="M77.66,-126.07C86.68,-109.85 105.55,-75.91 117.48,-54.44"/>
<polygon fill="#b8c4d0" stroke="#b8c4d0" points="120.47,-56.27 122.27,-45.83 114.35,-52.87 120.47,-56.27"/>
</g>
<!-- h3 -->
<g id="node6" class="node">
<title>h3</title>
<ellipse fill="#f3e9d8" stroke="black" cx="129.12" cy="-155.3" rx="10.8" ry="10.8"/>
</g>
<!-- i1&#45;&gt;h3 -->
<g id="edge3" class="edge">
<title>i1&#45;&gt;h3</title>
<path fill="none" stroke="#b8c4d0" d="M82.21,-138.78C89.31,-141.34 99.19,-144.89 107.97,-148.05"/>
<polygon fill="#b8c4d0" stroke="#b8c4d0" points="106.53,-151.25 117.13,-151.34 108.9,-144.67 106.53,-151.25"/>
</g>
<!-- h4 -->
<g id="node7" class="node">
<title>h4</title>
<ellipse fill="#f3e9d8" stroke="black" cx="129.12" cy="-115.3" rx="10.8" ry="10.8"/>
</g>
<!-- i1&#45;&gt;h4 -->
<g id="edge4" class="edge">
<title>i1&#45;&gt;h4</title>
<path fill="none" stroke="#b8c4d0" d="M82.21,-131.82C89.31,-129.26 99.19,-125.71 107.97,-122.55"/>
<polygon fill="#b8c4d0" stroke="#b8c4d0" points="108.9,-125.93 117.13,-119.26 106.53,-119.35 108.9,-125.93"/>
</g>
<!-- i2 -->
<g id="node2" class="node">
<title>i2</title>
<ellipse fill="#dde8f0" stroke="black" cx="71.52" cy="-95.3" rx="10.8" ry="10.8"/>
</g>
<!-- i2&#45;&gt;h1 -->
<g id="edge5" class="edge">
<title>i2&#45;&gt;h1</title>
<path fill="none" stroke="#b8c4d0" d="M82.21,-91.82C89.31,-89.26 99.19,-85.71 107.97,-82.55"/>
<polygon fill="#b8c4d0" stroke="#b8c4d0" points="108.9,-85.93 117.13,-79.26 106.53,-79.35 108.9,-85.93"/>
</g>
<!-- i2&#45;&gt;h2 -->
<g id="edge6" class="edge">
<title>i2&#45;&gt;h2</title>
<path fill="none" stroke="#b8c4d0" d="M79.34,-87.94C87.85,-78.77 102.61,-62.83 113.68,-50.89"/>
<polygon fill="#b8c4d0" stroke="#b8c4d0" points="115.99,-53.54 120.22,-43.83 110.86,-48.78 115.99,-53.54"/>
</g>
<!-- i2&#45;&gt;h3 -->
<g id="edge7" class="edge">
<title>i2&#45;&gt;h3</title>
<path fill="none" stroke="#b8c4d0" d="M79.34,-102.66C87.85,-111.83 102.61,-127.77 113.68,-139.71"/>
<polygon fill="#b8c4d0" stroke="#b8c4d0" points="110.86,-141.82 120.22,-146.77 115.99,-137.06 110.86,-141.82"/>
</g>
<!-- i2&#45;&gt;h4 -->
<g id="edge8" class="edge">
<title>i2&#45;&gt;h4</title>
<path fill="none" stroke="#b8c4d0" d="M82.21,-98.78C89.31,-101.34 99.19,-104.89 107.97,-108.05"/>
<polygon fill="#b8c4d0" stroke="#b8c4d0" points="106.53,-111.25 117.13,-111.34 108.9,-104.67 106.53,-111.25"/>
</g>
<!-- i3 -->
<g id="node3" class="node">
<title>i3</title>
<ellipse fill="#dde8f0" stroke="black" cx="71.52" cy="-55.3" rx="10.8" ry="10.8"/>
</g>
<!-- i3&#45;&gt;h1 -->
<g id="edge9" class="edge">
<title>i3&#45;&gt;h1</title>
<path fill="none" stroke="#b8c4d0" d="M82.21,-58.78C89.31,-61.34 99.19,-64.89 107.97,-68.05"/>
<polygon fill="#b8c4d0" stroke="#b8c4d0" points="106.53,-71.25 117.13,-71.34 108.9,-64.67 106.53,-71.25"/>
</g>
<!-- i3&#45;&gt;h2 -->
<g id="edge10" class="edge">
<title>i3&#45;&gt;h2</title>
<path fill="none" stroke="#b8c4d0" d="M82.21,-51.82C89.31,-49.26 99.19,-45.71 107.97,-42.55"/>
<polygon fill="#b8c4d0" stroke="#b8c4d0" points="108.9,-45.93 117.13,-39.26 106.53,-39.35 108.9,-45.93"/>
</g>
<!-- i3&#45;&gt;h3 -->
<g id="edge11" class="edge">
<title>i3&#45;&gt;h3</title>
<path fill="none" stroke="#b8c4d0" d="M77.66,-64.53C86.68,-80.75 105.55,-114.69 117.48,-136.16"/>
<polygon fill="#b8c4d0" stroke="#b8c4d0" points="114.35,-137.73 122.27,-144.77 120.47,-134.33 114.35,-137.73"/>
</g>
<!-- i3&#45;&gt;h4 -->
<g id="edge12" class="edge">
<title>i3&#45;&gt;h4</title>
<path fill="none" stroke="#b8c4d0" d="M79.34,-62.66C87.85,-71.83 102.61,-87.77 113.68,-99.71"/>
<polygon fill="#b8c4d0" stroke="#b8c4d0" points="110.86,-101.82 120.22,-106.77 115.99,-97.06 110.86,-101.82"/>
</g>
<!-- o1 -->
<g id="node8" class="node">
<title>o1</title>
<ellipse fill="#e3efe1" stroke="black" cx="186.72" cy="-95.3" rx="10.8" ry="10.8"/>
</g>
<!-- h1&#45;&gt;o1 -->
<g id="edge13" class="edge">
<title>h1&#45;&gt;o1</title>
<path fill="none" stroke="#b8c4d0" d="M139.81,-78.78C146.91,-81.34 156.79,-84.89 165.57,-88.05"/>
<polygon fill="#b8c4d0" stroke="#b8c4d0" points="164.13,-91.25 174.73,-91.34 166.5,-84.67 164.13,-91.25"/>
</g>
<!-- h2&#45;&gt;o1 -->
<g id="edge14" class="edge">
<title>h2&#45;&gt;o1</title>
<path fill="none" stroke="#b8c4d0" d="M136.94,-42.66C145.45,-51.83 160.21,-67.77 171.28,-79.71"/>
<polygon fill="#b8c4d0" stroke="#b8c4d0" points="168.46,-81.82 177.82,-86.77 173.59,-77.06 168.46,-81.82"/>
</g>
<!-- h3&#45;&gt;o1 -->
<g id="edge15" class="edge">
<title>h3&#45;&gt;o1</title>
<path fill="none" stroke="#b8c4d0" d="M136.94,-147.94C145.45,-138.77 160.21,-122.83 171.28,-110.89"/>
<polygon fill="#b8c4d0" stroke="#b8c4d0" points="173.59,-113.54 177.82,-103.83 168.46,-108.78 173.59,-113.54"/>
</g>
<!-- h4&#45;&gt;o1 -->
<g id="edge16" class="edge">
<title>h4&#45;&gt;o1</title>
<path fill="none" stroke="#b8c4d0" d="M139.81,-111.82C146.91,-109.26 156.79,-105.71 165.57,-102.55"/>
<polygon fill="#b8c4d0" stroke="#b8c4d0" points="166.5,-105.93 174.73,-99.26 164.13,-99.35 166.5,-105.93"/>
</g>
</g>
</svg>
