<?xml version="1.0" encoding="UTF-8" standalone="no"?>
<!DOCTYPE svg PUBLIC "-//W3C//DTD SVG 1.1//EN"
 "http://www.w3.org/Graphics/SVG/1.1/DTD/svg11.dtd">
<!-- Generated by graphviz version 2.43.0 (0)
 -->
<!-- Title: %3 Pages: 1 -->
<svg width="239pt" height="285pt"
 viewBox="0.00 0.00 239.00 285.00" xmlns="http://www.w3.org/2000/svg" xmlns:xlink="http://www.w3.org/1999/xlink">
<g id="graph0" class="graph" transform="scale(1 1) rotate(0) translate(4 281)">
<title>%3</title>
<polygon fill="white" stroke="transparent" points="-4,4 -4,-281 235,-281 235,4 -4,4"/>
<!-- F -->
<g id="node1" class="node">
<title>F</title>
<path fill="lightgreen" stroke="black" d="M200.5,-277C200.5,-277 89.5,-277 89.5,-277 83.5,-277 77.5,-271 77.5,-265 77.5,-265 77.5,-251 77.5,-251 77.5,-245 83.5,-239 89.5,-239 89.5,-239 200.5,-239 200.5,-239 206.5,-239 212.5,-245 212.5,-251 212.5,-251 212.5,-265 212.5,-265 212.5,-271 206.5,-277 200.5,-277"/>
<text text-anchor="middle" x="145" y="-261.8" font-family="Times,serif" font-size="14.00">FETCH</text>
<text text-anchor="middle" x="145" y="-246.8" font-family="Times,serif" font-size="14.00">read instruction at PC</text>
</g>
<!-- D -->
<g id="node2" class="node">
<title>D</title>
<path fill="lightyellow" stroke="black" d="M155.5,-202C155.5,-202 24.5,-202 24.5,-202 18.5,-202 12.5,-196 12.5,-190 12.5,-190 12.5,-176 12.5,-176 12.5,-170 18.5,-164 24.5,-164 24.5,-164 155.5,-164 155.5,-164 161.5,-164 167.5,-170 167.5,-176 167.5,-176 167.5,-190 167.5,-190 167.5,-196 161.5,-202 155.5,-202"/>
<text text-anchor="middle" x="90" y="-186.8" font-family="Times,serif" font-size="14.00">DECODE</text>
<text text-anchor="middle" x="90" y="-171.8" font-family="Times,serif" font-size="14.00">Control Unit reads the IR</text>
</g>
<!-- F&#45;&gt;D -->
<g id="edge1" class="edge">
<title>F&#45;&gt;D</title>
<path fill="none" stroke="black" d="M131.4,-238.96C124.86,-230.27 116.89,-219.69 109.7,-210.14"/>
<polygon fill="black" stroke="black" points="112.44,-207.97 103.63,-202.09 106.85,-212.18 112.44,-207.97"/>
</g>
<!-- E -->
<g id="node3" class="node">
<title>E</title>
<path fill="lightyellow" stroke="black" d="M158,-113C158,-113 12,-113 12,-113 6,-113 0,-107 0,-101 0,-101 0,-87 0,-87 0,-81 6,-75 12,-75 12,-75 158,-75 158,-75 164,-75 170,-81 170,-87 170,-87 170,-101 170,-101 170,-107 164,-113 158,-113"/>
<text text-anchor="middle" x="85" y="-97.8" font-family="Times,serif" font-size="14.00">EXECUTE</text>
<text text-anchor="middle" x="85" y="-82.8" font-family="Times,serif" font-size="14.00">ALU / registers do the work</text>
</g>
<!-- D&#45;&gt;E -->
<g id="edge2" class="edge">
<title>D&#45;&gt;E</title>
<path fill="none" stroke="black" d="M88.96,-163.97C88.29,-152.19 87.39,-136.56 86.62,-123.16"/>
<polygon fill="black" stroke="black" points="90.1,-122.79 86.03,-113 83.11,-123.19 90.1,-122.79"/>
</g>
<!-- S -->
<g id="node4" class="node">
<title>S</title>
<path fill="lightcoral" stroke="black" d="M197,-38C197,-38 85,-38 85,-38 79,-38 73,-32 73,-26 73,-26 73,-12 73,-12 73,-6 79,0 85,0 85,0 197,0 197,0 203,0 209,-6 209,-12 209,-12 209,-26 209,-26 209,-32 203,-38 197,-38"/>
<text text-anchor="middle" x="141" y="-22.8" font-family="Times,serif" font-size="14.00">ADVANCE PC</text>
<text text-anchor="middle" x="141" y="-7.8" font-family="Times,serif" font-size="14.00">to the next instruction</text>
</g>
<!-- E&#45;&gt;S -->
<g id="edge3" class="edge">
<title>E&#45;&gt;S</title>
<path fill="none" stroke="black" d="M98.84,-74.96C105.51,-66.27 113.62,-55.69 120.95,-46.14"/>
<polygon fill="black" stroke="black" points="123.81,-48.16 127.12,-38.09 118.26,-43.89 123.81,-48.16"/>
</g>
<!-- S&#45;&gt;F -->
<g id="edge4" class="edge">
<title>S&#45;&gt;F</title>
<path fill="none" stroke="black" d="M157.87,-38.32C165.96,-48.36 174.78,-61.48 179,-75 195.81,-128.9 191.25,-147.64 176,-202 173.3,-211.61 168.6,-221.34 163.67,-229.89"/>
<polygon fill="black" stroke="black" points="160.54,-228.29 158.3,-238.65 166.51,-231.95 160.54,-228.29"/>
<text text-anchor="middle" x="210.5" y="-134.8" font-family="Times,serif" font-size="14.00"> repeat </text>
</g>
</g>
</svg>
