<?xml version="1.0" encoding="UTF-8" standalone="no"?>
<!DOCTYPE svg PUBLIC "-//W3C//DTD SVG 1.1//EN"
 "http://www.w3.org/Graphics/SVG/1.1/DTD/svg11.dtd">
<!-- Generated by graphviz version 2.43.0 (0)
 -->
<!-- Title: %3 Pages: 1 -->
<svg width="644pt" height="195pt"
 viewBox="0.00 0.00 644.00 195.00" xmlns="http://www.w3.org/2000/svg" xmlns:xlink="http://www.w3.org/1999/xlink">
<g id="graph0" class="graph" transform="scale(1 1) rotate(0) translate(4 191)">
<title>%3</title>
<polygon fill="white" stroke="transparent" points="-4,4 -4,-191 640,-191 640,4 -4,4"/>
<g id="clust1" class="cluster">
<title>cluster_cpu</title>
<polygon fill="oldlace" stroke="black" points="8,-84 8,-179 446,-179 446,-84 8,-84"/>
<text text-anchor="middle" x="227" y="-163.8" font-family="Times,serif" font-size="14.00">CPU</text>
</g>
<!-- CU -->
<g id="node1" class="node">
<title>CU</title>
<path fill="lightyellow" stroke="black" d="M90,-128C90,-128 28,-128 28,-128 22,-128 16,-122 16,-116 16,-116 16,-104 16,-104 16,-98 22,-92 28,-92 28,-92 90,-92 90,-92 96,-92 102,-98 102,-104 102,-104 102,-116 102,-116 102,-122 96,-128 90,-128"/>
<text text-anchor="middle" x="59" y="-106.3" font-family="Times,serif" font-size="14.00">Control Unit</text>
</g>
<!-- ALU -->
<g id="node2" class="node">
<title>ALU</title>
<path fill="lightyellow" stroke="black" d="M181,-128C181,-128 151,-128 151,-128 145,-128 139,-122 139,-116 139,-116 139,-104 139,-104 139,-98 145,-92 151,-92 151,-92 181,-92 181,-92 187,-92 193,-98 193,-104 193,-104 193,-116 193,-116 193,-122 187,-128 181,-128"/>
<text text-anchor="middle" x="166" y="-106.3" font-family="Times,serif" font-size="14.00">ALU</text>
</g>
<!-- CU&#45;&gt;ALU -->
<g id="edge1" class="edge">
<title>CU&#45;&gt;ALU</title>
<path fill="none" stroke="black" d="M102.1,-110C110.95,-110 120.2,-110 128.8,-110"/>
<polygon fill="black" stroke="black" points="128.9,-113.5 138.9,-110 128.9,-106.5 128.9,-113.5"/>
</g>
<!-- REG -->
<g id="node3" class="node">
<title>REG</title>
<path fill="lightyellow" stroke="black" d="M426,-130C426,-130 312,-130 312,-130 306,-130 300,-124 300,-118 300,-118 300,-104 300,-104 300,-98 306,-92 312,-92 312,-92 426,-92 426,-92 432,-92 438,-98 438,-104 438,-104 438,-118 438,-118 438,-124 432,-130 426,-130"/>
<text text-anchor="middle" x="369" y="-114.8" font-family="Times,serif" font-size="14.00">Registers</text>
<text text-anchor="middle" x="369" y="-99.8" font-family="Times,serif" font-size="14.00">(PC, IR, accumulator)</text>
</g>
<!-- CU&#45;&gt;REG -->
<g id="edge2" class="edge">
<title>CU&#45;&gt;REG</title>
<path fill="none" stroke="black" d="M102.39,-127.34C114.05,-131.33 126.85,-134.98 139,-137 189,-145.31 245.58,-139.03 290,-130.56"/>
<polygon fill="black" stroke="black" points="290.73,-133.99 299.86,-128.61 289.37,-127.12 290.73,-133.99"/>
</g>
<!-- MEM -->
<g id="node4" class="node">
<title>MEM</title>
<path fill="lightyellow" stroke="black" d="M624,-83C624,-83 539,-83 539,-83 533,-83 527,-77 527,-71 527,-71 527,-57 527,-57 527,-51 533,-45 539,-45 539,-45 624,-45 624,-45 630,-45 636,-51 636,-57 636,-57 636,-71 636,-71 636,-77 630,-83 624,-83"/>
<text text-anchor="middle" x="581.5" y="-67.8" font-family="Times,serif" font-size="14.00">Memory (RAM)</text>
<text text-anchor="middle" x="581.5" y="-52.8" font-family="Times,serif" font-size="14.00">program + data</text>
</g>
<!-- CU&#45;&gt;MEM -->
<g id="edge4" class="edge">
<title>CU&#45;&gt;MEM</title>
<path fill="none" stroke="black" d="M111.63,-90C120.64,-87.2 130,-84.69 139,-83 271.58,-58.03 430.34,-58.4 516.76,-61.08"/>
<polygon fill="black" stroke="black" points="110.45,-86.71 102.04,-93.15 112.63,-93.36 110.45,-86.71"/>
<polygon fill="black" stroke="black" points="516.82,-64.58 526.93,-61.41 517.05,-57.59 516.82,-64.58"/>
<text text-anchor="middle" x="246.5" y="-74.8" font-family="Times,serif" font-size="14.00"> address bus </text>
</g>
<!-- ALU&#45;&gt;REG -->
<g id="edge3" class="edge">
<title>ALU&#45;&gt;REG</title>
<path fill="none" stroke="black" d="M193.28,-110.13C217.78,-110.25 255.59,-110.44 289.77,-110.61"/>
<polygon fill="black" stroke="black" points="289.75,-114.11 299.77,-110.66 289.79,-107.11 289.75,-114.11"/>
</g>
<!-- REG&#45;&gt;MEM -->
<g id="edge5" class="edge">
<title>REG&#45;&gt;MEM</title>
<path fill="none" stroke="black" d="M447.96,-93.59C470.67,-88.52 495.2,-83.04 516.92,-78.2"/>
<polygon fill="black" stroke="black" points="447.05,-90.21 438.05,-95.81 448.58,-97.04 447.05,-90.21"/>
<polygon fill="black" stroke="black" points="517.68,-81.61 526.68,-76.02 516.16,-74.78 517.68,-81.61"/>
<text text-anchor="middle" x="482.5" y="-94.8" font-family="Times,serif" font-size="14.00"> data bus </text>
</g>
<!-- IO -->
<g id="node5" class="node">
<title>IO</title>
<path fill="lightgreen" stroke="black" d="M404,-36C404,-36 334,-36 334,-36 328,-36 322,-30 322,-24 322,-24 322,-12 322,-12 322,-6 328,0 334,0 334,0 404,0 404,0 410,0 416,-6 416,-12 416,-12 416,-24 416,-24 416,-30 410,-36 404,-36"/>
<text text-anchor="middle" x="369" y="-14.3" font-family="Times,serif" font-size="14.00">Input / Output</text>
</g>
<!-- IO&#45;&gt;MEM -->
<g id="edge6" class="edge">
<title>IO&#45;&gt;MEM</title>
<path fill="none" stroke="black" d="M426.07,-30.25C454.05,-36.37 488.02,-43.79 516.97,-50.12"/>
<polygon fill="black" stroke="black" points="426.71,-26.81 416.2,-28.09 425.22,-33.65 426.71,-26.81"/>
<polygon fill="black" stroke="black" points="516.46,-53.59 526.98,-52.3 517.96,-46.75 516.46,-53.59"/>
</g>
</g>
</svg>
