<?xml version="1.0" encoding="UTF-8" standalone="no"?>
<!DOCTYPE svg PUBLIC "-//W3C//DTD SVG 1.1//EN"
 "http://www.w3.org/Graphics/SVG/1.1/DTD/svg11.dtd">
<!-- Generated by graphviz version 2.43.0 (0)
 -->
<!-- Title: %3 Pages: 1 -->
<svg width="236pt" height="386pt"
 viewBox="0.00 0.00 236.29 386.29" xmlns="http://www.w3.org/2000/svg" xmlns:xlink="http://www.w3.org/1999/xlink">
<g id="graph0" class="graph" transform="scale(1 1) rotate(0) translate(4 382.29)">
<title>%3</title>
<polygon fill="white" stroke="transparent" points="-4,4 -4,-382.29 232.29,-382.29 232.29,4 -4,4"/>
<!-- AND_A -->
<g id="node1" class="node">
<title>AND_A</title>
<ellipse fill="lightgreen" stroke="black" cx="18" cy="-75.15" rx="18" ry="18"/>
<text text-anchor="middle" x="18" y="-71.45" font-family="Times,serif" font-size="14.00">A</text>
</g>
<!-- AND_G -->
<g id="node3" class="node">
<title>AND_G</title>
<path fill="lightyellow" stroke="black" d="M114,-52.15C114,-52.15 84,-52.15 84,-52.15 78,-52.15 72,-46.15 72,-40.15 72,-40.15 72,-26.15 72,-26.15 72,-20.15 78,-14.15 84,-14.15 84,-14.15 114,-14.15 114,-14.15 120,-14.15 126,-20.15 126,-26.15 126,-26.15 126,-40.15 126,-40.15 126,-46.15 120,-52.15 114,-52.15"/>
<text text-anchor="middle" x="99" y="-36.95" font-family="Times,serif" font-size="14.00">AND</text>
<text text-anchor="middle" x="99" y="-21.95" font-family="Times,serif" font-size="14.00">gate</text>
</g>
<!-- AND_A&#45;&gt;AND_G -->
<g id="edge1" class="edge">
<title>AND_A&#45;&gt;AND_G</title>
<path fill="none" stroke="black" d="M34.23,-67.05C42.4,-62.71 52.83,-57.16 62.88,-51.82"/>
<polygon fill="black" stroke="black" points="64.74,-54.79 71.93,-47.01 61.45,-48.61 64.74,-54.79"/>
</g>
<!-- AND_B -->
<g id="node2" class="node">
<title>AND_B</title>
<ellipse fill="lightgreen" stroke="black" cx="18" cy="-21.15" rx="18" ry="18"/>
<text text-anchor="middle" x="18" y="-17.45" font-family="Times,serif" font-size="14.00">B</text>
</g>
<!-- AND_B&#45;&gt;AND_G -->
<g id="edge2" class="edge">
<title>AND_B&#45;&gt;AND_G</title>
<path fill="none" stroke="black" d="M36.14,-23.75C43.73,-24.9 52.95,-26.3 61.93,-27.67"/>
<polygon fill="black" stroke="black" points="61.46,-31.14 71.87,-29.18 62.51,-24.22 61.46,-31.14"/>
</g>
<!-- AND_Y -->
<g id="node4" class="node">
<title>AND_Y</title>
<ellipse fill="lightcoral" stroke="black" cx="195.15" cy="-33.15" rx="33.29" ry="33.29"/>
<text text-anchor="middle" x="195.15" y="-29.45" font-family="Times,serif" font-size="14.00">output</text>
</g>
<!-- AND_G&#45;&gt;AND_Y -->
<g id="edge3" class="edge">
<title>AND_G&#45;&gt;AND_Y</title>
<path fill="none" stroke="black" d="M126.23,-33.15C134.12,-33.15 143.01,-33.15 151.68,-33.15"/>
<polygon fill="black" stroke="black" points="151.69,-36.65 161.69,-33.15 151.69,-29.65 151.69,-36.65"/>
</g>
<!-- OR_A -->
<g id="node5" class="node">
<title>OR_A</title>
<ellipse fill="lightgreen" stroke="black" cx="18" cy="-183.15" rx="18" ry="18"/>
<text text-anchor="middle" x="18" y="-179.45" font-family="Times,serif" font-size="14.00">A</text>
</g>
<!-- OR_G -->
<g id="node7" class="node">
<title>OR_G</title>
<path fill="lightyellow" stroke="black" d="M114,-160.15C114,-160.15 84,-160.15 84,-160.15 78,-160.15 72,-154.15 72,-148.15 72,-148.15 72,-134.15 72,-134.15 72,-128.15 78,-122.15 84,-122.15 84,-122.15 114,-122.15 114,-122.15 120,-122.15 126,-128.15 126,-134.15 126,-134.15 126,-148.15 126,-148.15 126,-154.15 120,-160.15 114,-160.15"/>
<text text-anchor="middle" x="99" y="-144.95" font-family="Times,serif" font-size="14.00">OR</text>
<text text-anchor="middle" x="99" y="-129.95" font-family="Times,serif" font-size="14.00">gate</text>
</g>
<!-- OR_A&#45;&gt;OR_G -->
<g id="edge4" class="edge">
<title>OR_A&#45;&gt;OR_G</title>
<path fill="none" stroke="black" d="M34.23,-175.05C42.4,-170.71 52.83,-165.16 62.88,-159.82"/>
<polygon fill="black" stroke="black" points="64.74,-162.79 71.93,-155.01 61.45,-156.61 64.74,-162.79"/>
</g>
<!-- OR_B -->
<g id="node6" class="node">
<title>OR_B</title>
<ellipse fill="lightgreen" stroke="black" cx="18" cy="-129.15" rx="18" ry="18"/>
<text text-anchor="middle" x="18" y="-125.45" font-family="Times,serif" font-size="14.00">B</text>
</g>
<!-- OR_B&#45;&gt;OR_G -->
<g id="edge5" class="edge">
<title>OR_B&#45;&gt;OR_G</title>
<path fill="none" stroke="black" d="M36.14,-131.75C43.73,-132.9 52.95,-134.3 61.93,-135.67"/>
<polygon fill="black" stroke="black" points="61.46,-139.14 71.87,-137.18 62.51,-132.22 61.46,-139.14"/>
</g>
<!-- OR_Y -->
<g id="node8" class="node">
<title>OR_Y</title>
<ellipse fill="lightcoral" stroke="black" cx="195.15" cy="-141.15" rx="33.29" ry="33.29"/>
<text text-anchor="middle" x="195.15" y="-137.45" font-family="Times,serif" font-size="14.00">output</text>
</g>
<!-- OR_G&#45;&gt;OR_Y -->
<g id="edge6" class="edge">
<title>OR_G&#45;&gt;OR_Y</title>
<path fill="none" stroke="black" d="M126.23,-141.15C134.12,-141.15 143.01,-141.15 151.68,-141.15"/>
<polygon fill="black" stroke="black" points="151.69,-144.65 161.69,-141.15 151.69,-137.65 151.69,-144.65"/>
</g>
<!-- XOR_A -->
<g id="node9" class="node">
<title>XOR_A</title>
<ellipse fill="lightgreen" stroke="black" cx="18" cy="-291.15" rx="18" ry="18"/>
<text text-anchor="middle" x="18" y="-287.45" font-family="Times,serif" font-size="14.00">A</text>
</g>
<!-- XOR_G -->
<g id="node11" class="node">
<title>XOR_G</title>
<path fill="lightyellow" stroke="black" d="M114,-268.15C114,-268.15 84,-268.15 84,-268.15 78,-268.15 72,-262.15 72,-256.15 72,-256.15 72,-242.15 72,-242.15 72,-236.15 78,-230.15 84,-230.15 84,-230.15 114,-230.15 114,-230.15 120,-230.15 126,-236.15 126,-242.15 126,-242.15 126,-256.15 126,-256.15 126,-262.15 120,-268.15 114,-268.15"/>
<text text-anchor="middle" x="99" y="-252.95" font-family="Times,serif" font-size="14.00">XOR</text>
<text text-anchor="middle" x="99" y="-237.95" font-family="Times,serif" font-size="14.00">gate</text>
</g>
<!-- XOR_A&#45;&gt;XOR_G -->
<g id="edge7" class="edge">
<title>XOR_A&#45;&gt;XOR_G</title>
<path fill="none" stroke="black" d="M34.23,-283.05C42.4,-278.71 52.83,-273.16 62.88,-267.82"/>
<polygon fill="black" stroke="black" points="64.74,-270.79 71.93,-263.01 61.45,-264.61 64.74,-270.79"/>
</g>
<!-- XOR_B -->
<g id="node10" class="node">
<title>XOR_B</title>
<ellipse fill="lightgreen" stroke="black" cx="18" cy="-237.15" rx="18" ry="18"/>
<text text-anchor="middle" x="18" y="-233.45" font-family="Times,serif" font-size="14.00">B</text>
</g>
<!-- XOR_B&#45;&gt;XOR_G -->
<g id="edge8" class="edge">
<title>XOR_B&#45;&gt;XOR_G</title>
<path fill="none" stroke="black" d="M36.14,-239.75C43.73,-240.9 52.95,-242.3 61.93,-243.67"/>
<polygon fill="black" stroke="black" points="61.46,-247.14 71.87,-245.18 62.51,-240.22 61.46,-247.14"/>
</g>
<!-- XOR_Y -->
<g id="node12" class="node">
<title>XOR_Y</title>
<ellipse fill="lightcoral" stroke="black" cx="195.15" cy="-249.15" rx="33.29" ry="33.29"/>
<text text-anchor="middle" x="195.15" y="-245.45" font-family="Times,serif" font-size="14.00">output</text>
</g>
<!-- XOR_G&#45;&gt;XOR_Y -->
<g id="edge9" class="edge">
<title>XOR_G&#45;&gt;XOR_Y</title>
<path fill="none" stroke="black" d="M126.23,-249.15C134.12,-249.15 143.01,-249.15 151.68,-249.15"/>
<polygon fill="black" stroke="black" points="151.69,-252.65 161.69,-249.15 151.69,-245.65 151.69,-252.65"/>
</g>
<!-- NOT_A -->
<g id="node13" class="node">
<title>NOT_A</title>
<ellipse fill="lightgreen" stroke="black" cx="18" cy="-345.15" rx="18" ry="18"/>
<text text-anchor="middle" x="18" y="-341.45" font-family="Times,serif" font-size="14.00">A</text>
</g>
<!-- NOT_G -->
<g id="node14" class="node">
<title>NOT_G</title>
<path fill="lightyellow" stroke="black" d="M114,-364.15C114,-364.15 84,-364.15 84,-364.15 78,-364.15 72,-358.15 72,-352.15 72,-352.15 72,-338.15 72,-338.15 72,-332.15 78,-326.15 84,-326.15 84,-326.15 114,-326.15 114,-326.15 120,-326.15 126,-332.15 126,-338.15 126,-338.15 126,-352.15 126,-352.15 126,-358.15 120,-364.15 114,-364.15"/>
<text text-anchor="middle" x="99" y="-348.95" font-family="Times,serif" font-size="14.00">NOT</text>
<text text-anchor="middle" x="99" y="-333.95" font-family="Times,serif" font-size="14.00">gate</text>
</g>
<!-- NOT_A&#45;&gt;NOT_G -->
<g id="edge10" class="edge">
<title>NOT_A&#45;&gt;NOT_G</title>
<path fill="none" stroke="black" d="M36.14,-345.15C43.64,-345.15 52.75,-345.15 61.64,-345.15"/>
<polygon fill="black" stroke="black" points="61.87,-348.65 71.87,-345.15 61.87,-341.65 61.87,-348.65"/>
</g>
<!-- NOT_Y -->
<g id="node15" class="node">
<title>NOT_Y</title>
<ellipse fill="lightcoral" stroke="black" cx="195.15" cy="-345.15" rx="33.29" ry="33.29"/>
<text text-anchor="middle" x="195.15" y="-341.45" font-family="Times,serif" font-size="14.00">output</text>
</g>
<!-- NOT_G&#45;&gt;NOT_Y -->
<g id="edge11" class="edge">
<title>NOT_G&#45;&gt;NOT_Y</title>
<path fill="none" stroke="black" d="M126.23,-345.15C134.12,-345.15 143.01,-345.15 151.68,-345.15"/>
<polygon fill="black" stroke="black" points="151.69,-348.65 161.69,-345.15 151.69,-341.65 151.69,-348.65"/>
</g>
</g>
</svg>
