<?xml version="1.0" encoding="UTF-8" standalone="no"?>
<!DOCTYPE svg PUBLIC "-//W3C//DTD SVG 1.1//EN"
 "http://www.w3.org/Graphics/SVG/1.1/DTD/svg11.dtd">
<!-- Generated by graphviz version 14.1.5 (20260411.2331)
 -->
<!-- Pages: 1 -->
<svg width="239pt" height="299pt"
 viewBox="0.00 0.00 239.00 299.00" xmlns="http://www.w3.org/2000/svg" xmlns:xlink="http://www.w3.org/1999/xlink">
<g id="graph0" class="graph" transform="scale(1 1) rotate(0) translate(4 294.5)">
<polygon fill="white" stroke="none" points="-4,4 -4,-294.5 234.95,-294.5 234.95,4 -4,4"/>
<!-- F -->
<g id="node1" class="node">
<title>F</title>
<path fill="lightgreen" stroke="black" d="M200.12,-290.5C200.12,-290.5 89.62,-290.5 89.62,-290.5 83.62,-290.5 77.62,-284.5 77.62,-278.5 77.62,-278.5 77.62,-261.5 77.62,-261.5 77.62,-255.5 83.62,-249.5 89.62,-249.5 89.62,-249.5 200.12,-249.5 200.12,-249.5 206.12,-249.5 212.12,-255.5 212.12,-261.5 212.12,-261.5 212.12,-278.5 212.12,-278.5 212.12,-284.5 206.12,-290.5 200.12,-290.5"/>
<text xml:space="preserve" text-anchor="middle" x="144.88" y="-273.2" font-family="Times New Roman,serif" font-size="14.00">FETCH</text>
<text xml:space="preserve" text-anchor="middle" x="144.88" y="-256.7" font-family="Times New Roman,serif" font-size="14.00">read instruction at PC</text>
</g>
<!-- D -->
<g id="node2" class="node">
<title>D</title>
<path fill="lightyellow" stroke="black" d="M156.25,-212.5C156.25,-212.5 25.5,-212.5 25.5,-212.5 19.5,-212.5 13.5,-206.5 13.5,-200.5 13.5,-200.5 13.5,-183.5 13.5,-183.5 13.5,-177.5 19.5,-171.5 25.5,-171.5 25.5,-171.5 156.25,-171.5 156.25,-171.5 162.25,-171.5 168.25,-177.5 168.25,-183.5 168.25,-183.5 168.25,-200.5 168.25,-200.5 168.25,-206.5 162.25,-212.5 156.25,-212.5"/>
<text xml:space="preserve" text-anchor="middle" x="90.88" y="-195.2" font-family="Times New Roman,serif" font-size="14.00">DECODE</text>
<text xml:space="preserve" text-anchor="middle" x="90.88" y="-178.7" font-family="Times New Roman,serif" font-size="14.00">Control Unit reads the IR</text>
</g>
<!-- F&#45;&gt;D -->
<g id="edge1" class="edge">
<title>F&#45;&gt;D</title>
<path fill="none" stroke="black" d="M130.69,-249.03C124.86,-240.83 117.99,-231.17 111.62,-222.19"/>
<polygon fill="black" stroke="black" points="114.49,-220.19 105.84,-214.07 108.78,-224.25 114.49,-220.19"/>
</g>
<!-- E -->
<g id="node3" class="node">
<title>E</title>
<path fill="lightyellow" stroke="black" d="M157.75,-119C157.75,-119 12,-119 12,-119 6,-119 0,-113 0,-107 0,-107 0,-90 0,-90 0,-84 6,-78 12,-78 12,-78 157.75,-78 157.75,-78 163.75,-78 169.75,-84 169.75,-90 169.75,-90 169.75,-107 169.75,-107 169.75,-113 163.75,-119 157.75,-119"/>
<text xml:space="preserve" text-anchor="middle" x="84.88" y="-101.7" font-family="Times New Roman,serif" font-size="14.00">EXECUTE</text>
<text xml:space="preserve" text-anchor="middle" x="84.88" y="-85.2" font-family="Times New Roman,serif" font-size="14.00">ALU / registers do the work</text>
</g>
<!-- D&#45;&gt;E -->
<g id="edge2" class="edge">
<title>D&#45;&gt;E</title>
<path fill="none" stroke="black" d="M89.57,-171.15C88.79,-159.28 87.79,-143.94 86.91,-130.5"/>
<polygon fill="black" stroke="black" points="90.42,-130.58 86.27,-120.83 83.44,-131.03 90.42,-130.58"/>
</g>
<!-- S -->
<g id="node4" class="node">
<title>S</title>
<path fill="lightcoral" stroke="black" d="M196.5,-41C196.5,-41 85.25,-41 85.25,-41 79.25,-41 73.25,-35 73.25,-29 73.25,-29 73.25,-12 73.25,-12 73.25,-6 79.25,0 85.25,0 85.25,0 196.5,0 196.5,0 202.5,0 208.5,-6 208.5,-12 208.5,-12 208.5,-29 208.5,-29 208.5,-35 202.5,-41 196.5,-41"/>
<text xml:space="preserve" text-anchor="middle" x="140.88" y="-23.7" font-family="Times New Roman,serif" font-size="14.00">ADVANCE PC</text>
<text xml:space="preserve" text-anchor="middle" x="140.88" y="-7.2" font-family="Times New Roman,serif" font-size="14.00">to the next instruction</text>
</g>
<!-- E&#45;&gt;S -->
<g id="edge3" class="edge">
<title>E&#45;&gt;S</title>
<path fill="none" stroke="black" d="M99.59,-77.53C105.7,-69.24 112.9,-59.46 119.57,-50.41"/>
<polygon fill="black" stroke="black" points="122.25,-52.68 125.36,-42.55 116.61,-48.53 122.25,-52.68"/>
</g>
<!-- S&#45;&gt;F -->
<g id="edge4" class="edge">
<title>S&#45;&gt;F</title>
<path fill="none" stroke="black" d="M158.55,-41.42C166.41,-51.61 174.81,-64.66 178.88,-78 196.32,-135.18 192.73,-154.86 176.88,-212.5 174.33,-221.77 169.92,-231.14 165.18,-239.51"/>
<polygon fill="black" stroke="black" points="162.31,-237.49 160.12,-247.85 168.3,-241.12 162.31,-237.49"/>
<text xml:space="preserve" text-anchor="middle" x="210.7" y="-140.2" font-family="Times New Roman,serif" font-size="14.00"> repeat </text>
</g>
</g>
</svg>
