<?xml version="1.0" encoding="UTF-8" standalone="no"?>
<!DOCTYPE svg PUBLIC "-//W3C//DTD SVG 1.1//EN"
 "http://www.w3.org/Graphics/SVG/1.1/DTD/svg11.dtd">
<!-- Generated by graphviz version 2.43.0 (0)
 -->
<!-- Title: %3 Pages: 1 -->
<svg width="309pt" height="242pt"
 viewBox="0.00 0.00 309.48 241.89" xmlns="http://www.w3.org/2000/svg" xmlns:xlink="http://www.w3.org/1999/xlink">
<g id="graph0" class="graph" transform="scale(1 1) rotate(0) translate(4 237.89)">
<title>%3</title>
<polygon fill="white" stroke="transparent" points="-4,4 -4,-237.89 305.48,-237.89 305.48,4 -4,4"/>
<!-- A -->
<g id="node1" class="node">
<title>A</title>
<ellipse fill="lightgreen" stroke="black" cx="28.6" cy="-159.14" rx="28.7" ry="28.7"/>
<text text-anchor="middle" x="28.6" y="-155.44" font-family="Times,serif" font-size="14.00">bit A</text>
</g>
<!-- X -->
<g id="node3" class="node">
<title>X</title>
<path fill="lightyellow" stroke="black" d="M135.19,-177.14C135.19,-177.14 105.19,-177.14 105.19,-177.14 99.19,-177.14 93.19,-171.14 93.19,-165.14 93.19,-165.14 93.19,-153.14 93.19,-153.14 93.19,-147.14 99.19,-141.14 105.19,-141.14 105.19,-141.14 135.19,-141.14 135.19,-141.14 141.19,-141.14 147.19,-147.14 147.19,-153.14 147.19,-153.14 147.19,-165.14 147.19,-165.14 147.19,-171.14 141.19,-177.14 135.19,-177.14"/>
<text text-anchor="middle" x="120.19" y="-155.44" font-family="Times,serif" font-size="14.00">XOR</text>
</g>
<!-- A&#45;&gt;X -->
<g id="edge1" class="edge">
<title>A&#45;&gt;X</title>
<path fill="none" stroke="black" d="M57.46,-159.14C65.56,-159.14 74.54,-159.14 83.08,-159.14"/>
<polygon fill="black" stroke="black" points="83.19,-162.64 93.19,-159.14 83.19,-155.64 83.19,-162.64"/>
</g>
<!-- N -->
<g id="node4" class="node">
<title>N</title>
<path fill="lightyellow" stroke="black" d="M135.19,-102.14C135.19,-102.14 105.19,-102.14 105.19,-102.14 99.19,-102.14 93.19,-96.14 93.19,-90.14 93.19,-90.14 93.19,-78.14 93.19,-78.14 93.19,-72.14 99.19,-66.14 105.19,-66.14 105.19,-66.14 135.19,-66.14 135.19,-66.14 141.19,-66.14 147.19,-72.14 147.19,-78.14 147.19,-78.14 147.19,-90.14 147.19,-90.14 147.19,-96.14 141.19,-102.14 135.19,-102.14"/>
<text text-anchor="middle" x="120.19" y="-80.44" font-family="Times,serif" font-size="14.00">AND</text>
</g>
<!-- A&#45;&gt;N -->
<g id="edge4" class="edge">
<title>A&#45;&gt;N</title>
<path fill="none" stroke="black" d="M51.29,-140.99C62.76,-131.39 77.01,-119.46 89.49,-109.01"/>
<polygon fill="black" stroke="black" points="91.97,-111.5 97.4,-102.39 87.48,-106.13 91.97,-111.5"/>
</g>
<!-- B -->
<g id="node2" class="node">
<title>B</title>
<ellipse fill="lightgreen" stroke="black" cx="28.6" cy="-84.14" rx="28.7" ry="28.7"/>
<text text-anchor="middle" x="28.6" y="-80.44" font-family="Times,serif" font-size="14.00">bit B</text>
</g>
<!-- B&#45;&gt;X -->
<g id="edge2" class="edge">
<title>B&#45;&gt;X</title>
<path fill="none" stroke="black" d="M51.29,-102.3C62.76,-111.9 77.01,-123.83 89.49,-134.28"/>
<polygon fill="black" stroke="black" points="87.48,-137.16 97.4,-140.9 91.97,-131.79 87.48,-137.16"/>
</g>
<!-- B&#45;&gt;N -->
<g id="edge5" class="edge">
<title>B&#45;&gt;N</title>
<path fill="none" stroke="black" d="M57.46,-84.14C65.56,-84.14 74.54,-84.14 83.08,-84.14"/>
<polygon fill="black" stroke="black" points="83.19,-87.64 93.19,-84.14 83.19,-80.64 83.19,-87.64"/>
</g>
<!-- S -->
<g id="node5" class="node">
<title>S</title>
<ellipse fill="lightcoral" stroke="black" cx="242.34" cy="-185.14" rx="48.99" ry="48.99"/>
<text text-anchor="middle" x="242.34" y="-181.44" font-family="Times,serif" font-size="14.00">SUM digit</text>
</g>
<!-- X&#45;&gt;S -->
<g id="edge3" class="edge">
<title>X&#45;&gt;S</title>
<path fill="none" stroke="black" d="M147.26,-164.79C158.26,-167.17 171.53,-170.04 184.59,-172.86"/>
<polygon fill="black" stroke="black" points="183.98,-176.31 194.49,-175.01 185.46,-169.47 183.98,-176.31"/>
</g>
<!-- C -->
<g id="node6" class="node">
<title>C</title>
<ellipse fill="lightcoral" stroke="black" cx="242.34" cy="-59.14" rx="59.29" ry="59.29"/>
<text text-anchor="middle" x="242.34" y="-55.44" font-family="Times,serif" font-size="14.00">CARRY digit</text>
</g>
<!-- N&#45;&gt;C -->
<g id="edge6" class="edge">
<title>N&#45;&gt;C</title>
<path fill="none" stroke="black" d="M147.26,-78.72C155.36,-77.04 164.68,-75.1 174.24,-73.11"/>
<polygon fill="black" stroke="black" points="175.17,-76.49 184.25,-71.02 173.75,-69.63 175.17,-76.49"/>
</g>
</g>
</svg>
