<?xml version="1.0" encoding="UTF-8" standalone="no"?>
<!DOCTYPE svg PUBLIC "-//W3C//DTD SVG 1.1//EN"
 "http://www.w3.org/Graphics/SVG/1.1/DTD/svg11.dtd">
<!-- Generated by graphviz version 14.1.5 (20260411.2331)
 -->
<!-- Pages: 1 -->
<svg width="316pt" height="250pt"
 viewBox="0.00 0.00 316.00 250.00" xmlns="http://www.w3.org/2000/svg" xmlns:xlink="http://www.w3.org/1999/xlink">
<g id="graph0" class="graph" transform="scale(1 1) rotate(0) translate(4 246.43)">
<polygon fill="white" stroke="none" points="-4,4 -4,-246.43 311.86,-246.43 311.86,4 -4,4"/>
<!-- A -->
<g id="node1" class="node">
<title>A</title>
<ellipse fill="lightgreen" stroke="black" cx="29.34" cy="-164.59" rx="29.34" ry="29.34"/>
<text xml:space="preserve" text-anchor="middle" x="29.34" y="-159.54" font-family="Times New Roman,serif" font-size="14.00">bit A</text>
</g>
<!-- X -->
<g id="node3" class="node">
<title>X</title>
<path fill="lightyellow" stroke="black" d="M136.69,-182.59C136.69,-182.59 106.69,-182.59 106.69,-182.59 100.69,-182.59 94.69,-176.59 94.69,-170.59 94.69,-170.59 94.69,-158.59 94.69,-158.59 94.69,-152.59 100.69,-146.59 106.69,-146.59 106.69,-146.59 136.69,-146.59 136.69,-146.59 142.69,-146.59 148.69,-152.59 148.69,-158.59 148.69,-158.59 148.69,-170.59 148.69,-170.59 148.69,-176.59 142.69,-182.59 136.69,-182.59"/>
<text xml:space="preserve" text-anchor="middle" x="121.69" y="-159.54" font-family="Times New Roman,serif" font-size="14.00">XOR</text>
</g>
<!-- A&#45;&gt;X -->
<g id="edge1" class="edge">
<title>A&#45;&gt;X</title>
<path fill="none" stroke="black" d="M58.93,-164.59C66.57,-164.59 74.95,-164.59 83,-164.59"/>
<polygon fill="black" stroke="black" points="82.92,-168.09 92.92,-164.59 82.92,-161.09 82.92,-168.09"/>
</g>
<!-- N -->
<g id="node4" class="node">
<title>N</title>
<path fill="lightyellow" stroke="black" d="M136.69,-105.59C136.69,-105.59 106.69,-105.59 106.69,-105.59 100.69,-105.59 94.69,-99.59 94.69,-93.59 94.69,-93.59 94.69,-81.59 94.69,-81.59 94.69,-75.59 100.69,-69.59 106.69,-69.59 106.69,-69.59 136.69,-69.59 136.69,-69.59 142.69,-69.59 148.69,-75.59 148.69,-81.59 148.69,-81.59 148.69,-93.59 148.69,-93.59 148.69,-99.59 142.69,-105.59 136.69,-105.59"/>
<text xml:space="preserve" text-anchor="middle" x="121.69" y="-82.54" font-family="Times New Roman,serif" font-size="14.00">AND</text>
</g>
<!-- A&#45;&gt;N -->
<g id="edge4" class="edge">
<title>A&#45;&gt;N</title>
<path fill="none" stroke="black" d="M52.21,-145.95C63.64,-136.21 77.81,-124.13 90.29,-113.49"/>
<polygon fill="black" stroke="black" points="92.53,-116.19 97.87,-107.04 87.99,-110.86 92.53,-116.19"/>
</g>
<!-- B -->
<g id="node2" class="node">
<title>B</title>
<ellipse fill="lightgreen" stroke="black" cx="29.34" cy="-87.59" rx="29.34" ry="29.34"/>
<text xml:space="preserve" text-anchor="middle" x="29.34" y="-82.54" font-family="Times New Roman,serif" font-size="14.00">bit B</text>
</g>
<!-- B&#45;&gt;X -->
<g id="edge2" class="edge">
<title>B&#45;&gt;X</title>
<path fill="none" stroke="black" d="M52.21,-106.23C63.64,-115.97 77.81,-128.05 90.29,-138.68"/>
<polygon fill="black" stroke="black" points="87.99,-141.31 97.87,-145.14 92.53,-135.99 87.99,-141.31"/>
</g>
<!-- B&#45;&gt;N -->
<g id="edge5" class="edge">
<title>B&#45;&gt;N</title>
<path fill="none" stroke="black" d="M58.93,-87.59C66.57,-87.59 74.95,-87.59 83,-87.59"/>
<polygon fill="black" stroke="black" points="82.92,-91.09 92.92,-87.59 82.92,-84.09 82.92,-91.09"/>
</g>
<!-- S -->
<g id="node5" class="node">
<title>S</title>
<ellipse fill="lightcoral" stroke="black" cx="246.27" cy="-191.59" rx="50.84" ry="50.84"/>
<text xml:space="preserve" text-anchor="middle" x="246.27" y="-186.54" font-family="Times New Roman,serif" font-size="14.00">SUM digit</text>
</g>
<!-- X&#45;&gt;S -->
<g id="edge3" class="edge">
<title>X&#45;&gt;S</title>
<path fill="none" stroke="black" d="M148.99,-170.38C159.65,-172.73 172.44,-175.55 185.16,-178.35"/>
<polygon fill="black" stroke="black" points="184.27,-181.74 194.79,-180.47 185.78,-174.9 184.27,-181.74"/>
</g>
<!-- C -->
<g id="node6" class="node">
<title>C</title>
<ellipse fill="lightcoral" stroke="black" cx="246.27" cy="-61.59" rx="61.59" ry="61.59"/>
<text xml:space="preserve" text-anchor="middle" x="246.27" y="-56.54" font-family="Times New Roman,serif" font-size="14.00">CARRY digit</text>
</g>
<!-- N&#45;&gt;C -->
<g id="edge6" class="edge">
<title>N&#45;&gt;C</title>
<path fill="none" stroke="black" d="M148.99,-82.01C156.64,-80.39 165.38,-78.53 174.42,-76.62"/>
<polygon fill="black" stroke="black" points="174.98,-80.07 184.04,-74.58 173.53,-73.23 174.98,-80.07"/>
</g>
</g>
</svg>
