<?xml version="1.0" encoding="UTF-8" standalone="no"?>
<!DOCTYPE svg PUBLIC "-//W3C//DTD SVG 1.1//EN"
 "http://www.w3.org/Graphics/SVG/1.1/DTD/svg11.dtd">
<!-- Generated by graphviz version 14.1.5 (20260411.2331)
 -->
<!-- Pages: 1 -->
<svg width="835pt" height="148pt"
 viewBox="0.00 0.00 835.00 148.00" xmlns="http://www.w3.org/2000/svg" xmlns:xlink="http://www.w3.org/1999/xlink">
<g id="graph0" class="graph" transform="scale(1 1) rotate(0) translate(4 143.55)">
<!-- browser -->
<g id="node1" class="node">
<title>browser</title>
<path fill="#dde8f0" stroke="black" d="M103,-78.93C103,-78.93 12,-78.93 12,-78.93 6,-78.93 0,-72.93 0,-66.93 0,-66.93 0,-51.43 0,-51.43 0,-45.43 6,-39.43 12,-39.43 12,-39.43 103,-39.43 103,-39.43 109,-39.43 115,-45.43 115,-51.43 115,-51.43 115,-66.93 115,-66.93 115,-72.93 109,-78.93 103,-78.93"/>
<text xml:space="preserve" text-anchor="middle" x="57.5" y="-61.63" font-family="Helvetica,sans-Serif" font-size="14.00">Your device</text>
<text xml:space="preserve" text-anchor="middle" x="57.5" y="-45.88" font-family="Helvetica,sans-Serif" font-size="14.00">(browser or app)</text>
</g>
<!-- dns -->
<g id="node2" class="node">
<title>dns</title>
<path fill="#f3e9d8" stroke="black" d="M413,-112.93C413,-112.93 301.75,-112.93 301.75,-112.93 295.75,-112.93 289.75,-106.93 289.75,-100.93 289.75,-100.93 289.75,-85.43 289.75,-85.43 289.75,-79.43 295.75,-73.43 301.75,-73.43 301.75,-73.43 413,-73.43 413,-73.43 419,-73.43 425,-79.43 425,-85.43 425,-85.43 425,-100.93 425,-100.93 425,-106.93 419,-112.93 413,-112.93"/>
<text xml:space="preserve" text-anchor="middle" x="357.38" y="-95.63" font-family="Helvetica,sans-Serif" font-size="14.00">DNS</text>
<text xml:space="preserve" text-anchor="middle" x="357.38" y="-79.88" font-family="Helvetica,sans-Serif" font-size="14.00">name &#45;&gt; IP address</text>
</g>
<!-- browser&#45;&gt;dns -->
<g id="edge1" class="edge">
<title>browser&#45;&gt;dns</title>
<path fill="none" stroke="black" d="M89.85,-79.33C102.69,-86.45 118.04,-93.59 133,-97.18 180.26,-108.54 234.77,-107.82 278.11,-104.13"/>
<polygon fill="black" stroke="black" points="278.31,-107.62 287.94,-103.21 277.66,-100.65 278.31,-107.62"/>
<text xml:space="preserve" text-anchor="middle" x="190.75" y="-126.25" font-family="Times New Roman,serif" font-size="14.00">1. where is</text>
<text xml:space="preserve" text-anchor="middle" x="190.75" y="-109.75" font-family="Times New Roman,serif" font-size="14.00">adlerstreaming.com?</text>
</g>
<!-- net -->
<g id="node3" class="node">
<title>net</title>
<path fill="#dde8f0" stroke="black" d="M436.25,-43.93C436.25,-43.93 278.5,-43.93 278.5,-43.93 272.5,-43.93 266.5,-37.93 266.5,-31.93 266.5,-31.93 266.5,-16.43 266.5,-16.43 266.5,-10.43 272.5,-4.43 278.5,-4.43 278.5,-4.43 436.25,-4.43 436.25,-4.43 442.25,-4.43 448.25,-10.43 448.25,-16.43 448.25,-16.43 448.25,-31.93 448.25,-31.93 448.25,-37.93 442.25,-43.93 436.25,-43.93"/>
<text xml:space="preserve" text-anchor="middle" x="357.38" y="-26.63" font-family="Helvetica,sans-Serif" font-size="14.00">The network</text>
<text xml:space="preserve" text-anchor="middle" x="357.38" y="-10.88" font-family="Helvetica,sans-Serif" font-size="14.00">packets hop router to router</text>
</g>
<!-- browser&#45;&gt;net -->
<g id="edge3" class="edge">
<title>browser&#45;&gt;net</title>
<path fill="none" stroke="black" d="M115.35,-47.51C121.29,-46.47 127.26,-45.5 133,-44.68 172.74,-39.01 216.69,-34.58 255.02,-31.31"/>
<polygon fill="black" stroke="black" points="255.01,-34.83 264.69,-30.51 254.43,-27.85 255.01,-34.83"/>
<text xml:space="preserve" text-anchor="middle" x="190.75" y="-47.88" font-family="Times New Roman,serif" font-size="14.00">3. request, in packets</text>
</g>
<!-- dns&#45;&gt;browser -->
<g id="edge2" class="edge">
<title>dns&#45;&gt;browser</title>
<path fill="none" stroke="black" d="M289.42,-82.31C275.9,-80.29 261.76,-78.31 248.5,-76.68 208.15,-71.74 162.82,-67.52 126.56,-64.46"/>
<polygon fill="black" stroke="black" points="126.89,-60.97 116.64,-63.63 126.31,-67.95 126.89,-60.97"/>
<text xml:space="preserve" text-anchor="middle" x="190.75" y="-79.88" font-family="Times New Roman,serif" font-size="14.00">2. 142.250.x.x</text>
</g>
<!-- net&#45;&gt;browser -->
<g id="edge6" class="edge">
<title>net&#45;&gt;browser</title>
<path fill="none" stroke="black" d="M266.21,-5.54C224.88,-0.42 175.69,0.77 133,-11.68 118.36,-15.95 103.85,-24.07 91.59,-32.4"/>
<polygon fill="black" stroke="black" points="89.6,-29.52 83.5,-38.18 93.67,-35.22 89.6,-29.52"/>
<text xml:space="preserve" text-anchor="middle" x="190.75" y="-14.88" font-family="Times New Roman,serif" font-size="14.00">6. page arrives</text>
</g>
<!-- server -->
<g id="node4" class="node">
<title>server</title>
<path fill="#e3efe1" stroke="black" d="M814.5,-43.93C814.5,-43.93 620,-43.93 620,-43.93 614,-43.93 608,-37.93 608,-31.93 608,-31.93 608,-16.43 608,-16.43 608,-10.43 614,-4.43 620,-4.43 620,-4.43 814.5,-4.43 814.5,-4.43 820.5,-4.43 826.5,-10.43 826.5,-16.43 826.5,-16.43 826.5,-31.93 826.5,-31.93 826.5,-37.93 820.5,-43.93 814.5,-43.93"/>
<text xml:space="preserve" text-anchor="middle" x="717.25" y="-26.63" font-family="Helvetica,sans-Serif" font-size="14.00">The server</text>
<text xml:space="preserve" text-anchor="middle" x="717.25" y="-10.88" font-family="Helvetica,sans-Serif" font-size="14.00">a process on someone&#39;s machine</text>
</g>
<!-- net&#45;&gt;server -->
<g id="edge4" class="edge">
<title>net&#45;&gt;server</title>
<path fill="none" stroke="black" d="M448.68,-24.18C493.44,-24.18 548.1,-24.18 596.33,-24.18"/>
<polygon fill="black" stroke="black" points="596.28,-27.68 606.28,-24.18 596.28,-20.68 596.28,-27.68"/>
<text xml:space="preserve" text-anchor="middle" x="528.12" y="-27.38" font-family="Times New Roman,serif" font-size="14.00">4. reassembled (TCP)</text>
</g>
<!-- server&#45;&gt;net -->
<g id="edge5" class="edge">
<title>server&#45;&gt;net</title>
<path fill="none" stroke="black" d="M607.58,-5.4C601.64,-4.73 595.75,-4.15 590,-3.68 535.18,0.74 521.01,1.47 466.25,-3.68 464.17,-3.88 462.07,-4.1 459.96,-4.33"/>
<polygon fill="black" stroke="black" points="459.54,-0.86 450.05,-5.57 460.4,-7.8 459.54,-0.86"/>
<text xml:space="preserve" text-anchor="middle" x="528.12" y="-6.88" font-family="Times New Roman,serif" font-size="14.00">5. response, in packets</text>
</g>
</g>
</svg>
