<?xml version="1.0" encoding="UTF-8" standalone="no"?>
<!DOCTYPE svg PUBLIC "-//W3C//DTD SVG 1.1//EN"
 "http://www.w3.org/Graphics/SVG/1.1/DTD/svg11.dtd">
<!-- Generated by graphviz version 14.1.5 (20260411.2331)
 -->
<!-- Pages: 1 -->
<svg width="385pt" height="232pt"
 viewBox="0.00 0.00 385.00 232.00" xmlns="http://www.w3.org/2000/svg" xmlns:xlink="http://www.w3.org/1999/xlink">
<g id="graph0" class="graph" transform="scale(1 1) rotate(0) translate(4 227.5)">
<!-- apps -->
<g id="node1" class="node">
<title>apps</title>
<path fill="#dde8f0" stroke="black" d="M252.25,-223.5C252.25,-223.5 64.5,-223.5 64.5,-223.5 58.5,-223.5 52.5,-217.5 52.5,-211.5 52.5,-211.5 52.5,-196 52.5,-196 52.5,-190 58.5,-184 64.5,-184 64.5,-184 252.25,-184 252.25,-184 258.25,-184 264.25,-190 264.25,-196 264.25,-196 264.25,-211.5 264.25,-211.5 264.25,-217.5 258.25,-223.5 252.25,-223.5"/>
<text xml:space="preserve" text-anchor="middle" x="158.38" y="-206.2" font-family="Helvetica,sans-Serif" font-size="14.00">Programs (processes)</text>
<text xml:space="preserve" text-anchor="middle" x="158.38" y="-190.45" font-family="Helvetica,sans-Serif" font-size="14.00">this notebook · a browser · Flask</text>
</g>
<!-- os -->
<g id="node2" class="node">
<title>os</title>
<path fill="#f3e9d8" stroke="black" d="M304.75,-131.5C304.75,-131.5 12,-131.5 12,-131.5 6,-131.5 0,-125.5 0,-119.5 0,-119.5 0,-104 0,-104 0,-98 6,-92 12,-92 12,-92 304.75,-92 304.75,-92 310.75,-92 316.75,-98 316.75,-104 316.75,-104 316.75,-119.5 316.75,-119.5 316.75,-125.5 310.75,-131.5 304.75,-131.5"/>
<text xml:space="preserve" text-anchor="middle" x="158.38" y="-114.2" font-family="Helvetica,sans-Serif" font-size="14.00">Operating System</text>
<text xml:space="preserve" text-anchor="middle" x="158.38" y="-98.45" font-family="Helvetica,sans-Serif" font-size="14.00">schedules processes · owns files · grants memory</text>
</g>
<!-- apps&#45;&gt;os -->
<g id="edge1" class="edge">
<title>apps&#45;&gt;os</title>
<path fill="none" stroke="black" d="M158.38,-183.66C158.38,-171.85 158.38,-156.42 158.38,-142.98"/>
<polygon fill="black" stroke="black" points="161.88,-143.32 158.38,-133.32 154.88,-143.32 161.88,-143.32"/>
<text xml:space="preserve" text-anchor="middle" x="267.88" y="-152.7" font-family="Times New Roman,serif" font-size="14.00"> &#160;requests (open a file, more memory...)</text>
</g>
<!-- hw -->
<g id="node3" class="node">
<title>hw</title>
<path fill="#e3efe1" stroke="black" d="M252.62,-39.5C252.62,-39.5 64.12,-39.5 64.12,-39.5 58.12,-39.5 52.12,-33.5 52.12,-27.5 52.12,-27.5 52.12,-12 52.12,-12 52.12,-6 58.12,0 64.12,0 64.12,0 252.62,0 252.62,0 258.62,0 264.62,-6 264.62,-12 264.62,-12 264.62,-27.5 264.62,-27.5 264.62,-33.5 258.62,-39.5 252.62,-39.5"/>
<text xml:space="preserve" text-anchor="middle" x="158.38" y="-22.2" font-family="Helvetica,sans-Serif" font-size="14.00">Hardware</text>
<text xml:space="preserve" text-anchor="middle" x="158.38" y="-6.45" font-family="Helvetica,sans-Serif" font-size="14.00">CPU · RAM · disk · network card</text>
</g>
<!-- os&#45;&gt;hw -->
<g id="edge2" class="edge">
<title>os&#45;&gt;hw</title>
<path fill="none" stroke="black" d="M158.38,-91.66C158.38,-79.85 158.38,-64.42 158.38,-50.98"/>
<polygon fill="black" stroke="black" points="161.88,-51.32 158.38,-41.32 154.88,-51.32 161.88,-51.32"/>
<text xml:space="preserve" text-anchor="middle" x="199.25" y="-60.7" font-family="Times New Roman,serif" font-size="14.00"> &#160;actual control</text>
</g>
</g>
</svg>
