<?xml version="1.0" encoding="UTF-8" standalone="no"?>
<!DOCTYPE svg PUBLIC "-//W3C//DTD SVG 1.1//EN"
 "http://www.w3.org/Graphics/SVG/1.1/DTD/svg11.dtd">
<!-- Generated by graphviz version 14.1.5 (20260411.2331)
 -->
<!-- Pages: 1 -->
<svg width="239pt" height="400pt"
 viewBox="0.00 0.00 239.00 400.00" xmlns="http://www.w3.org/2000/svg" xmlns:xlink="http://www.w3.org/1999/xlink">
<g id="graph0" class="graph" transform="scale(1 1) rotate(0) translate(4 396.46)">
<polygon fill="white" stroke="none" points="-4,4 -4,-396.46 234.92,-396.46 234.92,4 -4,4"/>
<!-- AND_A -->
<g id="node1" class="node">
<title>AND_A</title>
<ellipse fill="lightgreen" stroke="black" cx="18" cy="-72" rx="18" ry="18"/>
<text xml:space="preserve" text-anchor="middle" x="18" y="-66.95" font-family="Times New Roman,serif" font-size="14.00">A</text>
</g>
<!-- AND_G -->
<g id="node3" class="node">
<title>AND_G</title>
<path fill="lightyellow" stroke="black" d="M114,-67.5C114,-67.5 84,-67.5 84,-67.5 78,-67.5 72,-61.5 72,-55.5 72,-55.5 72,-38.5 72,-38.5 72,-32.5 78,-26.5 84,-26.5 84,-26.5 114,-26.5 114,-26.5 120,-26.5 126,-32.5 126,-38.5 126,-38.5 126,-55.5 126,-55.5 126,-61.5 120,-67.5 114,-67.5"/>
<text xml:space="preserve" text-anchor="middle" x="99" y="-50.2" font-family="Times New Roman,serif" font-size="14.00">AND</text>
<text xml:space="preserve" text-anchor="middle" x="99" y="-33.7" font-family="Times New Roman,serif" font-size="14.00">gate</text>
</g>
<!-- AND_A&#45;&gt;AND_G -->
<g id="edge1" class="edge">
<title>AND_A&#45;&gt;AND_G</title>
<path fill="none" stroke="black" d="M35.37,-66.82C42.82,-64.46 51.97,-61.57 60.96,-58.72"/>
<polygon fill="black" stroke="black" points="61.78,-62.13 70.26,-55.78 59.67,-55.46 61.78,-62.13"/>
</g>
<!-- AND_B -->
<g id="node2" class="node">
<title>AND_B</title>
<ellipse fill="lightgreen" stroke="black" cx="18" cy="-18" rx="18" ry="18"/>
<text xml:space="preserve" text-anchor="middle" x="18" y="-12.95" font-family="Times New Roman,serif" font-size="14.00">B</text>
</g>
<!-- AND_B&#45;&gt;AND_G -->
<g id="edge2" class="edge">
<title>AND_B&#45;&gt;AND_G</title>
<path fill="none" stroke="black" d="M35.37,-24.01C42.82,-26.75 51.97,-30.1 60.96,-33.4"/>
<polygon fill="black" stroke="black" points="59.69,-36.66 70.28,-36.82 62.1,-30.09 59.69,-36.66"/>
</g>
<!-- AND_Y -->
<g id="node4" class="node">
<title>AND_Y</title>
<ellipse fill="lightcoral" stroke="black" cx="196.46" cy="-47" rx="34.46" ry="34.46"/>
<text xml:space="preserve" text-anchor="middle" x="196.46" y="-41.95" font-family="Times New Roman,serif" font-size="14.00">output</text>
</g>
<!-- AND_G&#45;&gt;AND_Y -->
<g id="edge3" class="edge">
<title>AND_G&#45;&gt;AND_Y</title>
<path fill="none" stroke="black" d="M126.34,-47C133.77,-47 142.06,-47 150.26,-47"/>
<polygon fill="black" stroke="black" points="150.17,-50.5 160.17,-47 150.17,-43.5 150.17,-50.5"/>
</g>
<!-- OR_A -->
<g id="node5" class="node">
<title>OR_A</title>
<ellipse fill="lightgreen" stroke="black" cx="18" cy="-196" rx="18" ry="18"/>
<text xml:space="preserve" text-anchor="middle" x="18" y="-190.95" font-family="Times New Roman,serif" font-size="14.00">A</text>
</g>
<!-- OR_G -->
<g id="node7" class="node">
<title>OR_G</title>
<path fill="lightyellow" stroke="black" d="M114,-172.5C114,-172.5 84,-172.5 84,-172.5 78,-172.5 72,-166.5 72,-160.5 72,-160.5 72,-143.5 72,-143.5 72,-137.5 78,-131.5 84,-131.5 84,-131.5 114,-131.5 114,-131.5 120,-131.5 126,-137.5 126,-143.5 126,-143.5 126,-160.5 126,-160.5 126,-166.5 120,-172.5 114,-172.5"/>
<text xml:space="preserve" text-anchor="middle" x="99" y="-155.2" font-family="Times New Roman,serif" font-size="14.00">OR</text>
<text xml:space="preserve" text-anchor="middle" x="99" y="-138.7" font-family="Times New Roman,serif" font-size="14.00">gate</text>
</g>
<!-- OR_A&#45;&gt;OR_G -->
<g id="edge4" class="edge">
<title>OR_A&#45;&gt;OR_G</title>
<path fill="none" stroke="black" d="M34.23,-187.52C42.09,-183.14 52.03,-177.6 61.71,-172.21"/>
<polygon fill="black" stroke="black" points="63.26,-175.36 70.29,-167.43 59.85,-169.24 63.26,-175.36"/>
</g>
<!-- OR_B -->
<g id="node6" class="node">
<title>OR_B</title>
<ellipse fill="lightgreen" stroke="black" cx="18" cy="-142" rx="18" ry="18"/>
<text xml:space="preserve" text-anchor="middle" x="18" y="-136.95" font-family="Times New Roman,serif" font-size="14.00">B</text>
</g>
<!-- OR_B&#45;&gt;OR_G -->
<g id="edge5" class="edge">
<title>OR_B&#45;&gt;OR_G</title>
<path fill="none" stroke="black" d="M36.14,-144.17C43.26,-145.07 51.81,-146.15 60.26,-147.22"/>
<polygon fill="black" stroke="black" points="59.71,-150.68 70.07,-148.46 60.58,-143.74 59.71,-150.68"/>
</g>
<!-- OR_Y -->
<g id="node8" class="node">
<title>OR_Y</title>
<ellipse fill="lightcoral" stroke="black" cx="196.46" cy="-152" rx="34.46" ry="34.46"/>
<text xml:space="preserve" text-anchor="middle" x="196.46" y="-146.95" font-family="Times New Roman,serif" font-size="14.00">output</text>
</g>
<!-- OR_G&#45;&gt;OR_Y -->
<g id="edge6" class="edge">
<title>OR_G&#45;&gt;OR_Y</title>
<path fill="none" stroke="black" d="M126.34,-152C133.77,-152 142.06,-152 150.26,-152"/>
<polygon fill="black" stroke="black" points="150.17,-155.5 160.17,-152 150.17,-148.5 150.17,-155.5"/>
</g>
<!-- XOR_A -->
<g id="node9" class="node">
<title>XOR_A</title>
<ellipse fill="lightgreen" stroke="black" cx="18" cy="-304" rx="18" ry="18"/>
<text xml:space="preserve" text-anchor="middle" x="18" y="-298.95" font-family="Times New Roman,serif" font-size="14.00">A</text>
</g>
<!-- XOR_G -->
<g id="node11" class="node">
<title>XOR_G</title>
<path fill="lightyellow" stroke="black" d="M114,-280.5C114,-280.5 84,-280.5 84,-280.5 78,-280.5 72,-274.5 72,-268.5 72,-268.5 72,-251.5 72,-251.5 72,-245.5 78,-239.5 84,-239.5 84,-239.5 114,-239.5 114,-239.5 120,-239.5 126,-245.5 126,-251.5 126,-251.5 126,-268.5 126,-268.5 126,-274.5 120,-280.5 114,-280.5"/>
<text xml:space="preserve" text-anchor="middle" x="99" y="-263.2" font-family="Times New Roman,serif" font-size="14.00">XOR</text>
<text xml:space="preserve" text-anchor="middle" x="99" y="-246.7" font-family="Times New Roman,serif" font-size="14.00">gate</text>
</g>
<!-- XOR_A&#45;&gt;XOR_G -->
<g id="edge7" class="edge">
<title>XOR_A&#45;&gt;XOR_G</title>
<path fill="none" stroke="black" d="M34.23,-295.52C42.09,-291.14 52.03,-285.6 61.71,-280.21"/>
<polygon fill="black" stroke="black" points="63.26,-283.36 70.29,-275.43 59.85,-277.24 63.26,-283.36"/>
</g>
<!-- XOR_B -->
<g id="node10" class="node">
<title>XOR_B</title>
<ellipse fill="lightgreen" stroke="black" cx="18" cy="-250" rx="18" ry="18"/>
<text xml:space="preserve" text-anchor="middle" x="18" y="-244.95" font-family="Times New Roman,serif" font-size="14.00">B</text>
</g>
<!-- XOR_B&#45;&gt;XOR_G -->
<g id="edge8" class="edge">
<title>XOR_B&#45;&gt;XOR_G</title>
<path fill="none" stroke="black" d="M36.14,-252.17C43.26,-253.07 51.81,-254.15 60.26,-255.22"/>
<polygon fill="black" stroke="black" points="59.71,-258.68 70.07,-256.46 60.58,-251.74 59.71,-258.68"/>
</g>
<!-- XOR_Y -->
<g id="node12" class="node">
<title>XOR_Y</title>
<ellipse fill="lightcoral" stroke="black" cx="196.46" cy="-260" rx="34.46" ry="34.46"/>
<text xml:space="preserve" text-anchor="middle" x="196.46" y="-254.95" font-family="Times New Roman,serif" font-size="14.00">output</text>
</g>
<!-- XOR_G&#45;&gt;XOR_Y -->
<g id="edge9" class="edge">
<title>XOR_G&#45;&gt;XOR_Y</title>
<path fill="none" stroke="black" d="M126.34,-260C133.77,-260 142.06,-260 150.26,-260"/>
<polygon fill="black" stroke="black" points="150.17,-263.5 160.17,-260 150.17,-256.5 150.17,-263.5"/>
</g>
<!-- NOT_A -->
<g id="node13" class="node">
<title>NOT_A</title>
<ellipse fill="lightgreen" stroke="black" cx="18" cy="-358" rx="18" ry="18"/>
<text xml:space="preserve" text-anchor="middle" x="18" y="-352.95" font-family="Times New Roman,serif" font-size="14.00">A</text>
</g>
<!-- NOT_G -->
<g id="node14" class="node">
<title>NOT_G</title>
<path fill="lightyellow" stroke="black" d="M114,-378.5C114,-378.5 84,-378.5 84,-378.5 78,-378.5 72,-372.5 72,-366.5 72,-366.5 72,-349.5 72,-349.5 72,-343.5 78,-337.5 84,-337.5 84,-337.5 114,-337.5 114,-337.5 120,-337.5 126,-343.5 126,-349.5 126,-349.5 126,-366.5 126,-366.5 126,-372.5 120,-378.5 114,-378.5"/>
<text xml:space="preserve" text-anchor="middle" x="99" y="-361.2" font-family="Times New Roman,serif" font-size="14.00">NOT</text>
<text xml:space="preserve" text-anchor="middle" x="99" y="-344.7" font-family="Times New Roman,serif" font-size="14.00">gate</text>
</g>
<!-- NOT_A&#45;&gt;NOT_G -->
<g id="edge10" class="edge">
<title>NOT_A&#45;&gt;NOT_G</title>
<path fill="none" stroke="black" d="M36.14,-358C43.26,-358 51.81,-358 60.26,-358"/>
<polygon fill="black" stroke="black" points="60.05,-361.5 70.05,-358 60.05,-354.5 60.05,-361.5"/>
</g>
<!-- NOT_Y -->
<g id="node15" class="node">
<title>NOT_Y</title>
<ellipse fill="lightcoral" stroke="black" cx="196.46" cy="-358" rx="34.46" ry="34.46"/>
<text xml:space="preserve" text-anchor="middle" x="196.46" y="-352.95" font-family="Times New Roman,serif" font-size="14.00">output</text>
</g>
<!-- NOT_G&#45;&gt;NOT_Y -->
<g id="edge11" class="edge">
<title>NOT_G&#45;&gt;NOT_Y</title>
<path fill="none" stroke="black" d="M126.34,-358C133.77,-358 142.06,-358 150.26,-358"/>
<polygon fill="black" stroke="black" points="150.17,-361.5 160.17,-358 150.17,-354.5 150.17,-361.5"/>
</g>
</g>
</svg>
