<?xml version="1.0" encoding="UTF-8" standalone="no"?>
<!DOCTYPE svg PUBLIC "-//W3C//DTD SVG 1.1//EN"
 "http://www.w3.org/Graphics/SVG/1.1/DTD/svg11.dtd">
<!-- Generated by graphviz version 14.1.5 (20260411.2331)
 -->
<!-- Pages: 1 -->
<svg width="641pt" height="197pt"
 viewBox="0.00 0.00 641.00 197.00" xmlns="http://www.w3.org/2000/svg" xmlns:xlink="http://www.w3.org/1999/xlink">
<g id="graph0" class="graph" transform="scale(1 1) rotate(0) translate(4 193)">
<polygon fill="white" stroke="none" points="-4,4 -4,-193 636.75,-193 636.75,4 -4,4"/>
<g id="clust1" class="cluster">
<title>cluster_cpu</title>
<polygon fill="oldlace" stroke="black" points="8,-84 8,-181 444,-181 444,-84 8,-84"/>
<text xml:space="preserve" text-anchor="middle" x="226" y="-163.7" font-family="Times New Roman,serif" font-size="14.00">CPU</text>
</g>
<!-- CU -->
<g id="node1" class="node">
<title>CU</title>
<path fill="lightyellow" stroke="black" d="M89,-128C89,-128 28,-128 28,-128 22,-128 16,-122 16,-116 16,-116 16,-104 16,-104 16,-98 22,-92 28,-92 28,-92 89,-92 89,-92 95,-92 101,-98 101,-104 101,-104 101,-116 101,-116 101,-122 95,-128 89,-128"/>
<text xml:space="preserve" text-anchor="middle" x="58.5" y="-104.95" font-family="Times New Roman,serif" font-size="14.00">Control Unit</text>
</g>
<!-- ALU -->
<g id="node2" class="node">
<title>ALU</title>
<path fill="lightyellow" stroke="black" d="M180,-128C180,-128 150,-128 150,-128 144,-128 138,-122 138,-116 138,-116 138,-104 138,-104 138,-98 144,-92 150,-92 150,-92 180,-92 180,-92 186,-92 192,-98 192,-104 192,-104 192,-116 192,-116 192,-122 186,-128 180,-128"/>
<text xml:space="preserve" text-anchor="middle" x="165" y="-104.95" font-family="Times New Roman,serif" font-size="14.00">ALU</text>
</g>
<!-- CU&#45;&gt;ALU -->
<g id="edge1" class="edge">
<title>CU&#45;&gt;ALU</title>
<path fill="none" stroke="black" d="M101.4,-110C109.64,-110 118.24,-110 126.33,-110"/>
<polygon fill="black" stroke="black" points="126.21,-113.5 136.21,-110 126.21,-106.5 126.21,-113.5"/>
</g>
<!-- REG -->
<g id="node3" class="node">
<title>REG</title>
<path fill="lightyellow" stroke="black" d="M424,-133.5C424,-133.5 310.5,-133.5 310.5,-133.5 304.5,-133.5 298.5,-127.5 298.5,-121.5 298.5,-121.5 298.5,-104.5 298.5,-104.5 298.5,-98.5 304.5,-92.5 310.5,-92.5 310.5,-92.5 424,-92.5 424,-92.5 430,-92.5 436,-98.5 436,-104.5 436,-104.5 436,-121.5 436,-121.5 436,-127.5 430,-133.5 424,-133.5"/>
<text xml:space="preserve" text-anchor="middle" x="367.25" y="-116.2" font-family="Times New Roman,serif" font-size="14.00">Registers</text>
<text xml:space="preserve" text-anchor="middle" x="367.25" y="-99.7" font-family="Times New Roman,serif" font-size="14.00">(PC, IR, accumulator)</text>
</g>
<!-- CU&#45;&gt;REG -->
<g id="edge2" class="edge">
<title>CU&#45;&gt;REG</title>
<path fill="none" stroke="black" d="M101.2,-127.2C112.9,-131.24 125.78,-134.96 138,-137 187.17,-145.22 242.79,-139.67 286.82,-131.85"/>
<polygon fill="black" stroke="black" points="287.36,-135.31 296.55,-130.04 286.08,-128.43 287.36,-135.31"/>
</g>
<!-- MEM -->
<g id="node4" class="node">
<title>MEM</title>
<path fill="lightyellow" stroke="black" d="M620.75,-84.5C620.75,-84.5 536.5,-84.5 536.5,-84.5 530.5,-84.5 524.5,-78.5 524.5,-72.5 524.5,-72.5 524.5,-55.5 524.5,-55.5 524.5,-49.5 530.5,-43.5 536.5,-43.5 536.5,-43.5 620.75,-43.5 620.75,-43.5 626.75,-43.5 632.75,-49.5 632.75,-55.5 632.75,-55.5 632.75,-72.5 632.75,-72.5 632.75,-78.5 626.75,-84.5 620.75,-84.5"/>
<text xml:space="preserve" text-anchor="middle" x="578.62" y="-67.2" font-family="Times New Roman,serif" font-size="14.00">Memory (RAM)</text>
<text xml:space="preserve" text-anchor="middle" x="578.62" y="-50.7" font-family="Times New Roman,serif" font-size="14.00">program + data</text>
</g>
<!-- CU&#45;&gt;MEM -->
<g id="edge4" class="edge">
<title>CU&#45;&gt;MEM</title>
<path fill="none" stroke="black" d="M111.94,-89.65C120.54,-86.98 129.44,-84.62 138,-83 269.32,-58.12 426.48,-58.37 512.83,-61.03"/>
<polygon fill="black" stroke="black" points="111.12,-86.23 102.7,-92.67 113.3,-92.89 111.12,-86.23"/>
<polygon fill="black" stroke="black" points="512.65,-64.52 522.76,-61.36 512.89,-57.53 512.65,-64.52"/>
<text xml:space="preserve" text-anchor="middle" x="245.25" y="-75.07" font-family="Times New Roman,serif" font-size="14.00"> address bus </text>
</g>
<!-- ALU&#45;&gt;REG -->
<g id="edge3" class="edge">
<title>ALU&#45;&gt;REG</title>
<path fill="none" stroke="black" d="M192.18,-110.39C216.28,-110.75 253.29,-111.31 286.99,-111.81"/>
<polygon fill="black" stroke="black" points="286.71,-115.31 296.76,-111.96 286.82,-108.31 286.71,-115.31"/>
</g>
<!-- REG&#45;&gt;MEM -->
<g id="edge5" class="edge">
<title>REG&#45;&gt;MEM</title>
<path fill="none" stroke="black" d="M447.11,-94.55C468.93,-89.44 492.35,-83.96 513.24,-79.07"/>
<polygon fill="black" stroke="black" points="446.64,-91.06 437.7,-96.75 448.24,-97.88 446.64,-91.06"/>
<polygon fill="black" stroke="black" points="513.82,-82.53 522.76,-76.84 512.23,-75.71 513.82,-82.53"/>
<text xml:space="preserve" text-anchor="middle" x="480.25" y="-96.09" font-family="Times New Roman,serif" font-size="14.00"> data bus </text>
</g>
<!-- IO -->
<g id="node5" class="node">
<title>IO</title>
<path fill="lightgreen" stroke="black" d="M401.88,-36C401.88,-36 332.62,-36 332.62,-36 326.62,-36 320.62,-30 320.62,-24 320.62,-24 320.62,-12 320.62,-12 320.62,-6 326.62,0 332.62,0 332.62,0 401.88,0 401.88,0 407.88,0 413.88,-6 413.88,-12 413.88,-12 413.88,-24 413.88,-24 413.88,-30 407.88,-36 401.88,-36"/>
<text xml:space="preserve" text-anchor="middle" x="367.25" y="-12.95" font-family="Times New Roman,serif" font-size="14.00">Input / Output</text>
</g>
<!-- IO&#45;&gt;MEM -->
<g id="edge6" class="edge">
<title>IO&#45;&gt;MEM</title>
<path fill="none" stroke="black" d="M425.19,-30.51C452.37,-36.48 485,-43.65 513.09,-49.82"/>
<polygon fill="black" stroke="black" points="426.19,-27.15 415.68,-28.42 424.69,-33.98 426.19,-27.15"/>
<polygon fill="black" stroke="black" points="512.02,-53.17 522.53,-51.9 513.52,-46.33 512.02,-53.17"/>
</g>
</g>
</svg>
