<?xml version="1.0" encoding="UTF-8" standalone="no"?>
<!DOCTYPE svg PUBLIC "-//W3C//DTD SVG 1.1//EN"
 "http://www.w3.org/Graphics/SVG/1.1/DTD/svg11.dtd">
<!-- Generated by graphviz version 2.43.0 (0)
 -->
<!-- Title: %3 Pages: 1 -->
<svg width="372pt" height="519pt"
 viewBox="0.00 0.00 371.50 519.00" xmlns="http://www.w3.org/2000/svg" xmlns:xlink="http://www.w3.org/1999/xlink">
<g id="graph0" class="graph" transform="scale(1 1) rotate(0) translate(4 515)">
<title>%3</title>
<polygon fill="white" stroke="transparent" points="-4,4 -4,-515 367.5,-515 367.5,4 -4,4"/>
<!-- A -->
<g id="node1" class="node">
<title>A</title>
<path fill="lightgreen" stroke="black" d="M174,-511C174,-511 124,-511 124,-511 118,-511 112,-505 112,-499 112,-499 112,-487 112,-487 112,-481 118,-475 124,-475 124,-475 174,-475 174,-475 180,-475 186,-481 186,-487 186,-487 186,-499 186,-499 186,-505 180,-511 174,-511"/>
<text text-anchor="middle" x="149" y="-489.3" font-family="Times,serif" font-size="14.00">user_input</text>
</g>
<!-- B -->
<g id="node2" class="node">
<title>B</title>
<path fill="lightyellow" stroke="black" d="M178,-438C178,-438 120,-438 120,-438 114,-438 108,-432 108,-426 108,-426 108,-414 108,-414 108,-408 114,-402 120,-402 120,-402 178,-402 178,-402 184,-402 190,-408 190,-414 190,-414 190,-426 190,-426 190,-432 184,-438 178,-438"/>
<text text-anchor="middle" x="149" y="-416.3" font-family="Times,serif" font-size="14.00">lowercase it</text>
</g>
<!-- A&#45;&gt;B -->
<g id="edge1" class="edge">
<title>A&#45;&gt;B</title>
<path fill="none" stroke="black" d="M149,-474.81C149,-466.79 149,-457.05 149,-448.07"/>
<polygon fill="black" stroke="black" points="152.5,-448.03 149,-438.03 145.5,-448.03 152.5,-448.03"/>
</g>
<!-- C -->
<g id="node3" class="node">
<title>C</title>
<path fill="lightblue" stroke="black" d="M138.3,-359.58C138.3,-359.58 84.7,-332.42 84.7,-332.42 79.35,-329.71 79.35,-324.29 84.7,-321.58 84.7,-321.58 138.3,-294.42 138.3,-294.42 143.65,-291.71 154.35,-291.71 159.7,-294.42 159.7,-294.42 213.3,-321.58 213.3,-321.58 218.65,-324.29 218.65,-329.71 213.3,-332.42 213.3,-332.42 159.7,-359.58 159.7,-359.58 154.35,-362.29 143.65,-362.29 138.3,-359.58"/>
<text text-anchor="middle" x="149" y="-330.8" font-family="Times,serif" font-size="14.00">more rules</text>
<text text-anchor="middle" x="149" y="-315.8" font-family="Times,serif" font-size="14.00">to check?</text>
</g>
<!-- B&#45;&gt;C -->
<g id="edge2" class="edge">
<title>B&#45;&gt;C</title>
<path fill="none" stroke="black" d="M149,-401.88C149,-394.25 149,-384.83 149,-375.31"/>
<polygon fill="black" stroke="black" points="152.5,-375.02 149,-365.02 145.5,-375.02 152.5,-375.02"/>
</g>
<!-- D -->
<g id="node4" class="node">
<title>D</title>
<path fill="lightblue" stroke="black" d="M92.73,-233.88C92.73,-233.88 11.27,-204.12 11.27,-204.12 5.64,-202.06 5.64,-197.94 11.27,-195.88 11.27,-195.88 92.73,-166.12 92.73,-166.12 98.36,-164.06 109.64,-164.06 115.27,-166.12 115.27,-166.12 196.73,-195.88 196.73,-195.88 202.36,-197.94 202.36,-202.06 196.73,-204.12 196.73,-204.12 115.27,-233.88 115.27,-233.88 109.64,-235.94 98.36,-235.94 92.73,-233.88"/>
<text text-anchor="middle" x="104" y="-203.8" font-family="Times,serif" font-size="14.00">does trigger</text>
<text text-anchor="middle" x="104" y="-188.8" font-family="Times,serif" font-size="14.00">appear in input?</text>
</g>
<!-- C&#45;&gt;D -->
<g id="edge3" class="edge">
<title>C&#45;&gt;D</title>
<path fill="none" stroke="black" d="M123.8,-301.63C116.29,-292.76 109.01,-282.16 105,-271 102.29,-263.44 100.91,-255.12 100.36,-246.93"/>
<polygon fill="black" stroke="black" points="103.85,-246.59 100.06,-236.7 96.85,-246.8 103.85,-246.59"/>
<text text-anchor="middle" x="116" y="-259.8" font-family="Times,serif" font-size="14.00"> yes</text>
</g>
<!-- G -->
<g id="node7" class="node">
<title>G</title>
<path fill="lightcoral" stroke="black" d="M351.5,-218C351.5,-218 238.5,-218 238.5,-218 232.5,-218 226.5,-212 226.5,-206 226.5,-206 226.5,-194 226.5,-194 226.5,-188 232.5,-182 238.5,-182 238.5,-182 351.5,-182 351.5,-182 357.5,-182 363.5,-188 363.5,-194 363.5,-194 363.5,-206 363.5,-206 363.5,-212 357.5,-218 351.5,-218"/>
<text text-anchor="middle" x="295" y="-196.3" font-family="Times,serif" font-size="14.00">return &quot;Please go on.&quot;</text>
</g>
<!-- C&#45;&gt;G -->
<g id="edge4" class="edge">
<title>C&#45;&gt;G</title>
<path fill="none" stroke="black" d="M176.46,-302.49C202.36,-280.31 241,-247.23 267.06,-224.92"/>
<polygon fill="black" stroke="black" points="269.39,-227.53 274.71,-218.37 264.84,-222.22 269.39,-227.53"/>
<text text-anchor="middle" x="239" y="-259.8" font-family="Times,serif" font-size="14.00"> no</text>
</g>
<!-- D&#45;&gt;C -->
<g id="edge6" class="edge">
<title>D&#45;&gt;C</title>
<path fill="none" stroke="black" d="M118,-233.09C121.09,-240.56 124.27,-248.51 127,-256 130.27,-264.96 133.52,-274.67 136.46,-283.93"/>
<polygon fill="black" stroke="black" points="133.21,-285.24 139.54,-293.73 139.89,-283.14 133.21,-285.24"/>
<text text-anchor="middle" x="141" y="-259.8" font-family="Times,serif" font-size="14.00"> no</text>
</g>
<!-- E -->
<g id="node5" class="node">
<title>E</title>
<path fill="lightyellow" stroke="black" d="M165,-111C165,-111 43,-111 43,-111 37,-111 31,-105 31,-99 31,-99 31,-85 31,-85 31,-79 37,-73 43,-73 43,-73 165,-73 165,-73 171,-73 177,-79 177,-85 177,-85 177,-99 177,-99 177,-105 171,-111 165,-111"/>
<text text-anchor="middle" x="104" y="-95.8" font-family="Times,serif" font-size="14.00">extract text after trigger</text>
<text text-anchor="middle" x="104" y="-80.8" font-family="Times,serif" font-size="14.00">fill into template</text>
</g>
<!-- D&#45;&gt;E -->
<g id="edge5" class="edge">
<title>D&#45;&gt;E</title>
<path fill="none" stroke="black" d="M104,-161.93C104,-148.63 104,-133.85 104,-121.41"/>
<polygon fill="black" stroke="black" points="107.5,-121.16 104,-111.16 100.5,-121.16 107.5,-121.16"/>
<text text-anchor="middle" x="115" y="-132.8" font-family="Times,serif" font-size="14.00"> yes</text>
</g>
<!-- F -->
<g id="node6" class="node">
<title>F</title>
<path fill="lightcoral" stroke="black" d="M142,-36C142,-36 66,-36 66,-36 60,-36 54,-30 54,-24 54,-24 54,-12 54,-12 54,-6 60,0 66,0 66,0 142,0 142,0 148,0 154,-6 154,-12 154,-12 154,-24 154,-24 154,-30 148,-36 142,-36"/>
<text text-anchor="middle" x="104" y="-14.3" font-family="Times,serif" font-size="14.00">return response</text>
</g>
<!-- E&#45;&gt;F -->
<g id="edge7" class="edge">
<title>E&#45;&gt;F</title>
<path fill="none" stroke="black" d="M104,-72.83C104,-64.89 104,-55.41 104,-46.63"/>
<polygon fill="black" stroke="black" points="107.5,-46.42 104,-36.42 100.5,-46.42 107.5,-46.42"/>
</g>
</g>
</svg>
