<?xml version="1.0" encoding="UTF-8" standalone="no"?>
<!DOCTYPE svg PUBLIC "-//W3C//DTD SVG 1.1//EN"
 "http://www.w3.org/Graphics/SVG/1.1/DTD/svg11.dtd">
<!-- Generated by graphviz version 14.1.5 (20260411.2331)
 -->
<!-- Pages: 1 -->
<svg width="680pt" height="66pt"
 viewBox="0.00 0.00 680.00 66.00" xmlns="http://www.w3.org/2000/svg" xmlns:xlink="http://www.w3.org/1999/xlink">
<g id="graph0" class="graph" transform="scale(1 1) rotate(0) translate(4 61.5)">
<polygon fill="white" stroke="none" points="-4,4 -4,-61.5 675.75,-61.5 675.75,4 -4,4"/>
<!-- A -->
<g id="node1" class="node">
<title>A</title>
<path fill="lightgreen" stroke="black" d="M91,-49.25C91,-49.25 12,-49.25 12,-49.25 6,-49.25 0,-43.25 0,-37.25 0,-37.25 0,-20.25 0,-20.25 0,-14.25 6,-8.25 12,-8.25 12,-8.25 91,-8.25 91,-8.25 97,-8.25 103,-14.25 103,-20.25 103,-20.25 103,-37.25 103,-37.25 103,-43.25 97,-49.25 91,-49.25"/>
<text xml:space="preserve" text-anchor="middle" x="51.5" y="-31.95" font-family="Times New Roman,serif" font-size="14.00">Ciphertext</text>
<text xml:space="preserve" text-anchor="middle" x="51.5" y="-15.45" font-family="Times New Roman,serif" font-size="14.00">(shift unknown)</text>
</g>
<!-- B -->
<g id="node2" class="node">
<title>B</title>
<path fill="lightyellow" stroke="black" d="M254,-49.25C254,-49.25 151,-49.25 151,-49.25 145,-49.25 139,-43.25 139,-37.25 139,-37.25 139,-20.25 139,-20.25 139,-14.25 145,-8.25 151,-8.25 151,-8.25 254,-8.25 254,-8.25 260,-8.25 266,-14.25 266,-20.25 266,-20.25 266,-37.25 266,-37.25 266,-43.25 260,-49.25 254,-49.25"/>
<text xml:space="preserve" text-anchor="middle" x="202.5" y="-31.95" font-family="Times New Roman,serif" font-size="14.00">GENERATE</text>
<text xml:space="preserve" text-anchor="middle" x="202.5" y="-15.45" font-family="Times New Roman,serif" font-size="14.00">try every shift, 1–25</text>
</g>
<!-- A&#45;&gt;B -->
<g id="edge1" class="edge">
<title>A&#45;&gt;B</title>
<path fill="none" stroke="black" d="M103.36,-28.75C111.1,-28.75 119.21,-28.75 127.32,-28.75"/>
<polygon fill="black" stroke="black" points="127.23,-32.25 137.23,-28.75 127.23,-25.25 127.23,-32.25"/>
</g>
<!-- C -->
<g id="node3" class="node">
<title>C</title>
<path fill="lightgrey" stroke="black" d="M375,-49.25C375,-49.25 314,-49.25 314,-49.25 308,-49.25 302,-43.25 302,-37.25 302,-37.25 302,-20.25 302,-20.25 302,-14.25 308,-8.25 314,-8.25 314,-8.25 375,-8.25 375,-8.25 381,-8.25 387,-14.25 387,-20.25 387,-20.25 387,-37.25 387,-37.25 387,-43.25 381,-49.25 375,-49.25"/>
<text xml:space="preserve" text-anchor="middle" x="344.5" y="-31.95" font-family="Times New Roman,serif" font-size="14.00">25 candidate</text>
<text xml:space="preserve" text-anchor="middle" x="344.5" y="-15.45" font-family="Times New Roman,serif" font-size="14.00">decryptions</text>
</g>
<!-- B&#45;&gt;C -->
<g id="edge2" class="edge">
<title>B&#45;&gt;C</title>
<path fill="none" stroke="black" d="M266.13,-28.75C274.25,-28.75 282.5,-28.75 290.45,-28.75"/>
<polygon fill="black" stroke="black" points="290.3,-32.25 300.3,-28.75 290.3,-25.25 290.3,-32.25"/>
</g>
<!-- D -->
<g id="node4" class="node">
<title>D</title>
<path fill="lightblue" stroke="black" d="M559.75,-57.5C559.75,-57.5 435,-57.5 435,-57.5 429,-57.5 423,-51.5 423,-45.5 423,-45.5 423,-12 423,-12 423,-6 429,0 435,0 435,0 559.75,0 559.75,0 565.75,0 571.75,-6 571.75,-12 571.75,-12 571.75,-45.5 571.75,-45.5 571.75,-51.5 565.75,-57.5 559.75,-57.5"/>
<text xml:space="preserve" text-anchor="middle" x="497.38" y="-40.2" font-family="Times New Roman,serif" font-size="14.00">FILTER / RECOGNIZE</text>
<text xml:space="preserve" text-anchor="middle" x="497.38" y="-23.7" font-family="Times New Roman,serif" font-size="14.00">which one reads</text>
<text xml:space="preserve" text-anchor="middle" x="497.38" y="-7.2" font-family="Times New Roman,serif" font-size="14.00">like English?</text>
</g>
<!-- C&#45;&gt;D -->
<g id="edge3" class="edge">
<title>C&#45;&gt;D</title>
<path fill="none" stroke="black" d="M387.13,-28.75C394.74,-28.75 402.94,-28.75 411.29,-28.75"/>
<polygon fill="black" stroke="black" points="411.23,-32.25 421.23,-28.75 411.23,-25.25 411.23,-32.25"/>
</g>
<!-- E -->
<g id="node5" class="node">
<title>E</title>
<path fill="lightcoral" stroke="black" d="M659.75,-46.75C659.75,-46.75 619.75,-46.75 619.75,-46.75 613.75,-46.75 607.75,-40.75 607.75,-34.75 607.75,-34.75 607.75,-22.75 607.75,-22.75 607.75,-16.75 613.75,-10.75 619.75,-10.75 619.75,-10.75 659.75,-10.75 659.75,-10.75 665.75,-10.75 671.75,-16.75 671.75,-22.75 671.75,-22.75 671.75,-34.75 671.75,-34.75 671.75,-40.75 665.75,-46.75 659.75,-46.75"/>
<text xml:space="preserve" text-anchor="middle" x="639.75" y="-23.7" font-family="Times New Roman,serif" font-size="14.00">Plaintext</text>
</g>
<!-- D&#45;&gt;E -->
<g id="edge4" class="edge">
<title>D&#45;&gt;E</title>
<path fill="none" stroke="black" d="M571.85,-28.75C580.04,-28.75 588.16,-28.75 595.78,-28.75"/>
<polygon fill="black" stroke="black" points="595.76,-32.25 605.76,-28.75 595.76,-25.25 595.76,-32.25"/>
</g>
</g>
</svg>
