<?xml version="1.0" encoding="UTF-8" standalone="no"?>
<!DOCTYPE svg PUBLIC "-//W3C//DTD SVG 1.1//EN"
 "http://www.w3.org/Graphics/SVG/1.1/DTD/svg11.dtd">
<!-- Generated by graphviz version 14.1.5 (20260411.2331)
 -->
<!-- Pages: 1 -->
<svg width="871pt" height="139pt"
 viewBox="0.00 0.00 871.00 139.00" xmlns="http://www.w3.org/2000/svg" xmlns:xlink="http://www.w3.org/1999/xlink">
<g id="graph0" class="graph" transform="scale(1 1) rotate(0) translate(4 134.5)">
<polygon fill="white" stroke="none" points="-4,4 -4,-134.5 866.75,-134.5 866.75,4 -4,4"/>
<!-- OpCards -->
<g id="node1" class="node">
<title>OpCards</title>
<path fill="lightblue" stroke="black" d="M127.75,-118C127.75,-118 12,-118 12,-118 6,-118 0,-112 0,-106 0,-106 0,-89 0,-89 0,-83 6,-77 12,-77 12,-77 127.75,-77 127.75,-77 133.75,-77 139.75,-83 139.75,-89 139.75,-89 139.75,-106 139.75,-106 139.75,-112 133.75,-118 127.75,-118"/>
<text xml:space="preserve" text-anchor="middle" x="69.88" y="-100.7" font-family="Times New Roman,serif" font-size="14.00">Operation Cards</text>
<text xml:space="preserve" text-anchor="middle" x="69.88" y="-84.2" font-family="Times New Roman,serif" font-size="14.00">(Program Instructions)</text>
</g>
<!-- Mill -->
<g id="node4" class="node">
<title>Mill</title>
<path fill="lightcoral" stroke="black" d="M362.75,-118C362.75,-118 265,-118 265,-118 259,-118 253,-112 253,-106 253,-106 253,-89 253,-89 253,-83 259,-77 265,-77 265,-77 362.75,-77 362.75,-77 368.75,-77 374.75,-83 374.75,-89 374.75,-89 374.75,-106 374.75,-106 374.75,-112 368.75,-118 362.75,-118"/>
<text xml:space="preserve" text-anchor="middle" x="313.88" y="-100.7" font-family="Times New Roman,serif" font-size="14.00">The Mill</text>
<text xml:space="preserve" text-anchor="middle" x="313.88" y="-84.2" font-family="Times New Roman,serif" font-size="14.00">(Arithmetic / CPU)</text>
</g>
<!-- OpCards&#45;&gt;Mill -->
<g id="edge1" class="edge">
<title>OpCards&#45;&gt;Mill</title>
<path fill="none" stroke="black" d="M140.22,-97.5C171.82,-97.5 209.2,-97.5 241.08,-97.5"/>
<polygon fill="black" stroke="black" points="241.05,-101 251.05,-97.5 241.05,-94 241.05,-101"/>
<text xml:space="preserve" text-anchor="middle" x="196.38" y="-117.2" font-family="Times New Roman,serif" font-size="14.00"> Tells the Mill</text>
<text xml:space="preserve" text-anchor="middle" x="196.38" y="-100.7" font-family="Times New Roman,serif" font-size="14.00">what to do</text>
</g>
<!-- VarCards -->
<g id="node2" class="node">
<title>VarCards</title>
<path fill="lightblue" stroke="black" d="M350,-41C350,-41 277.75,-41 277.75,-41 271.75,-41 265.75,-35 265.75,-29 265.75,-29 265.75,-12 265.75,-12 265.75,-6 271.75,0 277.75,0 277.75,0 350,0 350,0 356,0 362,-6 362,-12 362,-12 362,-29 362,-29 362,-35 356,-41 350,-41"/>
<text xml:space="preserve" text-anchor="middle" x="313.88" y="-23.7" font-family="Times New Roman,serif" font-size="14.00">Variable Cards</text>
<text xml:space="preserve" text-anchor="middle" x="313.88" y="-7.2" font-family="Times New Roman,serif" font-size="14.00">(Initial Data)</text>
</g>
<!-- Store -->
<g id="node3" class="node">
<title>Store</title>
<path fill="lightgreen" stroke="black" d="M600.75,-81C600.75,-81 491,-81 491,-81 485,-81 479,-75 479,-69 479,-69 479,-52 479,-52 479,-46 485,-40 491,-40 491,-40 600.75,-40 600.75,-40 606.75,-40 612.75,-46 612.75,-52 612.75,-52 612.75,-69 612.75,-69 612.75,-75 606.75,-81 600.75,-81"/>
<text xml:space="preserve" text-anchor="middle" x="545.88" y="-63.7" font-family="Times New Roman,serif" font-size="14.00">The Store</text>
<text xml:space="preserve" text-anchor="middle" x="545.88" y="-47.2" font-family="Times New Roman,serif" font-size="14.00">(Memory / Variables)</text>
</g>
<!-- VarCards&#45;&gt;Store -->
<g id="edge2" class="edge">
<title>VarCards&#45;&gt;Store</title>
<path fill="none" stroke="black" d="M362.3,-22.31C391.07,-24.05 428.41,-27.42 461,-34 464.98,-34.8 469.03,-35.72 473.1,-36.73"/>
<polygon fill="black" stroke="black" points="471.86,-40.02 482.42,-39.19 473.65,-33.25 471.86,-40.02"/>
<text xml:space="preserve" text-anchor="middle" x="426.88" y="-37.2" font-family="Times New Roman,serif" font-size="14.00"> Loads data</text>
</g>
<!-- Store&#45;&gt;Mill -->
<g id="edge3" class="edge">
<title>Store&#45;&gt;Mill</title>
<path fill="none" stroke="black" d="M478.67,-54.87C451.72,-54.14 420.46,-55.31 392.75,-61.5 382.5,-63.79 371.99,-67.55 362.14,-71.79"/>
<polygon fill="black" stroke="black" points="360.77,-68.57 353.13,-75.91 363.68,-74.94 360.77,-68.57"/>
<text xml:space="preserve" text-anchor="middle" x="426.88" y="-81.2" font-family="Times New Roman,serif" font-size="14.00"> Numbers</text>
<text xml:space="preserve" text-anchor="middle" x="426.88" y="-64.7" font-family="Times New Roman,serif" font-size="14.00">to calculate</text>
</g>
<!-- Output -->
<g id="node5" class="node">
<title>Output</title>
<path fill="plum" stroke="black" d="M850.75,-81C850.75,-81 739.5,-81 739.5,-81 733.5,-81 727.5,-75 727.5,-69 727.5,-69 727.5,-52 727.5,-52 727.5,-46 733.5,-40 739.5,-40 739.5,-40 850.75,-40 850.75,-40 856.75,-40 862.75,-46 862.75,-52 862.75,-52 862.75,-69 862.75,-69 862.75,-75 856.75,-81 850.75,-81"/>
<text xml:space="preserve" text-anchor="middle" x="795.12" y="-63.7" font-family="Times New Roman,serif" font-size="14.00">Printer &amp; Card Punch</text>
<text xml:space="preserve" text-anchor="middle" x="795.12" y="-47.2" font-family="Times New Roman,serif" font-size="14.00">(Results)</text>
</g>
<!-- Store&#45;&gt;Output -->
<g id="edge5" class="edge">
<title>Store&#45;&gt;Output</title>
<path fill="none" stroke="black" d="M613.13,-60.5C644.74,-60.5 682.77,-60.5 715.8,-60.5"/>
<polygon fill="black" stroke="black" points="715.74,-64 725.74,-60.5 715.74,-57 715.74,-64"/>
<text xml:space="preserve" text-anchor="middle" x="670.12" y="-63.7" font-family="Times New Roman,serif" font-size="14.00"> Final answers</text>
</g>
<!-- Mill&#45;&gt;Store -->
<g id="edge4" class="edge">
<title>Mill&#45;&gt;Store</title>
<path fill="none" stroke="black" d="M375.14,-101.15C401.71,-101.51 433.16,-100.22 461,-94.5 471.06,-92.43 481.45,-89.2 491.35,-85.54"/>
<polygon fill="black" stroke="black" points="492.4,-88.89 500.44,-81.98 489.85,-82.37 492.4,-88.89"/>
<text xml:space="preserve" text-anchor="middle" x="426.88" y="-104.32" font-family="Times New Roman,serif" font-size="14.00"> New results</text>
</g>
</g>
</svg>
