<?xml version="1.0" encoding="UTF-8" standalone="no"?>
<!DOCTYPE svg PUBLIC "-//W3C//DTD SVG 1.1//EN"
 "http://www.w3.org/Graphics/SVG/1.1/DTD/svg11.dtd">
<!-- Generated by graphviz version 14.1.5 (20260411.2331)
 -->
<!-- Pages: 1 -->
<svg width="365pt" height="508pt"
 viewBox="0.00 0.00 365.00 508.00" xmlns="http://www.w3.org/2000/svg" xmlns:xlink="http://www.w3.org/1999/xlink">
<g id="graph0" class="graph" transform="scale(1 1) rotate(0) translate(4 503.5)">
<polygon fill="white" stroke="none" points="-4,4 -4,-503.5 360.88,-503.5 360.88,4 -4,4"/>
<!-- S -->
<g id="node1" class="node">
<title>S</title>
<path fill="lightgreen" stroke="black" d="M309.25,-499.5C309.25,-499.5 276,-499.5 276,-499.5 270,-499.5 264,-493.5 264,-487.5 264,-487.5 264,-475.5 264,-475.5 264,-469.5 270,-463.5 276,-463.5 276,-463.5 309.25,-463.5 309.25,-463.5 315.25,-463.5 321.25,-469.5 321.25,-475.5 321.25,-475.5 321.25,-487.5 321.25,-487.5 321.25,-493.5 315.25,-499.5 309.25,-499.5"/>
<text xml:space="preserve" text-anchor="middle" x="292.62" y="-476.45" font-family="Times New Roman,serif" font-size="14.00">START</text>
</g>
<!-- A -->
<g id="node2" class="node">
<title>A</title>
<path fill="lightyellow" stroke="black" d="M344.88,-426.5C344.88,-426.5 240.38,-426.5 240.38,-426.5 234.38,-426.5 228.38,-420.5 228.38,-414.5 228.38,-414.5 228.38,-397.5 228.38,-397.5 228.38,-391.5 234.38,-385.5 240.38,-385.5 240.38,-385.5 344.88,-385.5 344.88,-385.5 350.88,-385.5 356.88,-391.5 356.88,-397.5 356.88,-397.5 356.88,-414.5 356.88,-414.5 356.88,-420.5 350.88,-426.5 344.88,-426.5"/>
<text xml:space="preserve" text-anchor="middle" x="292.62" y="-409.2" font-family="Times New Roman,serif" font-size="14.00">results = [ ]</text>
<text xml:space="preserve" text-anchor="middle" x="292.62" y="-392.7" font-family="Times New Roman,serif" font-size="14.00">running_product = 1</text>
</g>
<!-- S&#45;&gt;A -->
<g id="edge1" class="edge">
<title>S&#45;&gt;A</title>
<path fill="none" stroke="black" d="M292.62,-463.08C292.62,-455.7 292.62,-446.85 292.62,-438.4"/>
<polygon fill="black" stroke="black" points="296.13,-438.4 292.63,-428.4 289.13,-438.4 296.13,-438.4"/>
</g>
<!-- B -->
<g id="node3" class="node">
<title>B</title>
<path fill="lightyellow" stroke="black" d="M307.62,-348.5C307.62,-348.5 277.62,-348.5 277.62,-348.5 271.62,-348.5 265.62,-342.5 265.62,-336.5 265.62,-336.5 265.62,-324.5 265.62,-324.5 265.62,-318.5 271.62,-312.5 277.62,-312.5 277.62,-312.5 307.62,-312.5 307.62,-312.5 313.62,-312.5 319.62,-318.5 319.62,-324.5 319.62,-324.5 319.62,-336.5 319.62,-336.5 319.62,-342.5 313.62,-348.5 307.62,-348.5"/>
<text xml:space="preserve" text-anchor="middle" x="292.62" y="-325.45" font-family="Times New Roman,serif" font-size="14.00">i = 1</text>
</g>
<!-- A&#45;&gt;B -->
<g id="edge2" class="edge">
<title>A&#45;&gt;B</title>
<path fill="none" stroke="black" d="M292.62,-385.3C292.62,-377.56 292.62,-368.51 292.62,-360.07"/>
<polygon fill="black" stroke="black" points="296.13,-360.26 292.63,-350.26 289.13,-360.26 296.13,-360.26"/>
</g>
<!-- C -->
<g id="node4" class="node">
<title>C</title>
<path fill="lightblue" stroke="black" d="M281.35,-271.4C281.35,-271.4 254.44,-261.6 254.44,-261.6 248.8,-259.55 248.8,-255.45 254.44,-253.4 254.44,-253.4 281.35,-243.6 281.35,-243.6 286.99,-241.55 298.26,-241.55 303.9,-243.6 303.9,-243.6 330.81,-253.4 330.81,-253.4 336.45,-255.45 336.45,-259.55 330.81,-261.6 330.81,-261.6 303.9,-271.4 303.9,-271.4 298.26,-273.45 286.99,-273.45 281.35,-271.4"/>
<text xml:space="preserve" text-anchor="middle" x="292.62" y="-252.45" font-family="Times New Roman,serif" font-size="14.00">i ≤ n ?</text>
</g>
<!-- B&#45;&gt;C -->
<g id="edge3" class="edge">
<title>B&#45;&gt;C</title>
<path fill="none" stroke="black" d="M292.62,-312.31C292.62,-304.84 292.62,-295.87 292.62,-287.42"/>
<polygon fill="black" stroke="black" points="296.13,-287.54 292.63,-277.54 289.13,-287.54 296.13,-287.54"/>
</g>
<!-- D -->
<g id="node5" class="node">
<title>D</title>
<path fill="lightyellow" stroke="black" d="M219.25,-187C219.25,-187 12,-187 12,-187 6,-187 0,-181 0,-175 0,-175 0,-163 0,-163 0,-157 6,-151 12,-151 12,-151 219.25,-151 219.25,-151 225.25,-151 231.25,-157 231.25,-163 231.25,-163 231.25,-175 231.25,-175 231.25,-181 225.25,-187 219.25,-187"/>
<text xml:space="preserve" text-anchor="middle" x="115.62" y="-163.95" font-family="Times New Roman,serif" font-size="14.00">running_product = running_product × i</text>
</g>
<!-- C&#45;&gt;D -->
<g id="edge4" class="edge">
<title>C&#45;&gt;D</title>
<path fill="none" stroke="black" d="M272.32,-246.58C245.46,-233.45 197.33,-209.93 161.48,-192.41"/>
<polygon fill="black" stroke="black" points="163.14,-189.32 152.61,-188.08 160.06,-195.61 163.14,-189.32"/>
<text xml:space="preserve" text-anchor="middle" x="230.85" y="-208.2" font-family="Times New Roman,serif" font-size="14.00"> yes</text>
</g>
<!-- G -->
<g id="node8" class="node">
<title>G</title>
<path fill="lightcoral" stroke="black" d="M324.25,-187C324.25,-187 261,-187 261,-187 255,-187 249,-181 249,-175 249,-175 249,-163 249,-163 249,-157 255,-151 261,-151 261,-151 324.25,-151 324.25,-151 330.25,-151 336.25,-157 336.25,-163 336.25,-163 336.25,-175 336.25,-175 336.25,-181 330.25,-187 324.25,-187"/>
<text xml:space="preserve" text-anchor="middle" x="292.62" y="-163.95" font-family="Times New Roman,serif" font-size="14.00">return results</text>
</g>
<!-- C&#45;&gt;G -->
<g id="edge8" class="edge">
<title>C&#45;&gt;G</title>
<path fill="none" stroke="black" d="M292.62,-239C292.62,-227.51 292.62,-212.2 292.62,-198.93"/>
<polygon fill="black" stroke="black" points="296.13,-198.99 292.63,-188.99 289.13,-198.99 296.13,-198.99"/>
<text xml:space="preserve" text-anchor="middle" x="301.25" y="-208.2" font-family="Times New Roman,serif" font-size="14.00"> no</text>
</g>
<!-- E -->
<g id="node6" class="node">
<title>E</title>
<path fill="lightyellow" stroke="black" d="M288,-114C288,-114 163.25,-114 163.25,-114 157.25,-114 151.25,-108 151.25,-102 151.25,-102 151.25,-85 151.25,-85 151.25,-79 157.25,-73 163.25,-73 163.25,-73 288,-73 288,-73 294,-73 300,-79 300,-85 300,-85 300,-102 300,-102 300,-108 294,-114 288,-114"/>
<text xml:space="preserve" text-anchor="middle" x="225.62" y="-96.7" font-family="Times New Roman,serif" font-size="14.00">append running_product</text>
<text xml:space="preserve" text-anchor="middle" x="225.62" y="-80.2" font-family="Times New Roman,serif" font-size="14.00">to results</text>
</g>
<!-- D&#45;&gt;E -->
<g id="edge5" class="edge">
<title>D&#45;&gt;E</title>
<path fill="none" stroke="black" d="M141.69,-150.58C155.04,-141.67 171.55,-130.63 186.4,-120.71"/>
<polygon fill="black" stroke="black" points="188.23,-123.7 194.6,-115.23 184.34,-117.88 188.23,-123.7"/>
</g>
<!-- F -->
<g id="node7" class="node">
<title>F</title>
<path fill="lightyellow" stroke="black" d="M313.5,-36C313.5,-36 275.75,-36 275.75,-36 269.75,-36 263.75,-30 263.75,-24 263.75,-24 263.75,-12 263.75,-12 263.75,-6 269.75,0 275.75,0 275.75,0 313.5,0 313.5,0 319.5,0 325.5,-6 325.5,-12 325.5,-12 325.5,-24 325.5,-24 325.5,-30 319.5,-36 313.5,-36"/>
<text xml:space="preserve" text-anchor="middle" x="294.62" y="-12.95" font-family="Times New Roman,serif" font-size="14.00">i = i + 1</text>
</g>
<!-- E&#45;&gt;F -->
<g id="edge6" class="edge">
<title>E&#45;&gt;F</title>
<path fill="none" stroke="black" d="M244.12,-72.8C252.31,-64.08 262.04,-53.71 270.77,-44.41"/>
<polygon fill="black" stroke="black" points="273.11,-47.04 277.4,-37.35 268,-42.25 273.11,-47.04"/>
</g>
<!-- F&#45;&gt;C -->
<g id="edge7" class="edge">
<title>F&#45;&gt;C</title>
<path fill="none" stroke="black" d="M307.06,-36.28C327.48,-66.86 364.06,-132.42 345.62,-187 339.31,-205.69 325.74,-223.32 313.92,-236.15"/>
<polygon fill="black" stroke="black" points="311.6,-233.5 307.17,-243.13 316.64,-238.37 311.6,-233.5"/>
</g>
</g>
</svg>
