<?xml version="1.0" encoding="UTF-8" standalone="no"?>
<!DOCTYPE svg PUBLIC "-//W3C//DTD SVG 1.1//EN"
 "http://www.w3.org/Graphics/SVG/1.1/DTD/svg11.dtd">
<!-- Generated by graphviz version 14.1.5 (20260411.2331)
 -->
<!-- Pages: 1 -->
<svg width="370pt" height="537pt"
 viewBox="0.00 0.00 370.00 537.00" xmlns="http://www.w3.org/2000/svg" xmlns:xlink="http://www.w3.org/1999/xlink">
<g id="graph0" class="graph" transform="scale(1 1) rotate(0) translate(4 533)">
<polygon fill="white" stroke="none" points="-4,4 -4,-533 366.12,-533 366.12,4 -4,4"/>
<!-- A -->
<g id="node1" class="node">
<title>A</title>
<path fill="lightgreen" stroke="black" d="M173.25,-529C173.25,-529 124.25,-529 124.25,-529 118.25,-529 112.25,-523 112.25,-517 112.25,-517 112.25,-505 112.25,-505 112.25,-499 118.25,-493 124.25,-493 124.25,-493 173.25,-493 173.25,-493 179.25,-493 185.25,-499 185.25,-505 185.25,-505 185.25,-517 185.25,-517 185.25,-523 179.25,-529 173.25,-529"/>
<text xml:space="preserve" text-anchor="middle" x="148.75" y="-505.95" font-family="Times New Roman,serif" font-size="14.00">user_input</text>
</g>
<!-- B -->
<g id="node2" class="node">
<title>B</title>
<path fill="lightyellow" stroke="black" d="M177.38,-456C177.38,-456 120.12,-456 120.12,-456 114.12,-456 108.12,-450 108.12,-444 108.12,-444 108.12,-432 108.12,-432 108.12,-426 114.12,-420 120.12,-420 120.12,-420 177.38,-420 177.38,-420 183.38,-420 189.38,-426 189.38,-432 189.38,-432 189.38,-444 189.38,-444 189.38,-450 183.38,-456 177.38,-456"/>
<text xml:space="preserve" text-anchor="middle" x="148.75" y="-432.95" font-family="Times New Roman,serif" font-size="14.00">lowercase it</text>
</g>
<!-- A&#45;&gt;B -->
<g id="edge1" class="edge">
<title>A&#45;&gt;B</title>
<path fill="none" stroke="black" d="M148.75,-492.81C148.75,-485.23 148.75,-476.1 148.75,-467.54"/>
<polygon fill="black" stroke="black" points="152.25,-467.54 148.75,-457.54 145.25,-467.54 152.25,-467.54"/>
</g>
<!-- C -->
<g id="node3" class="node">
<title>C</title>
<path fill="lightblue" stroke="black" d="M138.24,-377.21C138.24,-377.21 84.76,-347.79 84.76,-347.79 79.51,-344.89 79.51,-339.11 84.76,-336.21 84.76,-336.21 138.24,-306.79 138.24,-306.79 143.49,-303.89 154.01,-303.89 159.26,-306.79 159.26,-306.79 212.74,-336.21 212.74,-336.21 217.99,-339.11 217.99,-344.89 212.74,-347.79 212.74,-347.79 159.26,-377.21 159.26,-377.21 154.01,-380.11 143.49,-380.11 138.24,-377.21"/>
<text xml:space="preserve" text-anchor="middle" x="148.75" y="-345.2" font-family="Times New Roman,serif" font-size="14.00">more rules</text>
<text xml:space="preserve" text-anchor="middle" x="148.75" y="-328.7" font-family="Times New Roman,serif" font-size="14.00">to check?</text>
</g>
<!-- B&#45;&gt;C -->
<g id="edge2" class="edge">
<title>B&#45;&gt;C</title>
<path fill="none" stroke="black" d="M148.75,-419.76C148.75,-412.6 148.75,-403.89 148.75,-394.93"/>
<polygon fill="black" stroke="black" points="152.25,-395.06 148.75,-385.06 145.25,-395.06 152.25,-395.06"/>
</g>
<!-- D -->
<g id="node4" class="node">
<title>D</title>
<path fill="lightblue" stroke="black" d="M92.59,-244.09C92.59,-244.09 11.16,-211.91 11.16,-211.91 5.58,-209.71 5.58,-205.29 11.16,-203.09 11.16,-203.09 92.59,-170.91 92.59,-170.91 98.17,-168.71 109.33,-168.71 114.91,-170.91 114.91,-170.91 196.34,-203.09 196.34,-203.09 201.92,-205.29 201.92,-209.71 196.34,-211.91 196.34,-211.91 114.91,-244.09 114.91,-244.09 109.33,-246.29 98.17,-246.29 92.59,-244.09"/>
<text xml:space="preserve" text-anchor="middle" x="103.75" y="-210.7" font-family="Times New Roman,serif" font-size="14.00">does trigger</text>
<text xml:space="preserve" text-anchor="middle" x="103.75" y="-194.2" font-family="Times New Roman,serif" font-size="14.00">appear in input?</text>
</g>
<!-- C&#45;&gt;D -->
<g id="edge3" class="edge">
<title>C&#45;&gt;D</title>
<path fill="none" stroke="black" d="M123.23,-314.48C115.93,-305.24 108.9,-294.33 105,-283 102.34,-275.26 100.91,-266.8 100.28,-258.45"/>
<polygon fill="black" stroke="black" points="103.79,-258.57 99.92,-248.71 96.79,-258.83 103.79,-258.57"/>
<text xml:space="preserve" text-anchor="middle" x="115.88" y="-269.7" font-family="Times New Roman,serif" font-size="14.00"> yes</text>
</g>
<!-- G -->
<g id="node7" class="node">
<title>G</title>
<path fill="lightcoral" stroke="black" d="M350.12,-225.5C350.12,-225.5 237.38,-225.5 237.38,-225.5 231.38,-225.5 225.38,-219.5 225.38,-213.5 225.38,-213.5 225.38,-201.5 225.38,-201.5 225.38,-195.5 231.38,-189.5 237.38,-189.5 237.38,-189.5 350.12,-189.5 350.12,-189.5 356.12,-189.5 362.12,-195.5 362.12,-201.5 362.12,-201.5 362.12,-213.5 362.12,-213.5 362.12,-219.5 356.12,-225.5 350.12,-225.5"/>
<text xml:space="preserve" text-anchor="middle" x="293.75" y="-202.45" font-family="Times New Roman,serif" font-size="14.00">return &quot;Please go on.&quot;</text>
</g>
<!-- C&#45;&gt;G -->
<g id="edge4" class="edge">
<title>C&#45;&gt;G</title>
<path fill="none" stroke="black" d="M176.36,-315.77C202.35,-292.02 241.02,-256.68 266.79,-233.14"/>
<polygon fill="black" stroke="black" points="268.86,-235.99 273.88,-226.66 264.14,-230.82 268.86,-235.99"/>
<text xml:space="preserve" text-anchor="middle" x="238.56" y="-269.7" font-family="Times New Roman,serif" font-size="14.00"> no</text>
</g>
<!-- D&#45;&gt;C -->
<g id="edge6" class="edge">
<title>D&#45;&gt;C</title>
<path fill="none" stroke="black" d="M118.13,-243.27C121.11,-250.88 124.13,-258.92 126.75,-266.5 129.91,-275.66 133.03,-285.55 135.89,-295.04"/>
<polygon fill="black" stroke="black" points="132.48,-295.87 138.67,-304.47 139.2,-293.89 132.48,-295.87"/>
<text xml:space="preserve" text-anchor="middle" x="140.7" y="-269.7" font-family="Times New Roman,serif" font-size="14.00"> no</text>
</g>
<!-- E -->
<g id="node5" class="node">
<title>E</title>
<path fill="lightyellow" stroke="black" d="M164.25,-114C164.25,-114 43.25,-114 43.25,-114 37.25,-114 31.25,-108 31.25,-102 31.25,-102 31.25,-85 31.25,-85 31.25,-79 37.25,-73 43.25,-73 43.25,-73 164.25,-73 164.25,-73 170.25,-73 176.25,-79 176.25,-85 176.25,-85 176.25,-102 176.25,-102 176.25,-108 170.25,-114 164.25,-114"/>
<text xml:space="preserve" text-anchor="middle" x="103.75" y="-96.7" font-family="Times New Roman,serif" font-size="14.00">extract text after trigger</text>
<text xml:space="preserve" text-anchor="middle" x="103.75" y="-80.2" font-family="Times New Roman,serif" font-size="14.00">fill into template</text>
</g>
<!-- D&#45;&gt;E -->
<g id="edge5" class="edge">
<title>D&#45;&gt;E</title>
<path fill="none" stroke="black" d="M103.75,-166.07C103.75,-152.77 103.75,-138.2 103.75,-125.7"/>
<polygon fill="black" stroke="black" points="107.25,-125.97 103.75,-115.97 100.25,-125.97 107.25,-125.97"/>
<text xml:space="preserve" text-anchor="middle" x="114.62" y="-135.2" font-family="Times New Roman,serif" font-size="14.00"> yes</text>
</g>
<!-- F -->
<g id="node6" class="node">
<title>F</title>
<path fill="lightcoral" stroke="black" d="M141.38,-36C141.38,-36 66.12,-36 66.12,-36 60.12,-36 54.12,-30 54.12,-24 54.12,-24 54.12,-12 54.12,-12 54.12,-6 60.12,0 66.12,0 66.12,0 141.38,0 141.38,0 147.38,0 153.38,-6 153.38,-12 153.38,-12 153.38,-24 153.38,-24 153.38,-30 147.38,-36 141.38,-36"/>
<text xml:space="preserve" text-anchor="middle" x="103.75" y="-12.95" font-family="Times New Roman,serif" font-size="14.00">return response</text>
</g>
<!-- E&#45;&gt;F -->
<g id="edge7" class="edge">
<title>E&#45;&gt;F</title>
<path fill="none" stroke="black" d="M103.75,-72.8C103.75,-65.06 103.75,-56.01 103.75,-47.57"/>
<polygon fill="black" stroke="black" points="107.25,-47.76 103.75,-37.76 100.25,-47.76 107.25,-47.76"/>
</g>
</g>
</svg>
