<?xml version="1.0" encoding="UTF-8" standalone="no"?>
<!DOCTYPE svg PUBLIC "-//W3C//DTD SVG 1.1//EN"
 "http://www.w3.org/Graphics/SVG/1.1/DTD/svg11.dtd">
<!-- Generated by graphviz version 2.43.0 (0)
 -->
<!-- Title: %3 Pages: 1 -->
<svg width="874pt" height="130pt"
 viewBox="0.00 0.00 874.00 130.00" xmlns="http://www.w3.org/2000/svg" xmlns:xlink="http://www.w3.org/1999/xlink">
<g id="graph0" class="graph" transform="scale(1 1) rotate(0) translate(4 126)">
<title>%3</title>
<polygon fill="white" stroke="transparent" points="-4,4 -4,-126 870,-126 870,4 -4,4"/>
<!-- OpCards -->
<g id="node1" class="node">
<title>OpCards</title>
<path fill="lightblue" stroke="black" d="M128,-111C128,-111 12,-111 12,-111 6,-111 0,-105 0,-99 0,-99 0,-85 0,-85 0,-79 6,-73 12,-73 12,-73 128,-73 128,-73 134,-73 140,-79 140,-85 140,-85 140,-99 140,-99 140,-105 134,-111 128,-111"/>
<text text-anchor="middle" x="70" y="-95.8" font-family="Times,serif" font-size="14.00">Operation Cards</text>
<text text-anchor="middle" x="70" y="-80.8" font-family="Times,serif" font-size="14.00">(Program Instructions)</text>
</g>
<!-- Mill -->
<g id="node4" class="node">
<title>Mill</title>
<path fill="lightcoral" stroke="black" d="M364,-111C364,-111 266,-111 266,-111 260,-111 254,-105 254,-99 254,-99 254,-85 254,-85 254,-79 260,-73 266,-73 266,-73 364,-73 364,-73 370,-73 376,-79 376,-85 376,-85 376,-99 376,-99 376,-105 370,-111 364,-111"/>
<text text-anchor="middle" x="315" y="-95.8" font-family="Times,serif" font-size="14.00">The Mill</text>
<text text-anchor="middle" x="315" y="-80.8" font-family="Times,serif" font-size="14.00">(Arithmetic / CPU)</text>
</g>
<!-- OpCards&#45;&gt;Mill -->
<g id="edge1" class="edge">
<title>OpCards&#45;&gt;Mill</title>
<path fill="none" stroke="black" d="M140.31,-92C172.59,-92 210.93,-92 243.37,-92"/>
<polygon fill="black" stroke="black" points="243.68,-95.5 253.68,-92 243.68,-88.5 243.68,-95.5"/>
<text text-anchor="middle" x="197" y="-110.8" font-family="Times,serif" font-size="14.00"> Tells the Mill</text>
<text text-anchor="middle" x="197" y="-95.8" font-family="Times,serif" font-size="14.00">what to do</text>
</g>
<!-- VarCards -->
<g id="node2" class="node">
<title>VarCards</title>
<path fill="lightblue" stroke="black" d="M351.5,-38C351.5,-38 278.5,-38 278.5,-38 272.5,-38 266.5,-32 266.5,-26 266.5,-26 266.5,-12 266.5,-12 266.5,-6 272.5,0 278.5,0 278.5,0 351.5,0 351.5,0 357.5,0 363.5,-6 363.5,-12 363.5,-12 363.5,-26 363.5,-26 363.5,-32 357.5,-38 351.5,-38"/>
<text text-anchor="middle" x="315" y="-22.8" font-family="Times,serif" font-size="14.00">Variable Cards</text>
<text text-anchor="middle" x="315" y="-7.8" font-family="Times,serif" font-size="14.00">(Initial Data)</text>
</g>
<!-- Store -->
<g id="node3" class="node">
<title>Store</title>
<path fill="lightgreen" stroke="black" d="M603,-76C603,-76 493,-76 493,-76 487,-76 481,-70 481,-64 481,-64 481,-50 481,-50 481,-44 487,-38 493,-38 493,-38 603,-38 603,-38 609,-38 615,-44 615,-50 615,-50 615,-64 615,-64 615,-70 609,-76 603,-76"/>
<text text-anchor="middle" x="548" y="-60.8" font-family="Times,serif" font-size="14.00">The Store</text>
<text text-anchor="middle" x="548" y="-45.8" font-family="Times,serif" font-size="14.00">(Memory / Variables)</text>
</g>
<!-- VarCards&#45;&gt;Store -->
<g id="edge2" class="edge">
<title>VarCards&#45;&gt;Store</title>
<path fill="none" stroke="black" d="M363.64,-21.32C392.57,-23.28 430.13,-26.79 463,-33 466.91,-33.74 470.91,-34.58 474.92,-35.49"/>
<polygon fill="black" stroke="black" points="474.38,-38.96 484.92,-37.89 476.01,-32.15 474.38,-38.96"/>
<text text-anchor="middle" x="428.5" y="-36.8" font-family="Times,serif" font-size="14.00"> Loads data</text>
</g>
<!-- Store&#45;&gt;Mill -->
<g id="edge3" class="edge">
<title>Store&#45;&gt;Mill</title>
<path fill="none" stroke="black" d="M480.86,-51.65C453.68,-50.95 422.07,-52.05 394,-58 382.94,-60.34 371.51,-64.33 360.94,-68.76"/>
<polygon fill="black" stroke="black" points="359.23,-65.69 351.49,-72.92 362.06,-72.09 359.23,-65.69"/>
<text text-anchor="middle" x="428.5" y="-76.8" font-family="Times,serif" font-size="14.00"> Numbers</text>
<text text-anchor="middle" x="428.5" y="-61.8" font-family="Times,serif" font-size="14.00">to calculate</text>
</g>
<!-- Output -->
<g id="node5" class="node">
<title>Output</title>
<path fill="plum" stroke="black" d="M854,-76C854,-76 742,-76 742,-76 736,-76 730,-70 730,-64 730,-64 730,-50 730,-50 730,-44 736,-38 742,-38 742,-38 854,-38 854,-38 860,-38 866,-44 866,-50 866,-50 866,-64 866,-64 866,-70 860,-76 854,-76"/>
<text text-anchor="middle" x="798" y="-60.8" font-family="Times,serif" font-size="14.00">Printer &amp; Card Punch</text>
<text text-anchor="middle" x="798" y="-45.8" font-family="Times,serif" font-size="14.00">(Results)</text>
</g>
<!-- Store&#45;&gt;Output -->
<g id="edge5" class="edge">
<title>Store&#45;&gt;Output</title>
<path fill="none" stroke="black" d="M615.13,-57C647.25,-57 686.05,-57 719.54,-57"/>
<polygon fill="black" stroke="black" points="719.76,-60.5 729.76,-57 719.76,-53.5 719.76,-60.5"/>
<text text-anchor="middle" x="672.5" y="-60.8" font-family="Times,serif" font-size="14.00"> Final answers</text>
</g>
<!-- Mill&#45;&gt;Store -->
<g id="edge4" class="edge">
<title>Mill&#45;&gt;Store</title>
<path fill="none" stroke="black" d="M376.2,-94.76C402.99,-94.87 434.8,-93.43 463,-88 473.29,-86.02 484,-82.93 494.17,-79.45"/>
<polygon fill="black" stroke="black" points="495.51,-82.69 503.74,-76.02 493.15,-76.1 495.51,-82.69"/>
<text text-anchor="middle" x="428.5" y="-98.8" font-family="Times,serif" font-size="14.00"> New results</text>
</g>
</g>
</svg>
