<?xml version="1.0" encoding="UTF-8" standalone="no"?>
<!DOCTYPE svg PUBLIC "-//W3C//DTD SVG 1.1//EN"
 "http://www.w3.org/Graphics/SVG/1.1/DTD/svg11.dtd">
<!-- Generated by graphviz version 14.1.5 (20260411.2331)
 -->
<!-- Pages: 1 -->
<svg width="888pt" height="188pt"
 viewBox="0.00 0.00 888.00 188.00" xmlns="http://www.w3.org/2000/svg" xmlns:xlink="http://www.w3.org/1999/xlink">
<g id="graph0" class="graph" transform="scale(1 1) rotate(0) translate(4 184)">
<polygon fill="white" stroke="none" points="-4,4 -4,-184 884.25,-184 884.25,4 -4,4"/>
<g id="clust1" class="cluster">
<title>cluster_a</title>
<path fill="none" stroke="#a5d6a7" d="M20,-8C20,-8 674.25,-8 674.25,-8 680.25,-8 686.25,-14 686.25,-20 686.25,-20 686.25,-76 686.25,-76 686.25,-82 680.25,-88 674.25,-88 674.25,-88 20,-88 20,-88 14,-88 8,-82 8,-76 8,-76 8,-20 8,-20 8,-14 14,-8 20,-8"/>
<text xml:space="preserve" text-anchor="middle" x="347.12" y="-70.7" font-family="Helvetica,sans-Serif" font-size="14.00">Agile: many small loops (sprints)</text>
</g>
<g id="clust2" class="cluster">
<title>cluster_w</title>
<path fill="none" stroke="#90caf9" d="M49.25,-96C49.25,-96 860.25,-96 860.25,-96 866.25,-96 872.25,-102 872.25,-108 872.25,-108 872.25,-160 872.25,-160 872.25,-166 866.25,-172 860.25,-172 860.25,-172 49.25,-172 49.25,-172 43.25,-172 37.25,-166 37.25,-160 37.25,-160 37.25,-108 37.25,-108 37.25,-102 43.25,-96 49.25,-96"/>
<text xml:space="preserve" text-anchor="middle" x="454.75" y="-154.7" font-family="Helvetica,sans-Serif" font-size="14.00">Waterfall: one long pass</text>
</g>
<!-- s1 -->
<g id="node1" class="node">
<title>s1</title>
<path fill="#c8e6c9" stroke="black" d="M163.25,-55.75C163.25,-55.75 28,-55.75 28,-55.75 22,-55.75 16,-49.75 16,-43.75 16,-43.75 16,-28.25 16,-28.25 16,-22.25 22,-16.25 28,-16.25 28,-16.25 163.25,-16.25 163.25,-16.25 169.25,-16.25 175.25,-22.25 175.25,-28.25 175.25,-28.25 175.25,-43.75 175.25,-43.75 175.25,-49.75 169.25,-55.75 163.25,-55.75"/>
<text xml:space="preserve" text-anchor="middle" x="95.62" y="-38.45" font-family="Helvetica,sans-Serif" font-size="14.00">Sprint 1</text>
<text xml:space="preserve" text-anchor="middle" x="95.62" y="-22.7" font-family="Helvetica,sans-Serif" font-size="14.00">plan · build · test · show</text>
</g>
<!-- s2 -->
<g id="node2" class="node">
<title>s2</title>
<path fill="#c8e6c9" stroke="black" d="M414.75,-55.75C414.75,-55.75 279.5,-55.75 279.5,-55.75 273.5,-55.75 267.5,-49.75 267.5,-43.75 267.5,-43.75 267.5,-28.25 267.5,-28.25 267.5,-22.25 273.5,-16.25 279.5,-16.25 279.5,-16.25 414.75,-16.25 414.75,-16.25 420.75,-16.25 426.75,-22.25 426.75,-28.25 426.75,-28.25 426.75,-43.75 426.75,-43.75 426.75,-49.75 420.75,-55.75 414.75,-55.75"/>
<text xml:space="preserve" text-anchor="middle" x="347.12" y="-38.45" font-family="Helvetica,sans-Serif" font-size="14.00">Sprint 2</text>
<text xml:space="preserve" text-anchor="middle" x="347.12" y="-22.7" font-family="Helvetica,sans-Serif" font-size="14.00">plan · build · test · show</text>
</g>
<!-- s1&#45;&gt;s2 -->
<g id="edge1" class="edge">
<title>s1&#45;&gt;s2</title>
<path fill="none" stroke="black" d="M175.57,-36C201.06,-36 229.52,-36 255.77,-36"/>
<polygon fill="black" stroke="black" points="255.75,-39.5 265.75,-36 255.75,-32.5 255.75,-39.5"/>
<text xml:space="preserve" text-anchor="middle" x="221.38" y="-39.2" font-family="Times New Roman,serif" font-size="14.00"> &#160;feedback</text>
</g>
<!-- s3 -->
<g id="node3" class="node">
<title>s3</title>
<path fill="#c8e6c9" stroke="black" d="M666.25,-55.75C666.25,-55.75 531,-55.75 531,-55.75 525,-55.75 519,-49.75 519,-43.75 519,-43.75 519,-28.25 519,-28.25 519,-22.25 525,-16.25 531,-16.25 531,-16.25 666.25,-16.25 666.25,-16.25 672.25,-16.25 678.25,-22.25 678.25,-28.25 678.25,-28.25 678.25,-43.75 678.25,-43.75 678.25,-49.75 672.25,-55.75 666.25,-55.75"/>
<text xml:space="preserve" text-anchor="middle" x="598.62" y="-38.45" font-family="Helvetica,sans-Serif" font-size="14.00">Sprint 3</text>
<text xml:space="preserve" text-anchor="middle" x="598.62" y="-22.7" font-family="Helvetica,sans-Serif" font-size="14.00">plan · build · test · show</text>
</g>
<!-- s2&#45;&gt;s3 -->
<g id="edge2" class="edge">
<title>s2&#45;&gt;s3</title>
<path fill="none" stroke="black" d="M427.07,-36C452.56,-36 481.02,-36 507.27,-36"/>
<polygon fill="black" stroke="black" points="507.25,-39.5 517.25,-36 507.25,-32.5 507.25,-39.5"/>
<text xml:space="preserve" text-anchor="middle" x="472.88" y="-39.2" font-family="Times New Roman,serif" font-size="14.00"> &#160;feedback</text>
</g>
<!-- w_Requirements -->
<g id="node4" class="node">
<title>w_Requirements</title>
<path fill="#e3f2fd" stroke="black" d="M134,-140C134,-140 57.25,-140 57.25,-140 51.25,-140 45.25,-134 45.25,-128 45.25,-128 45.25,-116 45.25,-116 45.25,-110 51.25,-104 57.25,-104 57.25,-104 134,-104 134,-104 140,-104 146,-110 146,-116 146,-116 146,-128 146,-128 146,-134 140,-140 134,-140"/>
<text xml:space="preserve" text-anchor="middle" x="95.62" y="-116.58" font-family="Helvetica,sans-Serif" font-size="14.00">Requirements</text>
</g>
<!-- w_Design -->
<g id="node5" class="node">
<title>w_Design</title>
<path fill="#e3f2fd" stroke="black" d="M364.12,-140C364.12,-140 330.12,-140 330.12,-140 324.12,-140 318.12,-134 318.12,-128 318.12,-128 318.12,-116 318.12,-116 318.12,-110 324.12,-104 330.12,-104 330.12,-104 364.12,-104 364.12,-104 370.12,-104 376.12,-110 376.12,-116 376.12,-116 376.12,-128 376.12,-128 376.12,-134 370.12,-140 364.12,-140"/>
<text xml:space="preserve" text-anchor="middle" x="347.12" y="-116.58" font-family="Helvetica,sans-Serif" font-size="14.00">Design</text>
</g>
<!-- w_Requirements&#45;&gt;w_Design -->
<g id="edge3" class="edge">
<title>w_Requirements&#45;&gt;w_Design</title>
<path fill="none" stroke="black" d="M146.22,-122C193.34,-122 263.28,-122 306.71,-122"/>
<polygon fill="black" stroke="black" points="306.44,-125.5 316.44,-122 306.44,-118.5 306.44,-125.5"/>
</g>
<!-- w_Build -->
<g id="node6" class="node">
<title>w_Build</title>
<path fill="#e3f2fd" stroke="black" d="M613.62,-140C613.62,-140 583.62,-140 583.62,-140 577.62,-140 571.62,-134 571.62,-128 571.62,-128 571.62,-116 571.62,-116 571.62,-110 577.62,-104 583.62,-104 583.62,-104 613.62,-104 613.62,-104 619.62,-104 625.62,-110 625.62,-116 625.62,-116 625.62,-128 625.62,-128 625.62,-134 619.62,-140 613.62,-140"/>
<text xml:space="preserve" text-anchor="middle" x="598.62" y="-116.58" font-family="Helvetica,sans-Serif" font-size="14.00">Build</text>
</g>
<!-- w_Design&#45;&gt;w_Build -->
<g id="edge4" class="edge">
<title>w_Design&#45;&gt;w_Build</title>
<path fill="none" stroke="black" d="M376.26,-122C421.33,-122 509.75,-122 560.13,-122"/>
<polygon fill="black" stroke="black" points="559.96,-125.5 569.96,-122 559.96,-118.5 559.96,-125.5"/>
</g>
<!-- w_Test -->
<g id="node7" class="node">
<title>w_Test</title>
<path fill="#e3f2fd" stroke="black" d="M757.25,-140C757.25,-140 727.25,-140 727.25,-140 721.25,-140 715.25,-134 715.25,-128 715.25,-128 715.25,-116 715.25,-116 715.25,-110 721.25,-104 727.25,-104 727.25,-104 757.25,-104 757.25,-104 763.25,-104 769.25,-110 769.25,-116 769.25,-116 769.25,-128 769.25,-128 769.25,-134 763.25,-140 757.25,-140"/>
<text xml:space="preserve" text-anchor="middle" x="742.25" y="-116.58" font-family="Helvetica,sans-Serif" font-size="14.00">Test</text>
</g>
<!-- w_Build&#45;&gt;w_Test -->
<g id="edge5" class="edge">
<title>w_Build&#45;&gt;w_Test</title>
<path fill="none" stroke="black" d="M625.93,-122C647.79,-122 679.17,-122 703.68,-122"/>
<polygon fill="black" stroke="black" points="703.57,-125.5 713.57,-122 703.57,-118.5 703.57,-125.5"/>
</g>
<!-- w_Deploy -->
<g id="node8" class="node">
<title>w_Deploy</title>
<path fill="#e3f2fd" stroke="black" d="M852.25,-140C852.25,-140 818.25,-140 818.25,-140 812.25,-140 806.25,-134 806.25,-128 806.25,-128 806.25,-116 806.25,-116 806.25,-110 812.25,-104 818.25,-104 818.25,-104 852.25,-104 852.25,-104 858.25,-104 864.25,-110 864.25,-116 864.25,-116 864.25,-128 864.25,-128 864.25,-134 858.25,-140 852.25,-140"/>
<text xml:space="preserve" text-anchor="middle" x="835.25" y="-116.58" font-family="Helvetica,sans-Serif" font-size="14.00">Deploy</text>
</g>
<!-- w_Test&#45;&gt;w_Deploy -->
<g id="edge6" class="edge">
<title>w_Test&#45;&gt;w_Deploy</title>
<path fill="none" stroke="black" d="M769.57,-122C777.37,-122 786.08,-122 794.52,-122"/>
<polygon fill="black" stroke="black" points="794.25,-125.5 804.25,-122 794.25,-118.5 794.25,-125.5"/>
</g>
</g>
</svg>
