<?xml version="1.0" encoding="UTF-8" standalone="no"?>
<!DOCTYPE svg PUBLIC "-//W3C//DTD SVG 1.1//EN"
 "http://www.w3.org/Graphics/SVG/1.1/DTD/svg11.dtd">
<!-- Generated by graphviz version 14.1.5 (20260411.2331)
 -->
<!-- Pages: 1 -->
<svg width="757pt" height="72pt"
 viewBox="0.00 0.00 757.00 72.00" xmlns="http://www.w3.org/2000/svg" xmlns:xlink="http://www.w3.org/1999/xlink">
<g id="graph0" class="graph" transform="scale(1 1) rotate(0) translate(4 68.33)">
<polygon fill="white" stroke="none" points="-4,4 -4,-68.33 753.25,-68.33 753.25,4 -4,4"/>
<!-- R -->
<g id="node1" class="node">
<title>R</title>
<path fill="#f3e5f5" stroke="black" d="M145,-64.33C145,-64.33 12,-64.33 12,-64.33 6,-64.33 0,-58.33 0,-52.33 0,-52.33 0,-36.83 0,-36.83 0,-30.83 6,-24.83 12,-24.83 12,-24.83 145,-24.83 145,-24.83 151,-24.83 157,-30.83 157,-36.83 157,-36.83 157,-52.33 157,-52.33 157,-58.33 151,-64.33 145,-64.33"/>
<text xml:space="preserve" text-anchor="middle" x="78.5" y="-47.03" font-family="Helvetica,sans-Serif" font-size="14.00">Requirement</text>
<text xml:space="preserve" text-anchor="middle" x="78.5" y="-31.28" font-family="Helvetica,sans-Serif" font-size="14.00">&#39;doses round to 0.1 mg&#39;</text>
</g>
<!-- T -->
<g id="node2" class="node">
<title>T</title>
<path fill="#f3e5f5" stroke="black" d="M353.25,-64.33C353.25,-64.33 206,-64.33 206,-64.33 200,-64.33 194,-58.33 194,-52.33 194,-52.33 194,-36.83 194,-36.83 194,-30.83 200,-24.83 206,-24.83 206,-24.83 353.25,-24.83 353.25,-24.83 359.25,-24.83 365.25,-30.83 365.25,-36.83 365.25,-36.83 365.25,-52.33 365.25,-52.33 365.25,-58.33 359.25,-64.33 353.25,-64.33"/>
<text xml:space="preserve" text-anchor="middle" x="279.62" y="-47.03" font-family="Helvetica,sans-Serif" font-size="14.00">Write a test</text>
<text xml:space="preserve" text-anchor="middle" x="279.62" y="-31.28" font-family="Helvetica,sans-Serif" font-size="14.00">&#39;round_dose(0.46) == 0.5&#39;</text>
</g>
<!-- R&#45;&gt;T -->
<g id="edge1" class="edge">
<title>R&#45;&gt;T</title>
<path fill="none" stroke="black" d="M157.34,-44.58C165.52,-44.58 173.9,-44.58 182.25,-44.58"/>
<polygon fill="black" stroke="black" points="182.08,-48.08 192.08,-44.58 182.08,-41.08 182.08,-48.08"/>
</g>
<!-- C -->
<g id="node3" class="node">
<title>C</title>
<path fill="#f3e5f5" stroke="black" d="M495.5,-62.58C495.5,-62.58 414.25,-62.58 414.25,-62.58 408.25,-62.58 402.25,-56.58 402.25,-50.58 402.25,-50.58 402.25,-38.58 402.25,-38.58 402.25,-32.58 408.25,-26.58 414.25,-26.58 414.25,-26.58 495.5,-26.58 495.5,-26.58 501.5,-26.58 507.5,-32.58 507.5,-38.58 507.5,-38.58 507.5,-50.58 507.5,-50.58 507.5,-56.58 501.5,-62.58 495.5,-62.58"/>
<text xml:space="preserve" text-anchor="middle" x="454.88" y="-39.16" font-family="Helvetica,sans-Serif" font-size="14.00">Write / fix code</text>
</g>
<!-- T&#45;&gt;C -->
<g id="edge2" class="edge">
<title>T&#45;&gt;C</title>
<path fill="none" stroke="black" d="M365.73,-44.58C374.01,-44.58 382.3,-44.58 390.32,-44.58"/>
<polygon fill="black" stroke="black" points="390.31,-48.08 400.31,-44.58 390.31,-41.08 390.31,-48.08"/>
</g>
<!-- P -->
<g id="node4" class="node">
<title>P</title>
<path fill="#c8e6c9" stroke="black" d="M737.25,-62.58C737.25,-62.58 650.75,-62.58 650.75,-62.58 644.75,-62.58 638.75,-56.58 638.75,-50.58 638.75,-50.58 638.75,-38.58 638.75,-38.58 638.75,-32.58 644.75,-26.58 650.75,-26.58 650.75,-26.58 737.25,-26.58 737.25,-26.58 743.25,-26.58 749.25,-32.58 749.25,-38.58 749.25,-38.58 749.25,-50.58 749.25,-50.58 749.25,-56.58 743.25,-62.58 737.25,-62.58"/>
<text xml:space="preserve" text-anchor="middle" x="694" y="-39.16" font-family="Helvetica,sans-Serif" font-size="14.00">Test passes ✅</text>
</g>
<!-- C&#45;&gt;P -->
<g id="edge3" class="edge">
<title>C&#45;&gt;P</title>
<path fill="none" stroke="black" d="M507.91,-44.58C543,-44.58 589.58,-44.58 627.24,-44.58"/>
<polygon fill="black" stroke="black" points="627.1,-48.08 637.1,-44.58 627.1,-41.08 627.1,-48.08"/>
</g>
<!-- P&#45;&gt;C -->
<g id="edge4" class="edge">
<title>P&#45;&gt;C</title>
<path fill="none" stroke="black" stroke-dasharray="5,2" d="M664.7,-26.14C651.84,-18.82 636.09,-11.28 620.75,-7.58 579.6,2.34 566.58,2.66 525.5,-7.58 514.34,-10.36 503.01,-15.3 492.82,-20.68"/>
<polygon fill="black" stroke="black" points="491.4,-17.47 484.38,-25.41 494.82,-23.58 491.4,-17.47"/>
<text xml:space="preserve" text-anchor="middle" x="573.12" y="-27.28" font-family="Times New Roman,serif" font-size="14.00"> &#160;regression!</text>
<text xml:space="preserve" text-anchor="middle" x="573.12" y="-10.78" font-family="Times New Roman,serif" font-size="14.00"> &#160;(test fails again)</text>
</g>
</g>
</svg>
