<?xml version="1.0" encoding="UTF-8" standalone="no"?>
<!DOCTYPE svg PUBLIC "-//W3C//DTD SVG 1.1//EN"
 "http://www.w3.org/Graphics/SVG/1.1/DTD/svg11.dtd">
<!-- Generated by graphviz version 14.1.5 (20260411.2331)
 -->
<!-- Pages: 1 -->
<svg width="627pt" height="100pt"
 viewBox="0.00 0.00 627.00 100.00" xmlns="http://www.w3.org/2000/svg" xmlns:xlink="http://www.w3.org/1999/xlink">
<g id="graph0" class="graph" transform="scale(1 1) rotate(0) translate(4 96)">
<polygon fill="white" stroke="none" points="-4,4 -4,-96 623,-96 623,4 -4,4"/>
<!-- m1 -->
<g id="node1" class="node">
<title>m1</title>
<ellipse fill="#bbdefb" stroke="black" cx="155" cy="-19" rx="9" ry="9"/>
</g>
<!-- m2 -->
<g id="node2" class="node">
<title>m2</title>
<ellipse fill="#bbdefb" stroke="black" cx="230" cy="-19" rx="9" ry="9"/>
</g>
<!-- m1&#45;&gt;m2 -->
<g id="edge1" class="edge">
<title>m1&#45;&gt;m2</title>
<path fill="none" stroke="black" d="M164.37,-19C175.27,-19 194.63,-19 209.34,-19"/>
<polygon fill="black" stroke="black" points="209.21,-22.5 219.21,-19 209.21,-15.5 209.21,-22.5"/>
</g>
<!-- m3 -->
<g id="node3" class="node">
<title>m3</title>
<ellipse fill="#bbdefb" stroke="black" cx="384.25" cy="-9" rx="9" ry="9"/>
</g>
<!-- m2&#45;&gt;m3 -->
<g id="edge2" class="edge">
<title>m2&#45;&gt;m3</title>
<path fill="none" stroke="black" d="M239.19,-18.46C262.52,-16.93 329.87,-12.51 363.57,-10.29"/>
<polygon fill="black" stroke="black" points="363.76,-13.79 373.51,-9.64 363.31,-6.8 363.76,-13.79"/>
</g>
<!-- f1 -->
<g id="node5" class="node">
<title>f1</title>
<ellipse fill="#c8e6c9" stroke="black" cx="348.25" cy="-46" rx="9" ry="9"/>
</g>
<!-- m2&#45;&gt;f1 -->
<g id="edge4" class="edge">
<title>m2&#45;&gt;f1</title>
<path fill="none" stroke="black" d="M238.99,-20.86C257.24,-25.09 302.4,-35.58 328.26,-41.59"/>
<polygon fill="black" stroke="black" points="327.2,-44.94 337.73,-43.79 328.78,-38.12 327.2,-44.94"/>
<text xml:space="preserve" text-anchor="middle" x="299.12" y="-42.68" font-family="Times New Roman,serif" font-size="14.00"> &#160;branch</text>
</g>
<!-- m4 -->
<g id="node4" class="node">
<title>m4</title>
<ellipse fill="#bbdefb" stroke="black" cx="610" cy="-25" rx="9" ry="9"/>
</g>
<!-- m3&#45;&gt;m4 -->
<g id="edge3" class="edge">
<title>m3&#45;&gt;m4</title>
<path fill="none" stroke="black" d="M393.48,-9.59C425.55,-11.88 542.71,-20.26 589.51,-23.61"/>
<polygon fill="black" stroke="black" points="589.2,-27.09 599.42,-24.32 589.7,-20.11 589.2,-27.09"/>
</g>
<!-- f2 -->
<g id="node6" class="node">
<title>f2</title>
<ellipse fill="#c8e6c9" stroke="black" cx="420.25" cy="-46" rx="9" ry="9"/>
</g>
<!-- f1&#45;&gt;f2 -->
<g id="edge5" class="edge">
<title>f1&#45;&gt;f2</title>
<path fill="none" stroke="black" d="M357.55,-46C367.87,-46 385.8,-46 399.68,-46"/>
<polygon fill="black" stroke="black" points="399.44,-49.5 409.44,-46 399.44,-42.5 399.44,-49.5"/>
</g>
<!-- f2&#45;&gt;m4 -->
<g id="edge6" class="edge">
<title>f2&#45;&gt;m4</title>
<path fill="none" stroke="black" stroke-dasharray="5,2" d="M429.56,-45.07C457.55,-41.94 548.88,-31.72 589.37,-27.2"/>
<polygon fill="black" stroke="black" points="589.73,-30.68 599.28,-26.09 588.96,-23.72 589.73,-30.68"/>
<text xml:space="preserve" text-anchor="middle" x="515.12" y="-46.15" font-family="Times New Roman,serif" font-size="14.00"> &#160;PR &#45;&gt; review &#45;&gt; merge</text>
</g>
<!-- mainlbl -->
<g id="node7" class="node">
<title>mainlbl</title>
<polygon fill="white" stroke="none" points="109,-37 0,-37 0,-1 109,-1 109,-37"/>
<text xml:space="preserve" text-anchor="middle" x="54.5" y="-13.57" font-family="Helvetica,sans-Serif" font-size="14.00">main (shipping)</text>
</g>
<!-- mainlbl&#45;&gt;m1 -->
<!-- featlbl -->
<g id="node8" class="node">
<title>featlbl</title>
<polygon fill="white" stroke="none" points="259,-92 201,-92 201,-56 259,-56 259,-92"/>
<text xml:space="preserve" text-anchor="middle" x="230" y="-68.58" font-family="Helvetica,sans-Serif" font-size="14.00">feature</text>
</g>
<!-- featlbl&#45;&gt;f1 -->
</g>
</svg>
