<?xml version="1.0" encoding="UTF-8" standalone="no"?>
<!DOCTYPE svg PUBLIC "-//W3C//DTD SVG 1.1//EN"
 "http://www.w3.org/Graphics/SVG/1.1/DTD/svg11.dtd">
<!-- Generated by graphviz version 14.1.5 (20260411.2331)
 -->
<!-- Pages: 1 -->
<svg width="542pt" height="48pt"
 viewBox="0.00 0.00 542.00 48.00" xmlns="http://www.w3.org/2000/svg" xmlns:xlink="http://www.w3.org/1999/xlink">
<g id="graph0" class="graph" transform="scale(1 1) rotate(0) translate(4 43.5)">
<polygon fill="white" stroke="none" points="-4,4 -4,-43.5 538,-43.5 538,4 -4,4"/>
<!-- W -->
<g id="node1" class="node">
<title>W</title>
<polygon fill="#e8f5e9" stroke="black" points="121,-39.5 0,-39.5 0,0 121,0 121,-39.5"/>
<text xml:space="preserve" text-anchor="middle" x="60.5" y="-22.2" font-family="Helvetica,sans-Serif" font-size="14.00">Working directory</text>
<text xml:space="preserve" text-anchor="middle" x="60.5" y="-6.45" font-family="Helvetica,sans-Serif" font-size="14.00">(your files)</text>
</g>
<!-- S -->
<g id="node2" class="node">
<title>S</title>
<polygon fill="#e8f5e9" stroke="black" points="325.25,-39.5 202,-39.5 202,0 325.25,0 325.25,-39.5"/>
<text xml:space="preserve" text-anchor="middle" x="263.62" y="-22.2" font-family="Helvetica,sans-Serif" font-size="14.00">Staging area</text>
<text xml:space="preserve" text-anchor="middle" x="263.62" y="-6.45" font-family="Helvetica,sans-Serif" font-size="14.00">(chosen changes)</text>
</g>
<!-- W&#45;&gt;S -->
<g id="edge1" class="edge">
<title>W&#45;&gt;S</title>
<path fill="none" stroke="black" d="M121.3,-19.75C142.99,-19.75 167.73,-19.75 190.39,-19.75"/>
<polygon fill="black" stroke="black" points="190.15,-23.25 200.15,-19.75 190.15,-16.25 190.15,-23.25"/>
<text xml:space="preserve" text-anchor="middle" x="161.5" y="-22.95" font-family="Times New Roman,serif" font-size="14.00"> &#160;git add</text>
</g>
<!-- R -->
<g id="node3" class="node">
<title>R</title>
<polygon fill="#e8f5e9" stroke="black" points="534,-39.5 429.5,-39.5 429.5,0 534,0 534,-39.5"/>
<text xml:space="preserve" text-anchor="middle" x="481.75" y="-22.2" font-family="Helvetica,sans-Serif" font-size="14.00">Repository</text>
<text xml:space="preserve" text-anchor="middle" x="481.75" y="-6.45" font-family="Helvetica,sans-Serif" font-size="14.00">(saved history)</text>
</g>
<!-- S&#45;&gt;R -->
<g id="edge2" class="edge">
<title>S&#45;&gt;R</title>
<path fill="none" stroke="black" d="M325.69,-19.75C354.56,-19.75 388.99,-19.75 418.07,-19.75"/>
<polygon fill="black" stroke="black" points="417.82,-23.25 427.82,-19.75 417.82,-16.25 417.82,-23.25"/>
<text xml:space="preserve" text-anchor="middle" x="377.38" y="-22.95" font-family="Times New Roman,serif" font-size="14.00"> &#160;git commit</text>
</g>
</g>
</svg>
