<?xml version="1.0" encoding="UTF-8" standalone="no"?>
<!DOCTYPE svg PUBLIC "-//W3C//DTD SVG 1.1//EN"
 "http://www.w3.org/Graphics/SVG/1.1/DTD/svg11.dtd">
<!-- Generated by graphviz version 14.1.5 (20260411.2331)
 -->
<!-- Pages: 1 -->
<svg width="664pt" height="80pt"
 viewBox="0.00 0.00 664.00 80.00" xmlns="http://www.w3.org/2000/svg" xmlns:xlink="http://www.w3.org/1999/xlink">
<g id="graph0" class="graph" transform="scale(1 1) rotate(0) translate(4 76.27)">
<polygon fill="white" stroke="none" points="-4,4 -4,-76.27 660,-76.27 660,4 -4,4"/>
<!-- Requirements -->
<g id="node1" class="node">
<title>Requirements</title>
<path fill="#e3f2fd" stroke="black" d="M88.75,-72.27C88.75,-72.27 12,-72.27 12,-72.27 6,-72.27 0,-66.27 0,-60.27 0,-60.27 0,-48.27 0,-48.27 0,-42.27 6,-36.27 12,-36.27 12,-36.27 88.75,-36.27 88.75,-36.27 94.75,-36.27 100.75,-42.27 100.75,-48.27 100.75,-48.27 100.75,-60.27 100.75,-60.27 100.75,-66.27 94.75,-72.27 88.75,-72.27"/>
<text xml:space="preserve" text-anchor="middle" x="50.38" y="-48.85" font-family="Helvetica,sans-Serif" font-size="14.00">Requirements</text>
</g>
<!-- Design -->
<g id="node2" class="node">
<title>Design</title>
<path fill="#e3f2fd" stroke="black" d="M183.75,-72.27C183.75,-72.27 149.75,-72.27 149.75,-72.27 143.75,-72.27 137.75,-66.27 137.75,-60.27 137.75,-60.27 137.75,-48.27 137.75,-48.27 137.75,-42.27 143.75,-36.27 149.75,-36.27 149.75,-36.27 183.75,-36.27 183.75,-36.27 189.75,-36.27 195.75,-42.27 195.75,-48.27 195.75,-48.27 195.75,-60.27 195.75,-60.27 195.75,-66.27 189.75,-72.27 183.75,-72.27"/>
<text xml:space="preserve" text-anchor="middle" x="166.75" y="-48.85" font-family="Helvetica,sans-Serif" font-size="14.00">Design</text>
</g>
<!-- Requirements&#45;&gt;Design -->
<g id="edge1" class="edge">
<title>Requirements&#45;&gt;Design</title>
<path fill="none" stroke="black" d="M101.21,-54.27C109.54,-54.27 118.08,-54.27 126.12,-54.27"/>
<polygon fill="black" stroke="black" points="125.92,-57.77 135.92,-54.27 125.92,-50.77 125.92,-57.77"/>
</g>
<!-- Build -->
<g id="node3" class="node">
<title>Build</title>
<path fill="#e3f2fd" stroke="black" d="M274.75,-72.27C274.75,-72.27 244.75,-72.27 244.75,-72.27 238.75,-72.27 232.75,-66.27 232.75,-60.27 232.75,-60.27 232.75,-48.27 232.75,-48.27 232.75,-42.27 238.75,-36.27 244.75,-36.27 244.75,-36.27 274.75,-36.27 274.75,-36.27 280.75,-36.27 286.75,-42.27 286.75,-48.27 286.75,-48.27 286.75,-60.27 286.75,-60.27 286.75,-66.27 280.75,-72.27 274.75,-72.27"/>
<text xml:space="preserve" text-anchor="middle" x="259.75" y="-48.85" font-family="Helvetica,sans-Serif" font-size="14.00">Build</text>
</g>
<!-- Design&#45;&gt;Build -->
<g id="edge2" class="edge">
<title>Design&#45;&gt;Build</title>
<path fill="none" stroke="black" d="M196.04,-54.27C203.92,-54.27 212.6,-54.27 220.92,-54.27"/>
<polygon fill="black" stroke="black" points="220.82,-57.77 230.82,-54.27 220.82,-50.77 220.82,-57.77"/>
</g>
<!-- Test -->
<g id="node4" class="node">
<title>Test</title>
<path fill="#e3f2fd" stroke="black" d="M444.25,-72.27C444.25,-72.27 414.25,-72.27 414.25,-72.27 408.25,-72.27 402.25,-66.27 402.25,-60.27 402.25,-60.27 402.25,-48.27 402.25,-48.27 402.25,-42.27 408.25,-36.27 414.25,-36.27 414.25,-36.27 444.25,-36.27 444.25,-36.27 450.25,-36.27 456.25,-42.27 456.25,-48.27 456.25,-48.27 456.25,-60.27 456.25,-60.27 456.25,-66.27 450.25,-72.27 444.25,-72.27"/>
<text xml:space="preserve" text-anchor="middle" x="429.25" y="-48.85" font-family="Helvetica,sans-Serif" font-size="14.00">Test</text>
</g>
<!-- Build&#45;&gt;Test -->
<g id="edge3" class="edge">
<title>Build&#45;&gt;Test</title>
<path fill="none" stroke="black" d="M286.92,-54.27C314.74,-54.27 358.99,-54.27 390.57,-54.27"/>
<polygon fill="black" stroke="black" points="390.47,-57.77 400.47,-54.27 390.47,-50.77 390.47,-57.77"/>
</g>
<!-- Deploy -->
<g id="node5" class="node">
<title>Deploy</title>
<path fill="#e3f2fd" stroke="black" d="M539.25,-72.27C539.25,-72.27 505.25,-72.27 505.25,-72.27 499.25,-72.27 493.25,-66.27 493.25,-60.27 493.25,-60.27 493.25,-48.27 493.25,-48.27 493.25,-42.27 499.25,-36.27 505.25,-36.27 505.25,-36.27 539.25,-36.27 539.25,-36.27 545.25,-36.27 551.25,-42.27 551.25,-48.27 551.25,-48.27 551.25,-60.27 551.25,-60.27 551.25,-66.27 545.25,-72.27 539.25,-72.27"/>
<text xml:space="preserve" text-anchor="middle" x="522.25" y="-48.85" font-family="Helvetica,sans-Serif" font-size="14.00">Deploy</text>
</g>
<!-- Test&#45;&gt;Deploy -->
<g id="edge4" class="edge">
<title>Test&#45;&gt;Deploy</title>
<path fill="none" stroke="black" d="M456.57,-54.27C464.37,-54.27 473.08,-54.27 481.52,-54.27"/>
<polygon fill="black" stroke="black" points="481.25,-57.77 491.25,-54.27 481.25,-50.77 481.25,-57.77"/>
</g>
<!-- Maintain -->
<g id="node6" class="node">
<title>Maintain</title>
<path fill="#fff3e0" stroke="black" d="M644,-72.27C644,-72.27 600.25,-72.27 600.25,-72.27 594.25,-72.27 588.25,-66.27 588.25,-60.27 588.25,-60.27 588.25,-48.27 588.25,-48.27 588.25,-42.27 594.25,-36.27 600.25,-36.27 600.25,-36.27 644,-36.27 644,-36.27 650,-36.27 656,-42.27 656,-48.27 656,-48.27 656,-60.27 656,-60.27 656,-66.27 650,-72.27 644,-72.27"/>
<text xml:space="preserve" text-anchor="middle" x="622.12" y="-48.85" font-family="Helvetica,sans-Serif" font-size="14.00">Maintain</text>
</g>
<!-- Deploy&#45;&gt;Maintain -->
<g id="edge5" class="edge">
<title>Deploy&#45;&gt;Maintain</title>
<path fill="none" stroke="black" d="M551.56,-54.27C559.4,-54.27 568.11,-54.27 576.63,-54.27"/>
<polygon fill="black" stroke="black" points="576.53,-57.77 586.53,-54.27 576.53,-50.77 576.53,-57.77"/>
</g>
<!-- Maintain&#45;&gt;Requirements -->
<g id="edge6" class="edge">
<title>Maintain&#45;&gt;Requirements</title>
<path fill="none" stroke="black" stroke-dasharray="5,2" d="M588.01,-39.07C576.59,-34.48 563.58,-29.95 551.25,-27.27 371.67,11.81 318.51,5.88 137.75,-27.27 129.37,-28.81 120.66,-30.91 112.14,-33.26"/>
<polygon fill="black" stroke="black" points="111.18,-29.89 102.55,-36.05 113.13,-36.62 111.18,-29.89"/>
<text xml:space="preserve" text-anchor="middle" x="344.5" y="-21.65" font-family="Times New Roman,serif" font-size="14.00"> &#160;new needs &amp;</text>
<text xml:space="preserve" text-anchor="middle" x="344.5" y="-5.15" font-family="Times New Roman,serif" font-size="14.00"> &#160;bug reports</text>
</g>
</g>
</svg>
