<?xml version="1.0" encoding="UTF-8" standalone="no"?>
<!DOCTYPE svg PUBLIC "-//W3C//DTD SVG 1.1//EN"
 "http://www.w3.org/Graphics/SVG/1.1/DTD/svg11.dtd">
<!-- Generated by graphviz version 14.1.5 (20260411.2331)
 -->
<!-- Pages: 1 -->
<svg width="580pt" height="110pt"
 viewBox="0.00 0.00 580.00 110.00" xmlns="http://www.w3.org/2000/svg" xmlns:xlink="http://www.w3.org/1999/xlink">
<g id="graph0" class="graph" transform="scale(1 1) rotate(0) translate(4 106.25)">
<polygon fill="white" stroke="none" points="-4,4 -4,-106.25 576.25,-106.25 576.25,4 -4,4"/>
<!-- spec -->
<g id="node1" class="node">
<title>spec</title>
<path fill="#fff3e0" stroke="black" d="M88.75,-102.25C88.75,-102.25 12,-102.25 12,-102.25 6,-102.25 0,-96.25 0,-90.25 0,-90.25 0,-74.75 0,-74.75 0,-68.75 6,-62.75 12,-62.75 12,-62.75 88.75,-62.75 88.75,-62.75 94.75,-62.75 100.75,-68.75 100.75,-74.75 100.75,-74.75 100.75,-90.25 100.75,-90.25 100.75,-96.25 94.75,-102.25 88.75,-102.25"/>
<text xml:space="preserve" text-anchor="middle" x="50.38" y="-84.95" font-family="Helvetica,sans-Serif" font-size="14.00">Your spec</text>
<text xml:space="preserve" text-anchor="middle" x="50.38" y="-69.2" font-family="Helvetica,sans-Serif" font-size="14.00">(what to build)</text>
</g>
<!-- logic -->
<g id="node2" class="node">
<title>logic</title>
<path fill="#c8e6c9" stroke="black" d="M315.5,-70.25C315.5,-70.25 197.5,-70.25 197.5,-70.25 191.5,-70.25 185.5,-64.25 185.5,-58.25 185.5,-58.25 185.5,-42.75 185.5,-42.75 185.5,-36.75 191.5,-30.75 197.5,-30.75 197.5,-30.75 315.5,-30.75 315.5,-30.75 321.5,-30.75 327.5,-36.75 327.5,-42.75 327.5,-42.75 327.5,-58.25 327.5,-58.25 327.5,-64.25 321.5,-70.25 315.5,-70.25"/>
<text xml:space="preserve" text-anchor="middle" x="256.5" y="-52.95" font-family="Helvetica,sans-Serif" font-size="14.00">Pure logic</text>
<text xml:space="preserve" text-anchor="middle" x="256.5" y="-37.2" font-family="Helvetica,sans-Serif" font-size="14.00">(rules in, answer out)</text>
</g>
<!-- spec&#45;&gt;logic -->
<g id="edge1" class="edge">
<title>spec&#45;&gt;logic</title>
<path fill="none" stroke="black" d="M101.05,-74.71C122.95,-71.28 149.26,-67.15 173.92,-63.29"/>
<polygon fill="black" stroke="black" points="174.27,-66.78 183.61,-61.77 173.19,-59.86 174.27,-66.78"/>
</g>
<!-- io -->
<g id="node3" class="node">
<title>io</title>
<path fill="#e3f2fd" stroke="black" d="M560.25,-70.25C560.25,-70.25 425,-70.25 425,-70.25 419,-70.25 413,-64.25 413,-58.25 413,-58.25 413,-42.75 413,-42.75 413,-36.75 419,-30.75 425,-30.75 425,-30.75 560.25,-30.75 560.25,-30.75 566.25,-30.75 572.25,-36.75 572.25,-42.75 572.25,-42.75 572.25,-58.25 572.25,-58.25 572.25,-64.25 566.25,-70.25 560.25,-70.25"/>
<text xml:space="preserve" text-anchor="middle" x="492.62" y="-52.95" font-family="Helvetica,sans-Serif" font-size="14.00">Input / output</text>
<text xml:space="preserve" text-anchor="middle" x="492.62" y="-37.2" font-family="Helvetica,sans-Serif" font-size="14.00">(input, print, game loop)</text>
</g>
<!-- spec&#45;&gt;io -->
<g id="edge2" class="edge">
<title>spec&#45;&gt;io</title>
<path fill="none" stroke="black" d="M101.01,-85.05C168.18,-87.55 291.54,-88.83 395,-71.5 397.16,-71.14 399.34,-70.76 401.54,-70.37"/>
<polygon fill="black" stroke="black" points="401.96,-73.85 411.16,-68.59 400.69,-66.97 401.96,-73.85"/>
</g>
<!-- logic&#45;&gt;io -->
<g id="edge3" class="edge">
<title>logic&#45;&gt;io</title>
<path fill="none" stroke="black" d="M327.75,-50.5C350.88,-50.5 376.95,-50.5 401.36,-50.5"/>
<polygon fill="black" stroke="black" points="401.31,-54 411.31,-50.5 401.31,-47 401.31,-54"/>
<text xml:space="preserve" text-anchor="middle" x="370.25" y="-53.7" font-family="Times New Roman,serif" font-size="14.00"> &#160;used by</text>
</g>
<!-- tests -->
<g id="node4" class="node">
<title>tests</title>
<path fill="#f3e5f5" stroke="black" d="M80.88,-40.5C80.88,-40.5 19.88,-40.5 19.88,-40.5 13.88,-40.5 7.88,-34.5 7.88,-28.5 7.88,-28.5 7.88,-16.5 7.88,-16.5 7.88,-10.5 13.88,-4.5 19.88,-4.5 19.88,-4.5 80.88,-4.5 80.88,-4.5 86.88,-4.5 92.88,-10.5 92.88,-16.5 92.88,-16.5 92.88,-28.5 92.88,-28.5 92.88,-34.5 86.88,-40.5 80.88,-40.5"/>
<text xml:space="preserve" text-anchor="middle" x="50.38" y="-17.08" font-family="Helvetica,sans-Serif" font-size="14.00">assert tests</text>
</g>
<!-- tests&#45;&gt;logic -->
<g id="edge4" class="edge">
<title>tests&#45;&gt;logic</title>
<path fill="none" stroke="black" stroke-dasharray="5,2" d="M93.18,-28.23C116.45,-31.43 146.23,-35.51 173.92,-39.31"/>
<polygon fill="black" stroke="black" points="173.33,-42.76 183.72,-40.65 174.29,-35.83 173.33,-42.76"/>
<text xml:space="preserve" text-anchor="middle" x="143.12" y="-41.38" font-family="Times New Roman,serif" font-size="14.00"> &#160;can test</text>
</g>
<!-- tests&#45;&gt;io -->
<g id="edge5" class="edge">
<title>tests&#45;&gt;io</title>
<path fill="none" stroke="gray" stroke-dasharray="5,2" d="M93.22,-15.62C119.61,-11.63 154.45,-7.02 185.5,-5 248.48,-0.91 264.96,3.51 327.5,-5 359.33,-9.33 393.69,-18.18 422.71,-26.93"/>
<polygon fill="gray" stroke="gray" points="421.52,-30.23 432.11,-29.82 423.58,-23.54 421.52,-30.23"/>
<text xml:space="preserve" text-anchor="middle" x="256.5" y="-8.2" font-family="Times New Roman,serif" font-size="14.00"> &#160;hard to test</text>
</g>
</g>
</svg>
