<?xml version="1.0" encoding="UTF-8" standalone="no"?>
<!DOCTYPE svg PUBLIC "-//W3C//DTD SVG 1.1//EN"
 "http://www.w3.org/Graphics/SVG/1.1/DTD/svg11.dtd">
<!-- Generated by graphviz version 14.1.5 (20260411.2331)
 -->
<!-- Title: G Pages: 1 -->
<svg width="426pt" height="129pt"
 viewBox="0.00 0.00 426.00 129.00" xmlns="http://www.w3.org/2000/svg" xmlns:xlink="http://www.w3.org/1999/xlink">
<g id="graph0" class="graph" transform="scale(1 1) rotate(0) translate(4 124.5)">
<title>G</title>
<!-- triad -->
<g id="node1" class="node">
<title>triad</title>
<path fill="#f3e9d8" stroke="black" d="M200.28,-117.93C200.28,-117.93 141.51,-105.07 141.51,-105.07 135.65,-103.78 135.65,-101.22 141.51,-99.93 141.51,-99.93 200.28,-87.07 200.28,-87.07 206.14,-85.78 217.86,-85.78 223.72,-87.07 223.72,-87.07 282.49,-99.93 282.49,-99.93 288.35,-101.22 288.35,-103.78 282.49,-105.07 282.49,-105.07 223.72,-117.93 223.72,-117.93 217.86,-119.22 206.14,-119.22 200.28,-117.93"/>
<text xml:space="preserve" text-anchor="middle" x="212" y="-98.8" font-family="Helvetica,sans-Serif" font-size="11.00">Patient Records</text>
</g>
<!-- c -->
<g id="node2" class="node">
<title>c</title>
<path fill="#dde8f0" stroke="black" d="M112,-48.5C112,-48.5 12,-48.5 12,-48.5 6,-48.5 0,-42.5 0,-36.5 0,-36.5 0,-12 0,-12 0,-6 6,0 12,0 12,0 112,0 112,0 118,0 124,-6 124,-12 124,-12 124,-36.5 124,-36.5 124,-42.5 118,-48.5 112,-48.5"/>
<text xml:space="preserve" text-anchor="middle" x="62" y="-34.05" font-family="Helvetica,sans-Serif" font-size="11.00">Confidentiality</text>
<text xml:space="preserve" text-anchor="middle" x="62" y="-20.55" font-family="Helvetica,sans-Serif" font-size="11.00">wrong people READ it</text>
<text xml:space="preserve" text-anchor="middle" x="62" y="-7.05" font-family="Helvetica,sans-Serif" font-size="11.00">(the leak)</text>
</g>
<!-- triad&#45;&gt;c -->
<g id="edge1" class="edge">
<title>triad&#45;&gt;c</title>
<path fill="none" stroke="black" d="M188.23,-89.42C169.58,-79.94 142.84,-66.34 118.76,-54.1"/>
<polygon fill="black" stroke="black" points="120.49,-51.06 109.99,-49.64 117.32,-57.3 120.49,-51.06"/>
</g>
<!-- i -->
<g id="node3" class="node">
<title>i</title>
<path fill="#dde8f0" stroke="black" d="M270.25,-48.5C270.25,-48.5 153.75,-48.5 153.75,-48.5 147.75,-48.5 141.75,-42.5 141.75,-36.5 141.75,-36.5 141.75,-12 141.75,-12 141.75,-6 147.75,0 153.75,0 153.75,0 270.25,0 270.25,0 276.25,0 282.25,-6 282.25,-12 282.25,-12 282.25,-36.5 282.25,-36.5 282.25,-42.5 276.25,-48.5 270.25,-48.5"/>
<text xml:space="preserve" text-anchor="middle" x="212" y="-34.05" font-family="Helvetica,sans-Serif" font-size="11.00">Integrity</text>
<text xml:space="preserve" text-anchor="middle" x="212" y="-20.55" font-family="Helvetica,sans-Serif" font-size="11.00">wrong people CHANGE it</text>
<text xml:space="preserve" text-anchor="middle" x="212" y="-7.05" font-family="Helvetica,sans-Serif" font-size="11.00">(altered dosage)</text>
</g>
<!-- triad&#45;&gt;i -->
<g id="edge2" class="edge">
<title>triad&#45;&gt;i</title>
<path fill="none" stroke="black" d="M212,-84.2C212,-77.09 212,-68.59 212,-60.29"/>
<polygon fill="black" stroke="black" points="215.5,-60.36 212,-50.36 208.5,-60.36 215.5,-60.36"/>
</g>
<!-- a -->
<g id="node4" class="node">
<title>a</title>
<path fill="#e3efe1" stroke="black" d="M406,-48.5C406,-48.5 312,-48.5 312,-48.5 306,-48.5 300,-42.5 300,-36.5 300,-36.5 300,-12 300,-12 300,-6 306,0 312,0 312,0 406,0 406,0 412,0 418,-6 418,-12 418,-12 418,-36.5 418,-36.5 418,-42.5 412,-48.5 406,-48.5"/>
<text xml:space="preserve" text-anchor="middle" x="359" y="-34.05" font-family="Helvetica,sans-Serif" font-size="11.00">Availability</text>
<text xml:space="preserve" text-anchor="middle" x="359" y="-20.55" font-family="Helvetica,sans-Serif" font-size="11.00">they STOP it working</text>
<text xml:space="preserve" text-anchor="middle" x="359" y="-7.05" font-family="Helvetica,sans-Serif" font-size="11.00">(portal offline)</text>
</g>
<!-- triad&#45;&gt;a -->
<g id="edge3" class="edge">
<title>triad&#45;&gt;a</title>
<path fill="none" stroke="black" d="M235.62,-89.25C253.86,-79.79 279.86,-66.3 303.29,-54.15"/>
<polygon fill="black" stroke="black" points="304.88,-57.26 312.15,-49.55 301.66,-51.05 304.88,-57.26"/>
</g>
</g>
</svg>
