<?xml version="1.0" encoding="UTF-8" standalone="no"?>
<!DOCTYPE svg PUBLIC "-//W3C//DTD SVG 1.1//EN"
 "http://www.w3.org/Graphics/SVG/1.1/DTD/svg11.dtd">
<!-- Generated by graphviz version 14.1.5 (20260411.2331)
 -->
<!-- Title: G Pages: 1 -->
<svg width="452pt" height="202pt"
 viewBox="0.00 0.00 452.00 202.00" xmlns="http://www.w3.org/2000/svg" xmlns:xlink="http://www.w3.org/1999/xlink">
<g id="graph0" class="graph" transform="scale(1 1) rotate(0) translate(4 198)">
<title>G</title>
<g id="clust1" class="cluster">
<title>cluster_http</title>
<polygon fill="none" stroke="#b06060" stroke-dasharray="5,2" points="8,-8 8,-93 435.5,-93 435.5,-8 8,-8"/>
<text xml:space="preserve" text-anchor="middle" x="221.75" y="-75.7" font-family="Times New Roman,serif" font-size="14.00">Plain HTTP</text>
</g>
<g id="clust2" class="cluster">
<title>cluster_https</title>
<polygon fill="none" stroke="#60a060" stroke-dasharray="5,2" points="8,-101 8,-186 435.5,-186 435.5,-101 8,-101"/>
<text xml:space="preserve" text-anchor="middle" x="221.75" y="-168.7" font-family="Times New Roman,serif" font-size="14.00">HTTPS (encrypted)</text>
</g>
<!-- p1 -->
<g id="node1" class="node">
<title>p1</title>
<path fill="#dde8f0" stroke="black" d="M58,-56C58,-56 28,-56 28,-56 22,-56 16,-50 16,-44 16,-44 16,-32 16,-32 16,-26 22,-20 28,-20 28,-20 58,-20 58,-20 64,-20 70,-26 70,-32 70,-32 70,-44 70,-44 70,-50 64,-56 58,-56"/>
<text xml:space="preserve" text-anchor="middle" x="43" y="-34.5" font-family="Helvetica,sans-Serif" font-size="10.00">Patient</text>
</g>
<!-- e1 -->
<g id="node2" class="node">
<title>e1</title>
<path fill="#f6dede" stroke="black" d="M266,-60C266,-60 160.75,-60 160.75,-60 154.75,-60 148.75,-54 148.75,-48 148.75,-48 148.75,-28 148.75,-28 148.75,-22 154.75,-16 160.75,-16 160.75,-16 266,-16 266,-16 272,-16 278,-22 278,-28 278,-28 278,-48 278,-48 278,-54 272,-60 266,-60"/>
<text xml:space="preserve" text-anchor="middle" x="213.38" y="-46.5" font-family="Helvetica,sans-Serif" font-size="10.00">Eavesdropper</text>
<text xml:space="preserve" text-anchor="middle" x="213.38" y="-34.5" font-family="Helvetica,sans-Serif" font-size="10.00">on the Wi&#45;Fi</text>
<text xml:space="preserve" text-anchor="middle" x="213.38" y="-22.5" font-family="Helvetica,sans-Serif" font-size="10.00">sees: password = hunter2</text>
</g>
<!-- p1&#45;&gt;e1 -->
<g id="edge1" class="edge">
<title>p1&#45;&gt;e1</title>
<path fill="none" stroke="black" d="M70.31,-38C88.35,-38 113.28,-38 137.21,-38"/>
<polygon fill="black" stroke="black" points="136.97,-41.5 146.97,-38 136.97,-34.5 136.97,-41.5"/>
<text xml:space="preserve" text-anchor="middle" x="109.38" y="-39.95" font-family="Helvetica,sans-Serif" font-size="9.00">readable</text>
</g>
<!-- s1 -->
<g id="node3" class="node">
<title>s1</title>
<path fill="#e3efe1" stroke="black" d="M415.5,-56C415.5,-56 368.75,-56 368.75,-56 362.75,-56 356.75,-50 356.75,-44 356.75,-44 356.75,-32 356.75,-32 356.75,-26 362.75,-20 368.75,-20 368.75,-20 415.5,-20 415.5,-20 421.5,-20 427.5,-26 427.5,-32 427.5,-32 427.5,-44 427.5,-44 427.5,-50 421.5,-56 415.5,-56"/>
<text xml:space="preserve" text-anchor="middle" x="392.12" y="-34.5" font-family="Helvetica,sans-Serif" font-size="10.00">Clinic server</text>
</g>
<!-- e1&#45;&gt;s1 -->
<g id="edge2" class="edge">
<title>e1&#45;&gt;s1</title>
<path fill="none" stroke="black" d="M278.44,-38C300.4,-38 324.55,-38 344.83,-38"/>
<polygon fill="black" stroke="black" points="344.77,-41.5 354.77,-38 344.77,-34.5 344.77,-41.5"/>
<text xml:space="preserve" text-anchor="middle" x="317.38" y="-39.95" font-family="Helvetica,sans-Serif" font-size="9.00">readable</text>
</g>
<!-- p2 -->
<g id="node4" class="node">
<title>p2</title>
<path fill="#dde8f0" stroke="black" d="M58,-149C58,-149 28,-149 28,-149 22,-149 16,-143 16,-137 16,-137 16,-125 16,-125 16,-119 22,-113 28,-113 28,-113 58,-113 58,-113 64,-113 70,-119 70,-125 70,-125 70,-137 70,-137 70,-143 64,-149 58,-149"/>
<text xml:space="preserve" text-anchor="middle" x="43" y="-127.5" font-family="Helvetica,sans-Serif" font-size="10.00">Patient</text>
</g>
<!-- e2 -->
<g id="node5" class="node">
<title>e2</title>
<path fill="#f3e9d8" stroke="black" d="M255.88,-153C255.88,-153 170.88,-153 170.88,-153 164.88,-153 158.88,-147 158.88,-141 158.88,-141 158.88,-121 158.88,-121 158.88,-115 164.88,-109 170.88,-109 170.88,-109 255.88,-109 255.88,-109 261.88,-109 267.88,-115 267.88,-121 267.88,-121 267.88,-141 267.88,-141 267.88,-147 261.88,-153 255.88,-153"/>
<text xml:space="preserve" text-anchor="middle" x="213.38" y="-139.5" font-family="Helvetica,sans-Serif" font-size="10.00">Eavesdropper</text>
<text xml:space="preserve" text-anchor="middle" x="213.38" y="-127.5" font-family="Helvetica,sans-Serif" font-size="10.00">on the Wi&#45;Fi</text>
<text xml:space="preserve" text-anchor="middle" x="213.38" y="-115.5" font-family="Helvetica,sans-Serif" font-size="10.00">sees: x8#kP9$mLq...</text>
</g>
<!-- p2&#45;&gt;e2 -->
<g id="edge3" class="edge">
<title>p2&#45;&gt;e2</title>
<path fill="none" stroke="black" d="M70.31,-131C90.86,-131 120.34,-131 147.13,-131"/>
<polygon fill="black" stroke="black" points="146.89,-134.5 156.89,-131 146.89,-127.5 146.89,-134.5"/>
<text xml:space="preserve" text-anchor="middle" x="109.38" y="-132.95" font-family="Helvetica,sans-Serif" font-size="9.00">scrambled</text>
</g>
<!-- s2 -->
<g id="node6" class="node">
<title>s2</title>
<path fill="#e3efe1" stroke="black" d="M415.5,-149C415.5,-149 368.75,-149 368.75,-149 362.75,-149 356.75,-143 356.75,-137 356.75,-137 356.75,-125 356.75,-125 356.75,-119 362.75,-113 368.75,-113 368.75,-113 415.5,-113 415.5,-113 421.5,-113 427.5,-119 427.5,-125 427.5,-125 427.5,-137 427.5,-137 427.5,-143 421.5,-149 415.5,-149"/>
<text xml:space="preserve" text-anchor="middle" x="392.12" y="-127.5" font-family="Helvetica,sans-Serif" font-size="10.00">Clinic server</text>
</g>
<!-- e2&#45;&gt;s2 -->
<g id="edge4" class="edge">
<title>e2&#45;&gt;s2</title>
<path fill="none" stroke="black" d="M268.37,-131C292.86,-131 321.52,-131 344.99,-131"/>
<polygon fill="black" stroke="black" points="344.88,-134.5 354.88,-131 344.88,-127.5 344.88,-134.5"/>
<text xml:space="preserve" text-anchor="middle" x="317.38" y="-132.95" font-family="Helvetica,sans-Serif" font-size="9.00">scrambled</text>
</g>
</g>
</svg>
