<?xml version="1.0" encoding="UTF-8" standalone="no"?>
<!DOCTYPE svg PUBLIC "-//W3C//DTD SVG 1.1//EN"
 "http://www.w3.org/Graphics/SVG/1.1/DTD/svg11.dtd">
<!-- Generated by graphviz version 14.1.5 (20260411.2331)
 -->
<!-- Title: G Pages: 1 -->
<svg width="705pt" height="44pt"
 viewBox="0.00 0.00 705.00 44.00" xmlns="http://www.w3.org/2000/svg" xmlns:xlink="http://www.w3.org/1999/xlink">
<g id="graph0" class="graph" transform="scale(1 1) rotate(0) translate(4 40)">
<title>G</title>
<!-- atk -->
<g id="node1" class="node">
<title>atk</title>
<path fill="#f6dede" stroke="black" d="M27.01,-30.85C27.01,-30.85 10.84,-23.15 10.84,-23.15 5.42,-20.58 5.42,-15.42 10.84,-12.85 10.84,-12.85 27.01,-5.15 27.01,-5.15 32.43,-2.58 43.26,-2.58 48.68,-5.15 48.68,-5.15 64.85,-12.85 64.85,-12.85 70.27,-15.42 70.27,-20.58 64.85,-23.15 64.85,-23.15 48.68,-30.85 48.68,-30.85 43.26,-33.42 32.43,-33.42 27.01,-30.85"/>
<text xml:space="preserve" text-anchor="middle" x="37.84" y="-14.5" font-family="Helvetica,sans-Serif" font-size="10.00">Attack</text>
</g>
<!-- l1 -->
<g id="node2" class="node">
<title>l1</title>
<path fill="#dde8f0" stroke="black" d="M156.94,-36C156.94,-36 123.69,-36 123.69,-36 117.69,-36 111.69,-30 111.69,-24 111.69,-24 111.69,-12 111.69,-12 111.69,-6 117.69,0 123.69,0 123.69,0 156.94,0 156.94,0 162.94,0 168.94,-6 168.94,-12 168.94,-12 168.94,-24 168.94,-24 168.94,-30 162.94,-36 156.94,-36"/>
<text xml:space="preserve" text-anchor="middle" x="140.31" y="-20.5" font-family="Helvetica,sans-Serif" font-size="10.00">Input</text>
<text xml:space="preserve" text-anchor="middle" x="140.31" y="-8.5" font-family="Helvetica,sans-Serif" font-size="10.00">validation</text>
</g>
<!-- atk&#45;&gt;l1 -->
<g id="edge1" class="edge">
<title>atk&#45;&gt;l1</title>
<path fill="none" stroke="black" d="M76.83,-18C84.34,-18 92.24,-18 99.8,-18"/>
<polygon fill="black" stroke="black" points="99.79,-21.5 109.79,-18 99.79,-14.5 99.79,-21.5"/>
</g>
<!-- l2 -->
<g id="node3" class="node">
<title>l2</title>
<path fill="#dde8f0" stroke="black" d="M271.94,-36C271.94,-36 216.94,-36 216.94,-36 210.94,-36 204.94,-30 204.94,-24 204.94,-24 204.94,-12 204.94,-12 204.94,-6 210.94,0 216.94,0 216.94,0 271.94,0 271.94,0 277.94,0 283.94,-6 283.94,-12 283.94,-12 283.94,-24 283.94,-24 283.94,-30 277.94,-36 271.94,-36"/>
<text xml:space="preserve" text-anchor="middle" x="244.44" y="-20.5" font-family="Helvetica,sans-Serif" font-size="10.00">Parameterized</text>
<text xml:space="preserve" text-anchor="middle" x="244.44" y="-8.5" font-family="Helvetica,sans-Serif" font-size="10.00">query</text>
</g>
<!-- l1&#45;&gt;l2 -->
<g id="edge2" class="edge">
<title>l1&#45;&gt;l2</title>
<path fill="none" stroke="black" d="M169.22,-18C176.6,-18 184.81,-18 192.99,-18"/>
<polygon fill="black" stroke="black" points="192.95,-21.5 202.95,-18 192.95,-14.5 192.95,-21.5"/>
</g>
<!-- l3 -->
<g id="node4" class="node">
<title>l3</title>
<path fill="#dde8f0" stroke="black" d="M400.44,-36C400.44,-36 331.94,-36 331.94,-36 325.94,-36 319.94,-30 319.94,-24 319.94,-24 319.94,-12 319.94,-12 319.94,-6 325.94,0 331.94,0 331.94,0 400.44,0 400.44,0 406.44,0 412.44,-6 412.44,-12 412.44,-12 412.44,-24 412.44,-24 412.44,-30 406.44,-36 400.44,-36"/>
<text xml:space="preserve" text-anchor="middle" x="366.19" y="-20.5" font-family="Helvetica,sans-Serif" font-size="10.00">Hashed +</text>
<text xml:space="preserve" text-anchor="middle" x="366.19" y="-8.5" font-family="Helvetica,sans-Serif" font-size="10.00">salted passwords</text>
</g>
<!-- l2&#45;&gt;l3 -->
<g id="edge3" class="edge">
<title>l2&#45;&gt;l3</title>
<path fill="none" stroke="black" d="M284.32,-18C292.02,-18 300.26,-18 308.42,-18"/>
<polygon fill="black" stroke="black" points="308.33,-21.5 318.33,-18 308.33,-14.5 308.33,-21.5"/>
</g>
<!-- l4 -->
<g id="node5" class="node">
<title>l4</title>
<path fill="#dde8f0" stroke="black" d="M490.44,-36C490.44,-36 460.44,-36 460.44,-36 454.44,-36 448.44,-30 448.44,-24 448.44,-24 448.44,-12 448.44,-12 448.44,-6 454.44,0 460.44,0 460.44,0 490.44,0 490.44,0 496.44,0 502.44,-6 502.44,-12 502.44,-12 502.44,-24 502.44,-24 502.44,-30 496.44,-36 490.44,-36"/>
<text xml:space="preserve" text-anchor="middle" x="475.44" y="-20.5" font-family="Helvetica,sans-Serif" font-size="10.00">HTTPS</text>
<text xml:space="preserve" text-anchor="middle" x="475.44" y="-8.5" font-family="Helvetica,sans-Serif" font-size="10.00">in transit</text>
</g>
<!-- l3&#45;&gt;l4 -->
<g id="edge4" class="edge">
<title>l3&#45;&gt;l4</title>
<path fill="none" stroke="black" d="M412.67,-18C420.71,-18 429,-18 436.79,-18"/>
<polygon fill="black" stroke="black" points="436.62,-21.5 446.62,-18 436.62,-14.5 436.62,-21.5"/>
</g>
<!-- l5 -->
<g id="node6" class="node">
<title>l5</title>
<path fill="#dde8f0" stroke="black" d="M580.44,-36C580.44,-36 550.44,-36 550.44,-36 544.44,-36 538.44,-30 538.44,-24 538.44,-24 538.44,-12 538.44,-12 538.44,-6 544.44,0 550.44,0 550.44,0 580.44,0 580.44,0 586.44,0 592.44,-6 592.44,-12 592.44,-12 592.44,-24 592.44,-24 592.44,-30 586.44,-36 580.44,-36"/>
<text xml:space="preserve" text-anchor="middle" x="565.44" y="-20.5" font-family="Helvetica,sans-Serif" font-size="10.00">Rate</text>
<text xml:space="preserve" text-anchor="middle" x="565.44" y="-8.5" font-family="Helvetica,sans-Serif" font-size="10.00">limiting</text>
</g>
<!-- l4&#45;&gt;l5 -->
<g id="edge5" class="edge">
<title>l4&#45;&gt;l5</title>
<path fill="none" stroke="black" d="M502.84,-18C510.32,-18 518.62,-18 526.64,-18"/>
<polygon fill="black" stroke="black" points="526.54,-21.5 536.54,-18 526.54,-14.5 526.54,-21.5"/>
</g>
<!-- win -->
<g id="node7" class="node">
<title>win</title>
<path fill="#e3efe1" stroke="black" d="M684.94,-36C684.94,-36 640.44,-36 640.44,-36 634.44,-36 628.44,-30 628.44,-24 628.44,-24 628.44,-12 628.44,-12 628.44,-6 634.44,0 640.44,0 640.44,0 684.94,0 684.94,0 690.94,0 696.94,-6 696.94,-12 696.94,-12 696.94,-24 696.94,-24 696.94,-30 690.94,-36 684.94,-36"/>
<text xml:space="preserve" text-anchor="middle" x="662.69" y="-20.5" font-family="Helvetica,sans-Serif" font-size="10.00">Patient data</text>
<text xml:space="preserve" text-anchor="middle" x="662.69" y="-8.5" font-family="Helvetica,sans-Serif" font-size="10.00">SAFE</text>
</g>
<!-- l5&#45;&gt;win -->
<g id="edge6" class="edge">
<title>l5&#45;&gt;win</title>
<path fill="none" stroke="black" d="M592.72,-18C600.13,-18 608.41,-18 616.59,-18"/>
<polygon fill="black" stroke="black" points="616.47,-21.5 626.47,-18 616.47,-14.5 616.47,-21.5"/>
</g>
</g>
</svg>
