<?xml version="1.0" encoding="UTF-8" standalone="no"?>
<!DOCTYPE svg PUBLIC "-//W3C//DTD SVG 1.1//EN"
 "http://www.w3.org/Graphics/SVG/1.1/DTD/svg11.dtd">
<!-- Generated by graphviz version 14.1.5 (20260411.2331)
 -->
<!-- Pages: 1 -->
<svg width="331pt" height="66pt"
 viewBox="0.00 0.00 331.00 66.00" xmlns="http://www.w3.org/2000/svg" xmlns:xlink="http://www.w3.org/1999/xlink">
<g id="graph0" class="graph" transform="scale(1 1) rotate(0) translate(4 61.5)">
<polygon fill="white" stroke="none" points="-4,4 -4,-61.5 327,-61.5 327,4 -4,4"/>
<!-- E -->
<g id="node1" class="node">
<title>E</title>
<path fill="lightyellow" stroke="black" d="M73,-49.25C73,-49.25 12,-49.25 12,-49.25 6,-49.25 0,-43.25 0,-37.25 0,-37.25 0,-20.25 0,-20.25 0,-14.25 6,-8.25 12,-8.25 12,-8.25 73,-8.25 73,-8.25 79,-8.25 85,-14.25 85,-20.25 85,-20.25 85,-37.25 85,-37.25 85,-43.25 79,-49.25 73,-49.25"/>
<text xml:space="preserve" text-anchor="middle" x="42.5" y="-31.95" font-family="Times New Roman,serif" font-size="14.00">coins &#45; debts</text>
<text xml:space="preserve" text-anchor="middle" x="42.5" y="-15.45" font-family="Times New Roman,serif" font-size="14.00">(50 &#45; 12)</text>
</g>
<!-- B -->
<g id="node2" class="node">
<title>B</title>
<polygon fill="lightgreen" stroke="black" points="323,-57.5 264.25,-57.5 264.25,0 323,0 323,-57.5"/>
<text xml:space="preserve" text-anchor="middle" x="293.62" y="-40.2" font-family="Times New Roman,serif" font-size="14.00">coins</text>
<text xml:space="preserve" text-anchor="middle" x="293.62" y="-23.7" font-family="Times New Roman,serif" font-size="14.00">―――</text>
<text xml:space="preserve" text-anchor="middle" x="293.62" y="-7.2" font-family="Times New Roman,serif" font-size="14.00">38</text>
</g>
<!-- E&#45;&gt;B -->
<g id="edge1" class="edge">
<title>E&#45;&gt;B</title>
<path fill="none" stroke="black" d="M85.48,-28.75C132.17,-28.75 207.03,-28.75 252.82,-28.75"/>
<polygon fill="black" stroke="black" points="252.57,-32.25 262.57,-28.75 252.57,-25.25 252.57,-32.25"/>
<text xml:space="preserve" text-anchor="middle" x="174.62" y="-31.95" font-family="Times New Roman,serif" font-size="14.00"> result stored into the box </text>
</g>
</g>
</svg>
