<?xml version="1.0" encoding="UTF-8" standalone="no"?>
<!DOCTYPE svg PUBLIC "-//W3C//DTD SVG 1.1//EN"
 "http://www.w3.org/Graphics/SVG/1.1/DTD/svg11.dtd">
<!-- Generated by graphviz version 2.43.0 (0)
 -->
<!-- Title: %3 Pages: 1 -->
<svg width="367pt" height="500pt"
 viewBox="0.00 0.00 366.50 500.00" xmlns="http://www.w3.org/2000/svg" xmlns:xlink="http://www.w3.org/1999/xlink">
<g id="graph0" class="graph" transform="scale(1 1) rotate(0) translate(4 496)">
<title>%3</title>
<polygon fill="white" stroke="transparent" points="-4,4 -4,-496 362.5,-496 362.5,4 -4,4"/>
<!-- S -->
<g id="node1" class="node">
<title>S</title>
<path fill="lightgreen" stroke="black" d="M311,-492C311,-492 277,-492 277,-492 271,-492 265,-486 265,-480 265,-480 265,-468 265,-468 265,-462 271,-456 277,-456 277,-456 311,-456 311,-456 317,-456 323,-462 323,-468 323,-468 323,-480 323,-480 323,-486 317,-492 311,-492"/>
<text text-anchor="middle" x="294" y="-470.3" font-family="Times,serif" font-size="14.00">START</text>
</g>
<!-- A -->
<g id="node2" class="node">
<title>A</title>
<path fill="lightyellow" stroke="black" d="M346.5,-419C346.5,-419 241.5,-419 241.5,-419 235.5,-419 229.5,-413 229.5,-407 229.5,-407 229.5,-393 229.5,-393 229.5,-387 235.5,-381 241.5,-381 241.5,-381 346.5,-381 346.5,-381 352.5,-381 358.5,-387 358.5,-393 358.5,-393 358.5,-407 358.5,-407 358.5,-413 352.5,-419 346.5,-419"/>
<text text-anchor="middle" x="294" y="-403.8" font-family="Times,serif" font-size="14.00">results = [ ]</text>
<text text-anchor="middle" x="294" y="-388.8" font-family="Times,serif" font-size="14.00">running_product = 1</text>
</g>
<!-- S&#45;&gt;A -->
<g id="edge1" class="edge">
<title>S&#45;&gt;A</title>
<path fill="none" stroke="black" d="M294,-455.94C294,-447.99 294,-438.31 294,-429.31"/>
<polygon fill="black" stroke="black" points="297.5,-429.2 294,-419.2 290.5,-429.2 297.5,-429.2"/>
</g>
<!-- B -->
<g id="node3" class="node">
<title>B</title>
<path fill="lightyellow" stroke="black" d="M309,-344C309,-344 279,-344 279,-344 273,-344 267,-338 267,-332 267,-332 267,-320 267,-320 267,-314 273,-308 279,-308 279,-308 309,-308 309,-308 315,-308 321,-314 321,-320 321,-320 321,-332 321,-332 321,-338 315,-344 309,-344"/>
<text text-anchor="middle" x="294" y="-322.3" font-family="Times,serif" font-size="14.00">i = 1</text>
</g>
<!-- A&#45;&gt;B -->
<g id="edge2" class="edge">
<title>A&#45;&gt;B</title>
<path fill="none" stroke="black" d="M294,-380.83C294,-372.89 294,-363.41 294,-354.63"/>
<polygon fill="black" stroke="black" points="297.5,-354.42 294,-344.42 290.5,-354.42 297.5,-354.42"/>
</g>
<!-- C -->
<g id="node4" class="node">
<title>C</title>
<path fill="lightblue" stroke="black" d="M282.78,-266.75C282.78,-266.75 257.63,-257.25 257.63,-257.25 252.02,-255.12 252.02,-250.88 257.63,-248.75 257.63,-248.75 282.78,-239.25 282.78,-239.25 288.39,-237.12 299.61,-237.12 305.22,-239.25 305.22,-239.25 330.37,-248.75 330.37,-248.75 335.98,-250.88 335.98,-255.12 330.37,-257.25 330.37,-257.25 305.22,-266.75 305.22,-266.75 299.61,-268.88 288.39,-268.88 282.78,-266.75"/>
<text text-anchor="middle" x="294" y="-249.3" font-family="Times,serif" font-size="14.00">i ≤ n ?</text>
</g>
<!-- B&#45;&gt;C -->
<g id="edge3" class="edge">
<title>B&#45;&gt;C</title>
<path fill="none" stroke="black" d="M294,-307.81C294,-299.79 294,-290.05 294,-281.07"/>
<polygon fill="black" stroke="black" points="297.5,-281.03 294,-271.03 290.5,-281.03 297.5,-281.03"/>
</g>
<!-- D -->
<g id="node5" class="node">
<title>D</title>
<path fill="lightyellow" stroke="black" d="M220,-184C220,-184 12,-184 12,-184 6,-184 0,-178 0,-172 0,-172 0,-160 0,-160 0,-154 6,-148 12,-148 12,-148 220,-148 220,-148 226,-148 232,-154 232,-160 232,-160 232,-172 232,-172 232,-178 226,-184 220,-184"/>
<text text-anchor="middle" x="116" y="-162.3" font-family="Times,serif" font-size="14.00">running_product = running_product × i</text>
</g>
<!-- C&#45;&gt;D -->
<g id="edge4" class="edge">
<title>C&#45;&gt;D</title>
<path fill="none" stroke="black" d="M273.93,-242.41C246.72,-229.42 197.36,-205.85 161.05,-188.51"/>
<polygon fill="black" stroke="black" points="162.18,-185.17 151.65,-184.02 159.16,-191.49 162.18,-185.17"/>
<text text-anchor="middle" x="227" y="-205.8" font-family="Times,serif" font-size="14.00"> yes</text>
</g>
<!-- G -->
<g id="node8" class="node">
<title>G</title>
<path fill="lightcoral" stroke="black" d="M326,-184C326,-184 262,-184 262,-184 256,-184 250,-178 250,-172 250,-172 250,-160 250,-160 250,-154 256,-148 262,-148 262,-148 326,-148 326,-148 332,-148 338,-154 338,-160 338,-160 338,-172 338,-172 338,-178 332,-184 326,-184"/>
<text text-anchor="middle" x="294" y="-162.3" font-family="Times,serif" font-size="14.00">return results</text>
</g>
<!-- C&#45;&gt;G -->
<g id="edge8" class="edge">
<title>C&#45;&gt;G</title>
<path fill="none" stroke="black" d="M294,-234.8C294,-223.16 294,-207.55 294,-194.24"/>
<polygon fill="black" stroke="black" points="297.5,-194.18 294,-184.18 290.5,-194.18 297.5,-194.18"/>
<text text-anchor="middle" x="303" y="-205.8" font-family="Times,serif" font-size="14.00"> no</text>
</g>
<!-- E -->
<g id="node6" class="node">
<title>E</title>
<path fill="lightyellow" stroke="black" d="M289.5,-111C289.5,-111 164.5,-111 164.5,-111 158.5,-111 152.5,-105 152.5,-99 152.5,-99 152.5,-85 152.5,-85 152.5,-79 158.5,-73 164.5,-73 164.5,-73 289.5,-73 289.5,-73 295.5,-73 301.5,-79 301.5,-85 301.5,-85 301.5,-99 301.5,-99 301.5,-105 295.5,-111 289.5,-111"/>
<text text-anchor="middle" x="227" y="-95.8" font-family="Times,serif" font-size="14.00">append running_product</text>
<text text-anchor="middle" x="227" y="-80.8" font-family="Times,serif" font-size="14.00">to results</text>
</g>
<!-- D&#45;&gt;E -->
<g id="edge5" class="edge">
<title>D&#45;&gt;E</title>
<path fill="none" stroke="black" d="M142.31,-147.94C156.69,-138.6 174.74,-126.9 190.48,-116.69"/>
<polygon fill="black" stroke="black" points="192.46,-119.58 198.94,-111.2 188.65,-113.7 192.46,-119.58"/>
</g>
<!-- F -->
<g id="node7" class="node">
<title>F</title>
<path fill="lightyellow" stroke="black" d="M334,-36C334,-36 296,-36 296,-36 290,-36 284,-30 284,-24 284,-24 284,-12 284,-12 284,-6 290,0 296,0 296,0 334,0 334,0 340,0 346,-6 346,-12 346,-12 346,-24 346,-24 346,-30 340,-36 334,-36"/>
<text text-anchor="middle" x="315" y="-14.3" font-family="Times,serif" font-size="14.00">i = i + 1</text>
</g>
<!-- E&#45;&gt;F -->
<g id="edge6" class="edge">
<title>E&#45;&gt;F</title>
<path fill="none" stroke="black" d="M249.21,-72.83C260.38,-63.69 274.05,-52.5 286.04,-42.7"/>
<polygon fill="black" stroke="black" points="288.49,-45.21 294.01,-36.17 284.06,-39.8 288.49,-45.21"/>
</g>
<!-- F&#45;&gt;C -->
<g id="edge7" class="edge">
<title>F&#45;&gt;C</title>
<path fill="none" stroke="black" d="M324.11,-36.27C338.94,-66.77 364.92,-131.84 347,-184 340.55,-202.76 326.58,-220.31 314.6,-232.89"/>
<polygon fill="black" stroke="black" points="312.06,-230.48 307.49,-240.04 317.02,-235.42 312.06,-230.48"/>
</g>
</g>
</svg>
