<?xml version="1.0" encoding="UTF-8" standalone="no"?>
<!DOCTYPE svg PUBLIC "-//W3C//DTD SVG 1.1//EN"
 "http://www.w3.org/Graphics/SVG/1.1/DTD/svg11.dtd">
<!-- Generated by graphviz version 14.1.5 (20260411.2331)
 -->
<!-- Pages: 1 -->
<svg width="412pt" height="206pt"
 viewBox="0.00 0.00 412.00 206.00" xmlns="http://www.w3.org/2000/svg" xmlns:xlink="http://www.w3.org/1999/xlink">
<g id="graph0" class="graph" transform="scale(1 1) rotate(0) translate(4 201.5)">
<polygon fill="white" stroke="none" points="-4,4 -4,-201.5 408.18,-201.5 408.18,4 -4,4"/>
<!-- S -->
<g id="node1" class="node">
<title>S</title>
<polygon fill="lightyellow" stroke="black" points="182.38,-197.5 100.38,-197.5 100.38,-161.5 182.38,-161.5 182.38,-197.5"/>
<text xml:space="preserve" text-anchor="middle" x="141.38" y="-174.45" font-family="Times New Roman,serif" font-size="14.00">minutes = 5</text>
</g>
<!-- C -->
<g id="node2" class="node">
<title>C</title>
<polygon fill="mistyrose" stroke="black" points="141.38,-124.5 52.83,-106.5 141.37,-88.5 229.92,-106.5 141.38,-124.5"/>
<text xml:space="preserve" text-anchor="middle" x="141.38" y="-101.45" font-family="Times New Roman,serif" font-size="14.00">minutes &gt; 0 ?</text>
</g>
<!-- S&#45;&gt;C -->
<g id="edge1" class="edge">
<title>S&#45;&gt;C</title>
<path fill="none" stroke="black" d="M141.38,-161.31C141.38,-153.73 141.38,-144.6 141.38,-136.04"/>
<polygon fill="black" stroke="black" points="144.88,-136.04 141.38,-126.04 137.88,-136.04 144.88,-136.04"/>
</g>
<!-- B -->
<g id="node3" class="node">
<title>B</title>
<polygon fill="lightyellow" stroke="black" points="178.75,-36 0,-36 0,0 178.75,0 178.75,-36"/>
<text xml:space="preserve" text-anchor="middle" x="89.38" y="-12.95" font-family="Times New Roman,serif" font-size="14.00">print + minutes = minutes &#45; 1</text>
</g>
<!-- C&#45;&gt;B -->
<g id="edge2" class="edge">
<title>C&#45;&gt;B</title>
<path fill="none" stroke="black" d="M114.7,-93.45C105.49,-87.86 96.16,-80.25 90.88,-70.5 87.14,-63.61 85.78,-55.4 85.62,-47.58"/>
<polygon fill="black" stroke="black" points="89.11,-47.9 86.06,-37.75 82.12,-47.58 89.11,-47.9"/>
<text xml:space="preserve" text-anchor="middle" x="105.12" y="-57.2" font-family="Times New Roman,serif" font-size="14.00"> True</text>
</g>
<!-- E -->
<g id="node4" class="node">
<title>E</title>
<polygon fill="lightblue" stroke="black" points="404.18,-36 239.05,-36 196.57,0 361.7,0 404.18,-36"/>
<text xml:space="preserve" text-anchor="middle" x="300.38" y="-12.95" font-family="Times New Roman,serif" font-size="14.00">print &#39;Time&#39;s up&#39;</text>
</g>
<!-- C&#45;&gt;E -->
<g id="edge4" class="edge">
<title>C&#45;&gt;E</title>
<path fill="none" stroke="black" d="M164.49,-92.92C189.1,-79.54 228.56,-58.07 258.63,-41.71"/>
<polygon fill="black" stroke="black" points="259.99,-44.96 267.1,-37.1 256.64,-38.81 259.99,-44.96"/>
<text xml:space="preserve" text-anchor="middle" x="251.24" y="-57.2" font-family="Times New Roman,serif" font-size="14.00"> False</text>
</g>
<!-- B&#45;&gt;C -->
<g id="edge3" class="edge">
<title>B&#45;&gt;C</title>
<path fill="none" stroke="black" d="M106.06,-36.35C110.74,-41.74 115.57,-47.88 119.38,-54 124.17,-61.72 128.4,-70.67 131.84,-78.92"/>
<polygon fill="black" stroke="black" points="128.55,-80.12 135.45,-88.15 135.06,-77.57 128.55,-80.12"/>
<text xml:space="preserve" text-anchor="middle" x="156.53" y="-57.2" font-family="Times New Roman,serif" font-size="14.00"> loop back</text>
</g>
</g>
</svg>
