<?xml version="1.0" encoding="UTF-8" standalone="no"?>
<!DOCTYPE svg PUBLIC "-//W3C//DTD SVG 1.1//EN"
 "http://www.w3.org/Graphics/SVG/1.1/DTD/svg11.dtd">
<!-- Generated by graphviz version 14.1.5 (20260411.2331)
 -->
<!-- Pages: 1 -->
<svg width="346pt" height="252pt"
 viewBox="0.00 0.00 346.00 252.00" xmlns="http://www.w3.org/2000/svg" xmlns:xlink="http://www.w3.org/1999/xlink">
<g id="graph0" class="graph" transform="scale(1 1) rotate(0) translate(4 247.5)">
<polygon fill="white" stroke="none" points="-4,4 -4,-247.5 342.17,-247.5 342.17,4 -4,4"/>
<!-- S -->
<g id="node1" class="node">
<title>S</title>
<polygon fill="lightyellow" stroke="black" points="160.38,-243.5 97.88,-243.5 97.88,-207.5 160.38,-207.5 160.38,-243.5"/>
<text xml:space="preserve" text-anchor="middle" x="129.12" y="-220.45" font-family="Times New Roman,serif" font-size="14.00">total = 0</text>
</g>
<!-- C -->
<g id="node2" class="node">
<title>C</title>
<polygon fill="mistyrose" stroke="black" points="129.12,-170.5 36.62,-129.5 129.12,-88.5 221.62,-129.5 129.12,-170.5"/>
<text xml:space="preserve" text-anchor="middle" x="129.12" y="-132.7" font-family="Times New Roman,serif" font-size="14.00">more children</text>
<text xml:space="preserve" text-anchor="middle" x="129.12" y="-116.2" font-family="Times New Roman,serif" font-size="14.00">in roster?</text>
</g>
<!-- S&#45;&gt;C -->
<g id="edge1" class="edge">
<title>S&#45;&gt;C</title>
<path fill="none" stroke="black" d="M129.12,-207.26C129.12,-200.1 129.12,-191.39 129.12,-182.43"/>
<polygon fill="black" stroke="black" points="132.63,-182.56 129.13,-172.56 125.63,-182.56 132.63,-182.56"/>
</g>
<!-- A -->
<g id="node3" class="node">
<title>A</title>
<polygon fill="lightyellow" stroke="black" points="168.25,-36 0,-36 0,0 168.25,0 168.25,-36"/>
<text xml:space="preserve" text-anchor="middle" x="84.12" y="-12.95" font-family="Times New Roman,serif" font-size="14.00">total = total + assess(status)</text>
</g>
<!-- C&#45;&gt;A -->
<g id="edge2" class="edge">
<title>C&#45;&gt;A</title>
<path fill="none" stroke="black" d="M102.28,-100.19C95.48,-91.34 89.07,-81.1 85.38,-70.5 82.86,-63.29 81.89,-55.17 81.7,-47.54"/>
<polygon fill="black" stroke="black" points="85.2,-47.76 81.92,-37.68 78.2,-47.6 85.2,-47.76"/>
<text xml:space="preserve" text-anchor="middle" x="96.25" y="-57.2" font-family="Times New Roman,serif" font-size="14.00"> yes</text>
</g>
<!-- R -->
<g id="node4" class="node">
<title>R</title>
<polygon fill="lightblue" stroke="black" points="338.17,-36 217.2,-36 186.08,0 307.05,0 338.17,-36"/>
<text xml:space="preserve" text-anchor="middle" x="262.12" y="-12.95" font-family="Times New Roman,serif" font-size="14.00">return total</text>
</g>
<!-- C&#45;&gt;R -->
<g id="edge4" class="edge">
<title>C&#45;&gt;R</title>
<path fill="none" stroke="black" d="M160.98,-102.27C182.63,-84.45 211.08,-61.02 232.29,-43.56"/>
<polygon fill="black" stroke="black" points="234.24,-46.49 239.73,-37.44 229.79,-41.09 234.24,-46.49"/>
<text xml:space="preserve" text-anchor="middle" x="227.73" y="-57.2" font-family="Times New Roman,serif" font-size="14.00"> no</text>
</g>
<!-- A&#45;&gt;C -->
<g id="edge3" class="edge">
<title>A&#45;&gt;C</title>
<path fill="none" stroke="black" d="M96.88,-36.22C100.55,-41.7 104.31,-47.93 107.12,-54 111.08,-62.52 114.51,-71.93 117.41,-81.1"/>
<polygon fill="black" stroke="black" points="114.04,-82.06 120.25,-90.64 120.75,-80.06 114.04,-82.06"/>
<text xml:space="preserve" text-anchor="middle" x="127.05" y="-57.2" font-family="Times New Roman,serif" font-size="14.00"> next</text>
</g>
</g>
</svg>
