<?xml version="1.0" encoding="UTF-8" standalone="no"?>
<!DOCTYPE svg PUBLIC "-//W3C//DTD SVG 1.1//EN"
 "http://www.w3.org/Graphics/SVG/1.1/DTD/svg11.dtd">
<!-- Generated by graphviz version 14.1.5 (20260411.2331)
 -->
<!-- Pages: 1 -->
<svg width="286pt" height="387pt"
 viewBox="0.00 0.00 286.00 387.00" xmlns="http://www.w3.org/2000/svg" xmlns:xlink="http://www.w3.org/1999/xlink">
<g id="graph0" class="graph" transform="scale(1 1) rotate(0) translate(4 382.5)">
<polygon fill="white" stroke="none" points="-4,4 -4,-382.5 281.56,-382.5 281.56,4 -4,4"/>
<!-- S -->
<g id="node1" class="node">
<title>S</title>
<ellipse fill="lightgreen" stroke="black" cx="168.02" cy="-360.5" rx="28.32" ry="18"/>
<text xml:space="preserve" text-anchor="middle" x="168.02" y="-355.45" font-family="Times New Roman,serif" font-size="14.00">Start</text>
</g>
<!-- C -->
<g id="node2" class="node">
<title>C</title>
<polygon fill="mistyrose" stroke="black" points="168.02,-305.5 58.49,-287.5 168.02,-269.5 277.56,-287.5 168.02,-305.5"/>
<text xml:space="preserve" text-anchor="middle" x="168.02" y="-282.45" font-family="Times New Roman,serif" font-size="14.00">rank == &#39;captain&#39;?</text>
</g>
<!-- S&#45;&gt;C -->
<g id="edge1" class="edge">
<title>S&#45;&gt;C</title>
<path fill="none" stroke="black" d="M168.02,-342.31C168.02,-334.73 168.02,-325.6 168.02,-317.04"/>
<polygon fill="black" stroke="black" points="171.52,-317.04 168.02,-307.04 164.52,-317.04 171.52,-317.04"/>
</g>
<!-- B -->
<g id="node3" class="node">
<title>B</title>
<polygon fill="mistyrose" stroke="black" points="103.02,-217 0,-199 103.02,-181 206.04,-199 103.02,-217"/>
<text xml:space="preserve" text-anchor="middle" x="103.02" y="-193.95" font-family="Times New Roman,serif" font-size="14.00">rank == &#39;bosun&#39;?</text>
</g>
<!-- C&#45;&gt;B -->
<g id="edge3" class="edge">
<title>C&#45;&gt;B</title>
<path fill="none" stroke="black" d="M156.4,-271.04C146.7,-258.12 132.68,-239.47 121.45,-224.52"/>
<polygon fill="black" stroke="black" points="124.26,-222.43 115.45,-216.54 118.66,-226.64 124.26,-222.43"/>
<text xml:space="preserve" text-anchor="middle" x="157.47" y="-238.2" font-family="Times New Roman,serif" font-size="14.00"> False</text>
</g>
<!-- P1 -->
<g id="node4" class="node">
<title>P1</title>
<polygon fill="lightyellow" stroke="black" points="270.9,-163 197.15,-163 197.15,-127 270.9,-127 270.9,-163"/>
<text xml:space="preserve" text-anchor="middle" x="234.02" y="-139.95" font-family="Times New Roman,serif" font-size="14.00">share = 50</text>
</g>
<!-- C&#45;&gt;P1 -->
<g id="edge2" class="edge">
<title>C&#45;&gt;P1</title>
<path fill="none" stroke="black" d="M180.65,-271.11C191.18,-257.59 205.89,-237.01 215.02,-217 221.17,-203.53 225.64,-187.69 228.7,-174.39"/>
<polygon fill="black" stroke="black" points="232.05,-175.47 230.72,-164.96 225.21,-174.01 232.05,-175.47"/>
<text xml:space="preserve" text-anchor="middle" x="219.29" y="-238.2" font-family="Times New Roman,serif" font-size="14.00"> True</text>
</g>
<!-- P2 -->
<g id="node5" class="node">
<title>P2</title>
<polygon fill="lightyellow" stroke="black" points="87.9,-109 14.15,-109 14.15,-73 87.9,-73 87.9,-109"/>
<text xml:space="preserve" text-anchor="middle" x="51.02" y="-85.95" font-family="Times New Roman,serif" font-size="14.00">share = 20</text>
</g>
<!-- B&#45;&gt;P2 -->
<g id="edge4" class="edge">
<title>B&#45;&gt;P2</title>
<path fill="none" stroke="black" d="M95.12,-181.9C87.02,-165.38 74.26,-139.37 64.55,-119.57"/>
<polygon fill="black" stroke="black" points="67.73,-118.1 60.18,-110.67 61.44,-121.19 67.73,-118.1"/>
<text xml:space="preserve" text-anchor="middle" x="98.97" y="-139.95" font-family="Times New Roman,serif" font-size="14.00"> True</text>
</g>
<!-- P3 -->
<g id="node6" class="node">
<title>P3</title>
<polygon fill="lightyellow" stroke="black" points="206.4,-109 105.65,-109 105.65,-73 206.4,-73 206.4,-109"/>
<text xml:space="preserve" text-anchor="middle" x="156.02" y="-85.95" font-family="Times New Roman,serif" font-size="14.00">share = 0 (else)</text>
</g>
<!-- B&#45;&gt;P3 -->
<g id="edge5" class="edge">
<title>B&#45;&gt;P3</title>
<path fill="none" stroke="black" d="M111.07,-181.9C119.33,-165.38 132.33,-139.37 142.24,-119.57"/>
<polygon fill="black" stroke="black" points="145.35,-121.17 146.69,-110.66 139.09,-118.04 145.35,-121.17"/>
<text xml:space="preserve" text-anchor="middle" x="153.49" y="-139.95" font-family="Times New Roman,serif" font-size="14.00"> False</text>
</g>
<!-- E -->
<g id="node7" class="node">
<title>E</title>
<polygon fill="lightblue" stroke="black" points="229.81,-36 112.43,-36 82.23,0 199.62,0 229.81,-36"/>
<text xml:space="preserve" text-anchor="middle" x="156.02" y="-12.95" font-family="Times New Roman,serif" font-size="14.00">print share</text>
</g>
<!-- P1&#45;&gt;E -->
<g id="edge6" class="edge">
<title>P1&#45;&gt;E</title>
<path fill="none" stroke="black" d="M232.15,-126.58C229.9,-111.5 225.09,-89.58 215.02,-73 208.4,-62.09 198.93,-52.06 189.52,-43.68"/>
<polygon fill="black" stroke="black" points="192.02,-41.21 182.12,-37.44 187.51,-46.57 192.02,-41.21"/>
</g>
<!-- P2&#45;&gt;E -->
<g id="edge7" class="edge">
<title>P2&#45;&gt;E</title>
<path fill="none" stroke="black" d="M76.71,-72.63C90.05,-63.61 106.56,-52.44 121.06,-42.64"/>
<polygon fill="black" stroke="black" points="122.66,-45.78 128.98,-37.28 118.74,-39.99 122.66,-45.78"/>
</g>
<!-- P3&#45;&gt;E -->
<g id="edge8" class="edge">
<title>P3&#45;&gt;E</title>
<path fill="none" stroke="black" d="M156.02,-72.81C156.02,-65.23 156.02,-56.1 156.02,-47.54"/>
<polygon fill="black" stroke="black" points="159.52,-47.54 156.02,-37.54 152.52,-47.54 159.52,-47.54"/>
</g>
</g>
</svg>
