<?xml version="1.0" encoding="UTF-8" standalone="no"?>
<!DOCTYPE svg PUBLIC "-//W3C//DTD SVG 1.1//EN"
 "http://www.w3.org/Graphics/SVG/1.1/DTD/svg11.dtd">
<!-- Generated by graphviz version 14.1.5 (20260411.2331)
 -->
<!-- Pages: 1 -->
<svg width="313pt" height="58pt"
 viewBox="0.00 0.00 313.00 58.00" xmlns="http://www.w3.org/2000/svg" xmlns:xlink="http://www.w3.org/1999/xlink">
<g id="graph0" class="graph" transform="scale(1 1) rotate(0) translate(4 54)">
<polygon fill="white" stroke="none" points="-4,4 -4,-54 308.75,-54 308.75,4 -4,4"/>
<!-- lst -->
<g id="node1" class="node">
<title>lst</title>
<polygon fill="lightblue" stroke="black" points="0,-0.5 0,-49.5 304.75,-49.5 304.75,-0.5 0,-0.5"/>
<text xml:space="preserve" text-anchor="middle" x="37.75" y="-32.2" font-family="Times New Roman,serif" font-size="14.00">index 0</text>
<polyline fill="none" stroke="black" points="75.5,-25 75.5,-49.5"/>
<text xml:space="preserve" text-anchor="middle" x="113.75" y="-32.2" font-family="Times New Roman,serif" font-size="14.00">index 1</text>
<polyline fill="none" stroke="black" points="152,-25 152,-49.5"/>
<text xml:space="preserve" text-anchor="middle" x="190.25" y="-32.2" font-family="Times New Roman,serif" font-size="14.00">index 2</text>
<polyline fill="none" stroke="black" points="228.5,-25 228.5,-49.5"/>
<text xml:space="preserve" text-anchor="middle" x="266.25" y="-32.2" font-family="Times New Roman,serif" font-size="14.00">index 3</text>
<polyline fill="none" stroke="black" points="0,-25 304.75,-25"/>
<text xml:space="preserve" text-anchor="middle" x="44.75" y="-7.7" font-family="Times New Roman,serif" font-size="14.00">vampire cape</text>
<polyline fill="none" stroke="black" points="89.5,-0.5 89.5,-25"/>
<text xml:space="preserve" text-anchor="middle" x="125.62" y="-7.7" font-family="Times New Roman,serif" font-size="14.00">fake fangs</text>
<polyline fill="none" stroke="black" points="161.75,-0.5 161.75,-25"/>
<text xml:space="preserve" text-anchor="middle" x="209.12" y="-7.7" font-family="Times New Roman,serif" font-size="14.00">two bat masks</text>
<polyline fill="none" stroke="black" points="256.5,-0.5 256.5,-25"/>
<text xml:space="preserve" text-anchor="middle" x="280.62" y="-7.7" font-family="Times New Roman,serif" font-size="14.00">coffin</text>
</g>
</g>
</svg>
