<?xml version="1.0" encoding="UTF-8" standalone="no"?>
<!DOCTYPE svg PUBLIC "-//W3C//DTD SVG 1.1//EN"
 "http://www.w3.org/Graphics/SVG/1.1/DTD/svg11.dtd">
<!-- Generated by graphviz version 14.1.5 (20260411.2331)
 -->
<!-- Pages: 1 -->
<svg width="337pt" height="98pt"
 viewBox="0.00 0.00 337.00 98.00" xmlns="http://www.w3.org/2000/svg" xmlns:xlink="http://www.w3.org/1999/xlink">
<g id="graph0" class="graph" transform="scale(1 1) rotate(0) translate(4 94)">
<polygon fill="white" stroke="none" points="-4,4 -4,-94 332.55,-94 332.55,4 -4,4"/>
<!-- M -->
<g id="node1" class="node">
<title>M</title>
<ellipse fill="lightyellow" stroke="black" cx="42.65" cy="-72" rx="42.65" ry="18"/>
<text xml:space="preserve" text-anchor="middle" x="42.65" y="-66.95" font-family="Times New Roman,serif" font-size="14.00">morning</text>
</g>
<!-- L -->
<g id="node3" class="node">
<title>L</title>
<polygon fill="lightblue" stroke="black" points="328.55,-63 121.3,-63 121.3,-27 328.55,-27 328.55,-63"/>
<text xml:space="preserve" text-anchor="middle" x="224.93" y="-39.95" font-family="Times New Roman,serif" font-size="14.00">[&#39;cards&#39;, &#39;ink&#39;, &#39;journals&#39;, &#39;wax seals&#39;]</text>
</g>
<!-- M&#45;&gt;L -->
<g id="edge1" class="edge">
<title>M&#45;&gt;L</title>
<path fill="none" stroke="black" d="M83.21,-66.07C91.41,-64.85 100.43,-63.5 109.82,-62.09"/>
<polygon fill="black" stroke="black" points="110.12,-65.58 119.5,-60.64 109.09,-58.66 110.12,-65.58"/>
</g>
<!-- E -->
<g id="node2" class="node">
<title>E</title>
<ellipse fill="lightyellow" stroke="black" cx="42.65" cy="-18" rx="40.09" ry="18"/>
<text xml:space="preserve" text-anchor="middle" x="42.65" y="-12.95" font-family="Times New Roman,serif" font-size="14.00">evening</text>
</g>
<!-- E&#45;&gt;L -->
<g id="edge2" class="edge">
<title>E&#45;&gt;L</title>
<path fill="none" stroke="black" d="M81,-23.59C89.79,-24.91 99.61,-26.38 109.87,-27.92"/>
<polygon fill="black" stroke="black" points="109.25,-31.36 119.66,-29.38 110.29,-24.44 109.25,-31.36"/>
</g>
</g>
</svg>
