<?xml version="1.0" encoding="UTF-8" standalone="no"?>
<!DOCTYPE svg PUBLIC "-//W3C//DTD SVG 1.1//EN"
 "http://www.w3.org/Graphics/SVG/1.1/DTD/svg11.dtd">
<!-- Generated by graphviz version 14.1.5 (20260411.2331)
 -->
<!-- Pages: 1 -->
<svg width="254pt" height="143pt"
 viewBox="0.00 0.00 254.00 143.00" xmlns="http://www.w3.org/2000/svg" xmlns:xlink="http://www.w3.org/1999/xlink">
<g id="graph0" class="graph" transform="scale(1 1) rotate(0) translate(4 138.5)">
<polygon fill="white" stroke="none" points="-4,4 -4,-138.5 249.5,-138.5 249.5,4 -4,4"/>
<!-- I -->
<g id="node1" class="node">
<title>I</title>
<polygon fill="lightyellow" stroke="black" stroke-width="2" points="193.38,-134.5 32.62,-134.5 32.62,-93.5 193.38,-93.5 193.38,-134.5"/>
<text xml:space="preserve" text-anchor="middle" x="113" y="-117.2" font-family="Times New Roman,serif" font-size="14.00">Queue (the promise)</text>
<text xml:space="preserve" text-anchor="middle" x="113" y="-100.7" font-family="Times New Roman,serif" font-size="14.00">add · next_customer · size</text>
</g>
<!-- L -->
<g id="node2" class="node">
<title>L</title>
<polygon fill="lightgrey" stroke="black" stroke-dasharray="5,2" points="94,-41 0,-41 0,0 94,0 94,-41"/>
<text xml:space="preserve" text-anchor="middle" x="47" y="-23.7" font-family="Times New Roman,serif" font-size="14.00">stored as a list</text>
<text xml:space="preserve" text-anchor="middle" x="47" y="-7.2" font-family="Times New Roman,serif" font-size="14.00">line = []</text>
</g>
<!-- I&#45;&gt;L -->
<g id="edge1" class="edge">
<title>I&#45;&gt;L</title>
<path fill="none" stroke="black" d="M98.68,-93.15C89.68,-80.68 77.93,-64.38 67.9,-50.48"/>
<polygon fill="black" stroke="black" points="70.87,-48.61 62.18,-42.54 65.19,-52.7 70.87,-48.61"/>
<text xml:space="preserve" text-anchor="middle" x="114.79" y="-62.2" font-family="Times New Roman,serif" font-size="14.00">one option</text>
</g>
<!-- D -->
<g id="node3" class="node">
<title>D</title>
<polygon fill="lightgrey" stroke="black" stroke-dasharray="5,2" points="245.5,-41 112.5,-41 112.5,0 245.5,0 245.5,-41"/>
<text xml:space="preserve" text-anchor="middle" x="179" y="-23.7" font-family="Times New Roman,serif" font-size="14.00">stored as a dict</text>
<text xml:space="preserve" text-anchor="middle" x="179" y="-7.2" font-family="Times New Roman,serif" font-size="14.00">line = {ticket: name}</text>
</g>
<!-- I&#45;&gt;D -->
<g id="edge2" class="edge">
<title>I&#45;&gt;D</title>
<path fill="none" stroke="black" d="M133.15,-93.11C138.26,-87.62 143.56,-81.52 148,-75.5 153.55,-67.98 158.89,-59.38 163.53,-51.28"/>
<polygon fill="black" stroke="black" points="166.47,-53.19 168.25,-42.74 160.35,-49.8 166.47,-53.19"/>
<text xml:space="preserve" text-anchor="middle" x="197.82" y="-62.2" font-family="Times New Roman,serif" font-size="14.00">another option</text>
</g>
</g>
</svg>
