<?xml version="1.0" encoding="UTF-8" standalone="no"?>
<!DOCTYPE svg PUBLIC "-//W3C//DTD SVG 1.1//EN"
 "http://www.w3.org/Graphics/SVG/1.1/DTD/svg11.dtd">
<!-- Generated by graphviz version 14.1.5 (20260411.2331)
 -->
<!-- Pages: 1 -->
<svg width="259pt" height="152pt"
 viewBox="0.00 0.00 259.00 152.00" xmlns="http://www.w3.org/2000/svg" xmlns:xlink="http://www.w3.org/1999/xlink">
<g id="graph0" class="graph" transform="scale(1 1) rotate(0) translate(4 148)">
<polygon fill="white" stroke="none" points="-4,4 -4,-148 254.75,-148 254.75,4 -4,4"/>
<!-- k0 -->
<g id="node1" class="node">
<title>k0</title>
<polygon fill="lightyellow" stroke="black" points="113.88,-36 5.62,-36 5.62,0 113.88,0 113.88,-36"/>
<text xml:space="preserve" text-anchor="middle" x="59.75" y="-12.95" font-family="Times New Roman,serif" font-size="14.00">half&#45;mask, white</text>
</g>
<!-- v0 -->
<g id="node2" class="node">
<title>v0</title>
<polygon fill="lightblue" stroke="black" points="250.75,-36 196.75,-36 196.75,0 250.75,0 250.75,-36"/>
<text xml:space="preserve" text-anchor="middle" x="223.75" y="-12.95" font-family="Times New Roman,serif" font-size="14.00">£12.00</text>
</g>
<!-- k0&#45;&gt;v0 -->
<g id="edge1" class="edge">
<title>k0&#45;&gt;v0</title>
<path fill="none" stroke="black" d="M114.24,-18C137.46,-18 164.11,-18 185.18,-18"/>
<polygon fill="black" stroke="black" points="185.05,-21.5 195.05,-18 185.05,-14.5 185.05,-21.5"/>
<text xml:space="preserve" text-anchor="middle" x="158.12" y="-21.2" font-family="Times New Roman,serif" font-size="14.00">look up</text>
</g>
<!-- k1 -->
<g id="node3" class="node">
<title>k1</title>
<polygon fill="lightyellow" stroke="black" points="105.25,-90 14.25,-90 14.25,-54 105.25,-54 105.25,-90"/>
<text xml:space="preserve" text-anchor="middle" x="59.75" y="-66.95" font-family="Times New Roman,serif" font-size="14.00">domino mask</text>
</g>
<!-- v1 -->
<g id="node4" class="node">
<title>v1</title>
<polygon fill="lightblue" stroke="black" points="250.75,-90 196.75,-90 196.75,-54 250.75,-54 250.75,-90"/>
<text xml:space="preserve" text-anchor="middle" x="223.75" y="-66.95" font-family="Times New Roman,serif" font-size="14.00">£5.00</text>
</g>
<!-- k1&#45;&gt;v1 -->
<g id="edge2" class="edge">
<title>k1&#45;&gt;v1</title>
<path fill="none" stroke="black" d="M105.45,-72C130.44,-72 161.26,-72 185.03,-72"/>
<polygon fill="black" stroke="black" points="184.9,-75.5 194.9,-72 184.9,-68.5 184.9,-75.5"/>
<text xml:space="preserve" text-anchor="middle" x="158.12" y="-75.2" font-family="Times New Roman,serif" font-size="14.00">look up</text>
</g>
<!-- k2 -->
<g id="node5" class="node">
<title>k2</title>
<polygon fill="lightyellow" stroke="black" points="119.5,-144 0,-144 0,-108 119.5,-108 119.5,-144"/>
<text xml:space="preserve" text-anchor="middle" x="59.75" y="-120.95" font-family="Times New Roman,serif" font-size="14.00">plague doctor beak</text>
</g>
<!-- v2 -->
<g id="node6" class="node">
<title>v2</title>
<polygon fill="lightblue" stroke="black" points="250.75,-144 196.75,-144 196.75,-108 250.75,-108 250.75,-144"/>
<text xml:space="preserve" text-anchor="middle" x="223.75" y="-120.95" font-family="Times New Roman,serif" font-size="14.00">£18.00</text>
</g>
<!-- k2&#45;&gt;v2 -->
<g id="edge3" class="edge">
<title>k2&#45;&gt;v2</title>
<path fill="none" stroke="black" d="M119.69,-126C141.57,-126 165.77,-126 185.22,-126"/>
<polygon fill="black" stroke="black" points="185.14,-129.5 195.14,-126 185.14,-122.5 185.14,-129.5"/>
<text xml:space="preserve" text-anchor="middle" x="158.12" y="-129.2" font-family="Times New Roman,serif" font-size="14.00">look up</text>
</g>
</g>
</svg>
