<?xml version="1.0" encoding="UTF-8" standalone="no"?>
<!DOCTYPE svg PUBLIC "-//W3C//DTD SVG 1.1//EN"
 "http://www.w3.org/Graphics/SVG/1.1/DTD/svg11.dtd">
<!-- Generated by graphviz version 14.1.5 (20260411.2331)
 -->
<!-- Pages: 1 -->
<svg width="320pt" height="98pt"
 viewBox="0.00 0.00 320.00 98.00" xmlns="http://www.w3.org/2000/svg" xmlns:xlink="http://www.w3.org/1999/xlink">
<g id="graph0" class="graph" transform="scale(1 1) rotate(0) translate(4 94)">
<polygon fill="white" stroke="none" points="-4,4 -4,-94 315.65,-94 315.65,4 -4,4"/>
<!-- M -->
<g id="node1" class="node">
<title>M</title>
<ellipse fill="lightyellow" stroke="black" cx="44.7" cy="-72" rx="28.32" ry="18"/>
<text xml:space="preserve" text-anchor="middle" x="44.7" y="-66.95" font-family="Times New Roman,serif" font-size="14.00">dusk</text>
</g>
<!-- L -->
<g id="node3" class="node">
<title>L</title>
<polygon fill="lightblue" stroke="black" points="311.65,-63 125.4,-63 125.4,-27 311.65,-27 311.65,-63"/>
<text xml:space="preserve" text-anchor="middle" x="218.52" y="-39.95" font-family="Times New Roman,serif" font-size="14.00">[&#39;cape&#39;, &#39;fangs&#39;, &#39;masks&#39;, &#39;coffin&#39;]</text>
</g>
<!-- M&#45;&gt;L -->
<g id="edge1" class="edge">
<title>M&#45;&gt;L</title>
<path fill="none" stroke="black" d="M72.55,-67.78C84.17,-65.96 98.58,-63.69 113.77,-61.3"/>
<polygon fill="black" stroke="black" points="114.11,-64.79 123.45,-59.78 113.03,-57.88 114.11,-64.79"/>
</g>
<!-- E -->
<g id="node2" class="node">
<title>E</title>
<ellipse fill="lightyellow" stroke="black" cx="44.7" cy="-18" rx="44.7" ry="18"/>
<text xml:space="preserve" text-anchor="middle" x="44.7" y="-12.95" font-family="Times New Roman,serif" font-size="14.00">midnight</text>
</g>
<!-- E&#45;&gt;L -->
<g id="edge2" class="edge">
<title>E&#45;&gt;L</title>
<path fill="none" stroke="black" d="M86.85,-24.47C95.2,-25.78 104.33,-27.21 113.77,-28.7"/>
<polygon fill="black" stroke="black" points="113.03,-32.12 123.45,-30.22 114.12,-25.21 113.03,-32.12"/>
</g>
</g>
</svg>
