<?xml version="1.0" encoding="UTF-8" standalone="no"?>
<!DOCTYPE svg PUBLIC "-//W3C//DTD SVG 1.1//EN"
 "http://www.w3.org/Graphics/SVG/1.1/DTD/svg11.dtd">
<!-- Generated by graphviz version 14.1.5 (20260411.2331)
 -->
<!-- Pages: 1 -->
<svg width="280pt" height="143pt"
 viewBox="0.00 0.00 280.00 143.00" xmlns="http://www.w3.org/2000/svg" xmlns:xlink="http://www.w3.org/1999/xlink">
<g id="graph0" class="graph" transform="scale(1 1) rotate(0) translate(4 138.5)">
<polygon fill="white" stroke="none" points="-4,4 -4,-138.5 276,-138.5 276,4 -4,4"/>
<!-- I -->
<g id="node1" class="node">
<title>I</title>
<polygon fill="lightyellow" stroke="black" stroke-width="2" points="199.75,-134.5 35.25,-134.5 35.25,-93.5 199.75,-93.5 199.75,-134.5"/>
<text xml:space="preserve" text-anchor="middle" x="117.5" y="-117.2" font-family="Times New Roman,serif" font-size="14.00">CustomerQueue (interface)</text>
<text xml:space="preserve" text-anchor="middle" x="117.5" y="-100.7" font-family="Times New Roman,serif" font-size="14.00">add · next_customer · size</text>
</g>
<!-- L -->
<g id="node2" class="node">
<title>L</title>
<polygon fill="lightgrey" stroke="black" stroke-dasharray="5,2" points="91,-41 0,-41 0,0 91,0 91,-41"/>
<text xml:space="preserve" text-anchor="middle" x="45.5" y="-23.7" font-family="Times New Roman,serif" font-size="14.00">list&#45;backed</text>
<text xml:space="preserve" text-anchor="middle" x="45.5" y="-7.2" font-family="Times New Roman,serif" font-size="14.00">self._line = []</text>
</g>
<!-- I&#45;&gt;L -->
<g id="edge1" class="edge">
<title>I&#45;&gt;L</title>
<path fill="none" stroke="black" d="M101.88,-93.15C91.97,-80.56 78.99,-64.07 67.99,-50.08"/>
<polygon fill="black" stroke="black" points="70.96,-48.2 62.03,-42.5 65.46,-52.53 70.96,-48.2"/>
<text xml:space="preserve" text-anchor="middle" x="116.82" y="-62.2" font-family="Times New Roman,serif" font-size="14.00">one option</text>
</g>
<!-- D -->
<g id="node3" class="node">
<title>D</title>
<polygon fill="lightgrey" stroke="black" stroke-dasharray="5,2" points="272,-41 109,-41 109,0 272,0 272,-41"/>
<text xml:space="preserve" text-anchor="middle" x="190.5" y="-23.7" font-family="Times New Roman,serif" font-size="14.00">dict&#45;backed</text>
<text xml:space="preserve" text-anchor="middle" x="190.5" y="-7.2" font-family="Times New Roman,serif" font-size="14.00">self._line = {ticket: name}</text>
</g>
<!-- I&#45;&gt;D -->
<g id="edge2" class="edge">
<title>I&#45;&gt;D</title>
<path fill="none" stroke="black" d="M134.65,-93.33C139.52,-87.63 144.78,-81.37 149.5,-75.5 155.92,-67.53 162.71,-58.74 168.88,-50.61"/>
<polygon fill="black" stroke="black" points="171.64,-52.76 174.86,-42.67 166.05,-48.55 171.64,-52.76"/>
<text xml:space="preserve" text-anchor="middle" x="201.54" y="-62.2" font-family="Times New Roman,serif" font-size="14.00">another option</text>
</g>
</g>
</svg>
