<?xml version="1.0" encoding="UTF-8" standalone="no"?>
<!DOCTYPE svg PUBLIC "-//W3C//DTD SVG 1.1//EN"
 "http://www.w3.org/Graphics/SVG/1.1/DTD/svg11.dtd">
<!-- Generated by graphviz version 14.1.5 (20260411.2331)
 -->
<!-- Pages: 1 -->
<svg width="554pt" height="127pt"
 viewBox="0.00 0.00 554.00 127.00" xmlns="http://www.w3.org/2000/svg" xmlns:xlink="http://www.w3.org/1999/xlink">
<g id="graph0" class="graph" transform="scale(1 1) rotate(0) translate(4 122.63)">
<polygon fill="white" stroke="none" points="-4,4 -4,-122.63 549.75,-122.63 549.75,4 -4,4"/>
<g id="clust1" class="cluster">
<title>cluster_fn</title>
<polygon fill="oldlace" stroke="black" points="8,-28.63 8,-110.63 312,-110.63 312,-28.63 8,-28.63"/>
<text xml:space="preserve" text-anchor="middle" x="160" y="-93.33" font-family="Times New Roman,serif" font-size="14.00">inside supply_units (local scope)</text>
</g>
<!-- C -->
<g id="node1" class="node">
<title>C</title>
<polygon fill="lightblue" stroke="black" points="545.75,-42.13 430.75,-42.13 430.75,-1.13 545.75,-1.13 545.75,-42.13"/>
<text xml:space="preserve" text-anchor="middle" x="488.25" y="-24.83" font-family="Times New Roman,serif" font-size="14.00">caller</text>
<text xml:space="preserve" text-anchor="middle" x="488.25" y="-8.33" font-family="Times New Roman,serif" font-size="14.00">supply_units(4, 3)</text>
</g>
<!-- P -->
<g id="node2" class="node">
<title>P</title>
<polygon fill="lightyellow" stroke="black" points="105.5,-78.13 16,-78.13 16,-37.13 105.5,-37.13 105.5,-78.13"/>
<text xml:space="preserve" text-anchor="middle" x="60.75" y="-60.83" font-family="Times New Roman,serif" font-size="14.00">children = 4</text>
<text xml:space="preserve" text-anchor="middle" x="60.75" y="-44.33" font-family="Times New Roman,serif" font-size="14.00">per_child = 3</text>
</g>
<!-- C&#45;&gt;P -->
<g id="edge2" class="edge">
<title>C&#45;&gt;P</title>
<path fill="none" stroke="black" d="M430.42,-11.7C361.26,-1.63 241.44,9.32 142.5,-15.13 128.92,-18.48 115.11,-24.58 102.83,-31.13"/>
<polygon fill="black" stroke="black" points="101.25,-28 94.24,-35.94 104.68,-34.1 101.25,-28"/>
<text xml:space="preserve" text-anchor="middle" x="223.25" y="-18.33" font-family="Times New Roman,serif" font-size="14.00"> arguments in </text>
</g>
<!-- R -->
<g id="node3" class="node">
<title>R</title>
<polygon fill="lightyellow" stroke="black" points="304,-76.63 142.5,-76.63 142.5,-40.63 304,-40.63 304,-76.63"/>
<text xml:space="preserve" text-anchor="middle" x="223.25" y="-53.58" font-family="Times New Roman,serif" font-size="14.00">return children * per_child</text>
</g>
<!-- P&#45;&gt;R -->
<g id="edge1" class="edge">
<title>P&#45;&gt;R</title>
<path fill="none" stroke="black" d="M105.61,-57.9C113.48,-57.95 121.95,-58 130.59,-58.06"/>
<polygon fill="black" stroke="black" points="130.49,-61.56 140.52,-58.12 130.54,-54.56 130.49,-61.56"/>
</g>
<!-- R&#45;&gt;C -->
<g id="edge3" class="edge">
<title>R&#45;&gt;C</title>
<path fill="none" stroke="black" d="M304.23,-47.38C341.05,-42.2 384.27,-36.12 419.46,-31.17"/>
<polygon fill="black" stroke="black" points="419.67,-34.67 429.09,-29.81 418.7,-27.74 419.67,-34.67"/>
<text xml:space="preserve" text-anchor="middle" x="367.38" y="-47.73" font-family="Times New Roman,serif" font-size="14.00"> 12 returned out </text>
</g>
</g>
</svg>
