<?xml version="1.0" encoding="UTF-8" standalone="no"?>
<!DOCTYPE svg PUBLIC "-//W3C//DTD SVG 1.1//EN"
 "http://www.w3.org/Graphics/SVG/1.1/DTD/svg11.dtd">
<!-- Generated by graphviz version 14.1.5 (20260411.2331)
 -->
<!-- Pages: 1 -->
<svg width="390pt" height="189pt"
 viewBox="0.00 0.00 390.00 189.00" xmlns="http://www.w3.org/2000/svg" xmlns:xlink="http://www.w3.org/1999/xlink">
<g id="graph0" class="graph" transform="scale(1 1) rotate(0) translate(4 185)">
<polygon fill="white" stroke="none" points="-4,4 -4,-185 386,-185 386,4 -4,4"/>
<g id="clust1" class="cluster">
<title>cluster_seq</title>
<polygon fill="#e3f2fd" stroke="black" points="8,-8 8,-173 80,-173 80,-8 8,-8"/>
<text xml:space="preserve" text-anchor="middle" x="44" y="-155.7" font-family="Times New Roman,serif" font-size="14.00">Sequence</text>
</g>
<g id="clust2" class="cluster">
<title>cluster_sel</title>
<polygon fill="#e8f5e9" stroke="black" points="88,-8 88,-173 230,-173 230,-8 88,-8"/>
<text xml:space="preserve" text-anchor="middle" x="159" y="-155.7" font-family="Times New Roman,serif" font-size="14.00">Selection</text>
</g>
<g id="clust3" class="cluster">
<title>cluster_it</title>
<polygon fill="#fff3e0" stroke="black" points="238,-8 238,-173 374,-173 374,-8 238,-8"/>
<text xml:space="preserve" text-anchor="middle" x="306" y="-155.7" font-family="Times New Roman,serif" font-size="14.00">Iteration</text>
</g>
<!-- s1 -->
<g id="node1" class="node">
<title>s1</title>
<polygon fill="none" stroke="black" points="71.5,-140.5 16.5,-140.5 16.5,-104.5 71.5,-104.5 71.5,-140.5"/>
<text xml:space="preserve" text-anchor="middle" x="44" y="-117.08" font-family="Helvetica,sans-Serif" font-size="14.00">Step 1</text>
</g>
<!-- s2 -->
<g id="node2" class="node">
<title>s2</title>
<polygon fill="none" stroke="black" points="71.5,-52 16.5,-52 16.5,-16 71.5,-16 71.5,-52"/>
<text xml:space="preserve" text-anchor="middle" x="44" y="-28.57" font-family="Helvetica,sans-Serif" font-size="14.00">Step 2</text>
</g>
<!-- s1&#45;&gt;s2 -->
<g id="edge1" class="edge">
<title>s1&#45;&gt;s2</title>
<path fill="none" stroke="black" d="M44,-104.41C44,-92.76 44,-77.05 44,-63.52"/>
<polygon fill="black" stroke="black" points="47.5,-63.86 44,-53.86 40.5,-63.86 47.5,-63.86"/>
</g>
<!-- d -->
<g id="node3" class="node">
<title>d</title>
<polygon fill="none" stroke="black" points="155,-140.5 112.42,-122.5 155,-104.5 197.58,-122.5 155,-140.5"/>
<text xml:space="preserve" text-anchor="middle" x="155" y="-117.08" font-family="Helvetica,sans-Serif" font-size="14.00">test?</text>
</g>
<!-- y -->
<g id="node4" class="node">
<title>y</title>
<polygon fill="none" stroke="black" points="150,-52 96,-52 96,-16 150,-16 150,-52"/>
<text xml:space="preserve" text-anchor="middle" x="123" y="-28.57" font-family="Helvetica,sans-Serif" font-size="14.00">do A</text>
</g>
<!-- d&#45;&gt;y -->
<g id="edge2" class="edge">
<title>d&#45;&gt;y</title>
<path fill="none" stroke="black" d="M148.16,-107C145.33,-100.76 142.1,-93.33 139.5,-86.5 136.66,-79.04 133.89,-70.86 131.45,-63.25"/>
<polygon fill="black" stroke="black" points="134.81,-62.28 128.5,-53.77 128.13,-64.36 134.81,-62.28"/>
<text xml:space="preserve" text-anchor="middle" x="152.25" y="-73.2" font-family="Times New Roman,serif" font-size="14.00">True</text>
</g>
<!-- n -->
<g id="node5" class="node">
<title>n</title>
<polygon fill="none" stroke="black" points="222,-52 168,-52 168,-16 222,-16 222,-52"/>
<text xml:space="preserve" text-anchor="middle" x="195" y="-28.57" font-family="Helvetica,sans-Serif" font-size="14.00">do B</text>
</g>
<!-- d&#45;&gt;n -->
<g id="edge3" class="edge">
<title>d&#45;&gt;n</title>
<path fill="none" stroke="black" d="M161.79,-106.83C167.38,-94.73 175.48,-77.22 182.27,-62.52"/>
<polygon fill="black" stroke="black" points="185.28,-64.35 186.3,-53.81 178.93,-61.41 185.28,-64.35"/>
<text xml:space="preserve" text-anchor="middle" x="192.83" y="-73.2" font-family="Times New Roman,serif" font-size="14.00">False</text>
</g>
<!-- t -->
<g id="node6" class="node">
<title>t</title>
<polygon fill="none" stroke="black" points="301,-140.5 258.42,-122.5 301,-104.5 343.58,-122.5 301,-140.5"/>
<text xml:space="preserve" text-anchor="middle" x="301" y="-117.08" font-family="Helvetica,sans-Serif" font-size="14.00">test?</text>
</g>
<!-- b -->
<g id="node7" class="node">
<title>b</title>
<polygon fill="none" stroke="black" points="320,-52 266,-52 266,-16 320,-16 320,-52"/>
<text xml:space="preserve" text-anchor="middle" x="293" y="-28.57" font-family="Helvetica,sans-Serif" font-size="14.00">body</text>
</g>
<!-- t&#45;&gt;b -->
<g id="edge4" class="edge">
<title>t&#45;&gt;b</title>
<path fill="none" stroke="black" d="M285.35,-110.78C277.83,-104.65 269.58,-96.24 265.5,-86.5 262.03,-78.22 264.26,-69.5 268.65,-61.64"/>
<polygon fill="black" stroke="black" points="271.48,-63.71 274.26,-53.49 265.71,-59.75 271.48,-63.71"/>
<text xml:space="preserve" text-anchor="middle" x="278.25" y="-73.2" font-family="Times New Roman,serif" font-size="14.00">True</text>
</g>
<!-- b&#45;&gt;t -->
<g id="edge5" class="edge">
<title>b&#45;&gt;t</title>
<path fill="none" stroke="black" d="M294.59,-52.22C295.69,-64.04 297.16,-80 298.42,-93.62"/>
<polygon fill="black" stroke="black" points="294.91,-93.68 299.32,-103.31 301.88,-93.03 294.91,-93.68"/>
<text xml:space="preserve" text-anchor="middle" x="324.34" y="-73.2" font-family="Times New Roman,serif" font-size="14.00">loop back</text>
</g>
</g>
</svg>
